<?xml version="1.0" encoding="UTF-8"?>
<svg width="106px" height="106px" viewBox="0 0 106 106" version="1.1" xmlns="http://www.w3.org/2000/svg" xmlns:xlink="http://www.w3.org/1999/xlink">
    <!-- Generator: Sketch 47 (45396) - http://www.bohemiancoding.com/sketch -->
    <title>cta-round2-hover</title>
    <desc>Created with Sketch.</desc>
    <defs></defs>
    <g id="Page-1" stroke="none" stroke-width="1" fill="none" fill-rule="evenodd">
        <g id="cta-round2-hover" transform="translate(1.000000, 1.000000)">
            <path d="M51.5157,103.031 C79.9667,103.031 103.0317,79.967 103.0317,51.515 C103.0317,23.064 79.9667,0 51.5157,0 C23.0647,0 -0.0003,23.064 -0.0003,51.515 C-0.0003,79.967 23.0647,103.031 51.5157,103.031 Z" id="Stroke-1" stroke="#FFFFFF" stroke-width="2" fill="#FFFFFF"></path>
            <path d="M31.6305,27.3849 L37.7035,23.5069 L33.5775,17.0459 C33.0105,16.1579 32.1575,15.9569 31.2845,16.5149 L27.2855,19.0679 C27.0985,19.1869 26.8735,19.1499 26.7265,18.9209 L26.5255,18.6059 L26.2555,18.7779 C26.2885,19.0189 26.4735,20.1309 27.1685,21.2189 C27.6535,21.9779 28.3245,22.1139 28.8535,21.7759 L29.1105,21.6119 L29.1295,21.6399 C28.9865,22.7409 29.0655,23.3359 29.6055,24.1819 L31.6305,27.3849 Z M31.1355,23.9919 C30.9205,24.1289 30.7925,24.1509 30.5735,23.8059 L30.3445,23.4479 C29.8225,22.6309 29.7155,22.2749 29.5985,21.2999 L32.3935,19.5149 C33.3105,18.9299 33.6345,19.0259 34.2015,19.9149 L35.1635,21.4199 L31.1355,23.9919 Z M43.1055,18.2939 C43.7715,17.7159 44.8985,16.6599 44.3495,14.3619 C44.2195,13.8169 43.8715,12.7989 43.6935,12.5629 C43.5635,12.3839 43.1555,11.9919 42.3785,12.1779 L40.7405,12.5689 C40.3765,12.6559 40.1765,12.4769 40.1055,12.1789 L40.0415,11.9149 L39.7295,11.9889 C39.6825,12.2279 39.5095,13.3349 39.7815,14.4749 C40.0465,15.5819 40.5595,15.8259 41.4835,15.6059 L42.7415,15.3049 C43.3535,15.1589 43.6075,15.3429 43.7255,15.8389 C43.8725,16.4509 43.5135,17.1479 42.7875,17.9159 L43.1055,18.2939 Z M56.4345,12.4609 C56.1375,11.7119 55.6845,11.2939 54.8185,11.2449 L51.2205,11.0389 C50.9995,11.0269 50.8385,10.8639 50.8545,10.5929 L50.8755,10.2189 L50.5535,10.2009 C50.4205,10.4319 49.9335,11.5099 49.8685,12.6479 C49.8135,13.6149 50.0915,14.1079 50.9065,14.1539 L50.9405,14.1559 L50.9385,14.1899 C50.5855,14.6979 49.8735,15.5429 49.7825,17.1379 C49.6645,19.1919 50.8115,20.5849 53.0345,20.7119 C55.1725,20.8349 56.6515,19.3869 56.8345,16.1959 C56.9675,13.8709 56.5085,12.6519 56.4345,12.4609 L56.4345,12.4609 Z M53.2525,17.7959 C51.5375,17.6979 50.8215,17.1289 50.8925,15.8899 C50.9395,15.0589 51.3235,14.6039 51.5855,14.1929 L54.7755,14.3749 C55.7605,14.4319 55.9865,14.9379 55.9255,16.0079 C55.8475,17.3819 55.0345,17.8979 53.2525,17.7959 L53.2525,17.7959 Z M63.2745,19.3299 C64.1495,19.2219 65.6755,18.9769 66.5055,16.7649 C66.7015,16.2389 66.9825,15.2009 66.9665,14.9039 C66.9585,14.6829 66.8385,14.1299 66.0905,13.8499 L64.5145,13.2589 C64.1645,13.1279 64.0985,12.8669 64.2065,12.5809 L64.3015,12.3259 L63.9995,12.2129 C63.8265,12.3839 63.0645,13.2059 62.6525,14.3039 C62.2525,15.3699 62.5415,15.8599 63.4325,16.1939 L64.6425,16.6469 C65.2315,16.8679 65.3395,17.1629 65.1605,17.6399 C64.9395,18.2289 64.2525,18.6069 63.2225,18.8379 L63.2745,19.3299 Z M78.0725,20.7369 C77.0395,19.9329 75.6645,20.7589 74.2225,22.1139 L73.5825,22.7149 L73.9315,22.9859 L74.1925,22.8439 C74.8385,22.4849 75.6135,22.6789 76.0295,23.0029 C76.8345,23.6289 76.8505,24.2449 76.0675,25.2509 C75.6295,25.8149 75.2325,26.1309 74.8165,26.3889 L70.8585,23.3089 C71.2075,22.6109 71.4145,22.2339 71.6755,21.8989 C72.0205,21.4559 72.4795,21.0589 72.7245,20.8839 L72.9745,21.1429 C73.1955,21.3579 73.1565,21.4349 73.0925,21.6009 L73.2135,21.6949 C73.9215,21.2549 74.3855,20.7969 74.7195,20.3679 C75.1685,19.7909 75.4335,19.2009 74.9195,18.6709 L74.3485,18.0759 C74.0285,17.7409 74.0895,17.5509 74.2775,17.3099 L74.4125,17.1349 L74.1575,16.9369 C73.6945,17.2009 72.8305,17.5629 72.1315,18.4619 C71.7345,18.9719 71.4485,19.5889 72.1835,20.3329 L72.2235,20.3649 C71.8415,20.6059 71.1425,21.1169 70.5685,21.8549 C70.1085,22.4459 69.2855,24.0019 68.6095,25.4789 L72.6745,28.6429 C75.0225,27.4529 76.1925,26.4469 77.2055,25.1459 C78.5725,23.3879 79.2395,21.6449 78.0725,20.7369 L78.0725,20.7369 Z M79.4685,37.9989 C79.8315,38.6319 80.4535,38.5889 81.3135,38.0379 L86.4695,34.7289 C87.3725,34.1529 87.8065,33.6109 87.1645,32.4909 L85.3205,29.2739 C85.1345,28.9499 85.2495,28.7069 85.5155,28.5549 L85.7515,28.4189 L85.5915,28.1409 C85.3495,28.1619 84.2235,28.3179 83.2365,28.8839 C82.2345,29.4579 82.1445,30.0189 82.6165,30.8439 L84.4435,34.0309 C84.7565,34.5769 84.5715,34.7999 83.7305,35.2819 L80.5155,37.1249 C79.7635,37.5569 79.6055,37.5879 79.4215,37.5759 L79.3035,37.6439 C79.3485,37.7549 79.4015,37.8819 79.4685,37.9989 L79.4685,37.9989 Z M81.6865,43.1319 L82.3385,47.8119 C82.4185,48.3849 82.7285,48.8909 83.3815,49.2639 C84.0715,49.6639 85.1035,49.9319 87.1415,49.6479 C89.4825,49.3219 90.5715,48.6389 90.7445,48.5299 C91.4215,48.0929 91.7425,47.5669 91.6225,46.7079 L91.1865,43.5749 C91.1565,43.3559 91.2845,43.1669 91.5535,43.1289 L91.9245,43.0779 L91.8795,42.7599 C91.6275,42.6749 90.4745,42.4059 89.3475,42.5629 C88.3885,42.6969 87.9595,43.0649 88.0715,43.8709 L88.5335,47.1899 C88.6775,48.2169 88.2285,48.5719 87.0825,48.7309 C86.1055,48.8669 85.6195,48.7119 85.5285,48.0549 L84.8815,43.4079 L81.6865,43.1319 Z" id="Fill-3" fill="#00AE7C"></path>
            <path d="M16.2333,59.1061 C16.7353,60.4021 18.1313,60.9771 19.4873,60.6521 C20.6773,60.3681 20.8963,59.5991 20.7373,58.9371 C20.5243,58.0451 19.7343,57.8141 19.1063,57.9641 C18.4123,58.1301 18.0933,58.6961 18.0573,59.3511 C18.0463,59.5991 18.0533,59.7721 17.8053,59.8311 C17.3423,59.9421 16.8993,59.2611 16.7463,58.9131 L16.2333,59.1061 Z M13.5733,69.5271 L17.1443,75.5331 L20.0933,74.3731 L19.5373,73.4381 C20.0453,73.3931 20.7453,73.2741 21.5343,72.8051 L23.6823,71.5281 C24.5883,70.9891 24.8163,70.1421 24.2863,69.2501 L22.4623,66.1811 C22.3493,65.9911 22.3943,65.7671 22.6273,65.6281 L22.9493,65.4371 L22.7843,65.1591 C22.5423,65.1851 21.4253,65.3351 20.3143,65.9951 C19.5393,66.4551 19.2953,66.9761 19.7043,67.6631 L21.3373,70.4101 C21.8933,71.3451 21.7863,71.6661 20.8803,72.2041 C20.2673,72.5691 19.9813,72.6201 19.0943,72.6931 L16.5233,68.3671 L13.5733,69.5271 Z M27.9113,86.2381 L34.0263,89.6141 L35.9833,87.1251 L35.0323,86.5991 C35.4473,86.3041 35.9903,85.8461 36.4343,85.0421 L37.6423,82.8541 C38.1513,81.9321 37.9213,81.0871 37.0133,80.5861 L33.8873,78.8591 C33.6933,78.7521 33.6183,78.5361 33.7503,78.2981 L33.9313,77.9711 L33.6503,77.8161 C33.4543,77.9601 32.5663,78.6541 31.9413,79.7841 C31.5063,80.5721 31.5593,81.1451 32.2573,81.5301 L35.0563,83.0761 C36.0083,83.6021 36.0793,83.9321 35.5693,84.8551 C35.2233,85.4811 35.0023,85.6701 34.2743,86.1801 L29.8693,83.7481 L27.9113,86.2381 Z M43.1403,92.6351 L50.0793,93.4541 L50.9523,90.4071 L49.8713,90.2801 C50.1453,89.8501 50.4753,89.2211 50.5833,88.3101 L50.8763,85.8281 C50.9993,84.7811 50.4653,84.0851 49.4353,83.9631 L45.8903,83.5451 C45.6713,83.5191 45.5203,83.3471 45.5523,83.0771 L45.5953,82.7061 L45.2753,82.6681 C45.1473,82.8751 44.5873,83.8531 44.4363,85.1361 C44.3303,86.0311 44.5953,86.5421 45.3883,86.6351 L48.5623,87.0101 C49.6433,87.1371 49.8333,87.4171 49.7093,88.4631 C49.6253,89.1721 49.4923,89.4311 49.0103,90.1781 L44.0133,89.5891 L43.1403,92.6351 Z M64.1043,82.8171 C63.5723,82.2111 63.0053,81.9701 62.1733,82.2141 L58.7153,83.2291 C58.5033,83.2921 58.2973,83.1931 58.2203,82.9321 L58.1153,82.5731 L57.8053,82.6641 C57.7583,82.9261 57.6613,84.1061 57.9823,85.1991 C58.2553,86.1281 58.6833,86.4991 59.4663,86.2691 L59.4993,86.2591 L59.5083,86.2921 C59.3473,86.8891 58.9603,87.9241 59.4103,89.4571 C59.9893,91.4311 61.5373,92.3581 63.6743,91.7311 C65.7293,91.1271 66.6363,89.2671 65.7353,86.2001 C65.0793,83.9651 64.2383,82.9721 64.1043,82.8171 L64.1043,82.8171 Z M62.8993,88.9111 C61.2523,89.3951 60.3863,89.1001 60.0363,87.9091 C59.8013,87.1101 60.0103,86.5521 60.1183,86.0781 L63.1853,85.1771 C64.1313,84.8991 64.5153,85.3011 64.8163,86.3281 C65.2043,87.6491 64.6123,88.4081 62.8993,88.9111 L62.8993,88.9111 Z" id="Fill-5" fill="#00AE7C"></path>
        </g>
    </g>
</svg>