<?xml version="1.0" encoding="UTF-8"?>
<svg width="106px" height="106px" viewBox="0 0 106 106" version="1.1" xmlns="http://www.w3.org/2000/svg" xmlns:xlink="http://www.w3.org/1999/xlink">
    <!-- Generator: Sketch 47 (45396) - http://www.bohemiancoding.com/sketch -->
    <title>cta-round1</title>
    <desc>Created with Sketch.</desc>
    <defs></defs>
    <g id="Page-1" stroke="none" stroke-width="1" fill="none" fill-rule="evenodd">
        <g id="cta-round1" transform="translate(1.000000, 1.000000)">
            <path d="M51.5157,103.031 C79.9667,103.031 103.0317,79.967 103.0317,51.515 C103.0317,23.064 79.9667,0 51.5157,0 C23.0647,0 -0.0003,23.064 -0.0003,51.515 C-0.0003,79.967 23.0647,103.031 51.5157,103.031 Z" id="Stroke-1" stroke="#FFFFFF" stroke-width="2" fill-opacity="0.7" fill="#00AE7C"></path>
            <path d="M31.6306,27.3849 L37.7036,23.5069 L33.5776,17.0459 C33.0106,16.1579 32.1576,15.9569 31.2846,16.5149 L27.2856,19.0679 C27.0986,19.1869 26.8736,19.1499 26.7266,18.9209 L26.5256,18.6059 L26.2556,18.7779 C26.2886,19.0189 26.4736,20.1309 27.1686,21.2189 C27.6536,21.9779 28.3246,22.1139 28.8536,21.7759 L29.1106,21.6119 L29.1296,21.6399 C28.9866,22.7409 29.0656,23.3359 29.6056,24.1819 L31.6306,27.3849 Z M31.1356,23.9919 C30.9206,24.1289 30.7926,24.1509 30.5736,23.8059 L30.3446,23.4479 C29.8226,22.6309 29.7156,22.2749 29.5986,21.2999 L32.3936,19.5149 C33.3106,18.9299 33.6346,19.0259 34.2016,19.9149 L35.1636,21.4199 L31.1356,23.9919 Z M43.1056,18.2939 C43.7716,17.7159 44.8986,16.6599 44.3496,14.3619 C44.2196,13.8169 43.8716,12.7989 43.6926,12.5629 C43.5636,12.3839 43.1556,11.9919 42.3786,12.1779 L40.7406,12.5689 C40.3766,12.6559 40.1766,12.4769 40.1056,12.1789 L40.0416,11.9149 L39.7296,11.9889 C39.6826,12.2279 39.5096,13.3349 39.7816,14.4749 C40.0466,15.5819 40.5596,15.8259 41.4836,15.6059 L42.7416,15.3049 C43.3536,15.1589 43.6076,15.3429 43.7256,15.8389 C43.8726,16.4509 43.5136,17.1479 42.7876,17.9159 L43.1056,18.2939 Z M56.4346,12.4609 C56.1376,11.7119 55.6846,11.2939 54.8186,11.2449 L51.2206,11.0389 C50.9996,11.0269 50.8386,10.8639 50.8546,10.5929 L50.8756,10.2189 L50.5536,10.2009 C50.4206,10.4319 49.9336,11.5099 49.8686,12.6479 C49.8136,13.6149 50.0916,14.1079 50.9066,14.1539 L50.9406,14.1559 L50.9386,14.1899 C50.5856,14.6979 49.8736,15.5429 49.7826,17.1379 C49.6646,19.1919 50.8116,20.5849 53.0346,20.7119 C55.1726,20.8349 56.6516,19.3869 56.8346,16.1959 C56.9676,13.8709 56.5086,12.6519 56.4346,12.4609 L56.4346,12.4609 Z M53.2526,17.7959 C51.5376,17.6979 50.8216,17.1289 50.8926,15.8899 C50.9396,15.0589 51.3236,14.6039 51.5856,14.1929 L54.7756,14.3749 C55.7606,14.4319 55.9866,14.9379 55.9256,16.0079 C55.8476,17.3819 55.0346,17.8979 53.2526,17.7959 L53.2526,17.7959 Z M63.2746,19.3299 C64.1496,19.2219 65.6756,18.9769 66.5056,16.7649 C66.7016,16.2389 66.9826,15.2009 66.9666,14.9039 C66.9586,14.6829 66.8386,14.1299 66.0906,13.8499 L64.5146,13.2589 C64.1646,13.1279 64.0986,12.8669 64.2066,12.5809 L64.3016,12.3259 L63.9996,12.2129 C63.8266,12.3839 63.0646,13.2059 62.6526,14.3039 C62.2526,15.3699 62.5416,15.8599 63.4326,16.1939 L64.6426,16.6469 C65.2316,16.8679 65.3396,17.1629 65.1606,17.6399 C64.9396,18.2289 64.2526,18.6069 63.2226,18.8379 L63.2746,19.3299 Z M78.0726,20.7369 C77.0396,19.9329 75.6646,20.7589 74.2226,22.1139 L73.5826,22.7149 L73.9316,22.9859 L74.1926,22.8439 C74.8386,22.4849 75.6136,22.6789 76.0296,23.0029 C76.8346,23.6289 76.8506,24.2449 76.0676,25.2509 C75.6296,25.8149 75.2326,26.1309 74.8166,26.3889 L70.8586,23.3089 C71.2076,22.6109 71.4146,22.2339 71.6756,21.8989 C72.0206,21.4559 72.4796,21.0589 72.7246,20.8839 L72.9746,21.1429 C73.1956,21.3579 73.1566,21.4349 73.0926,21.6009 L73.2136,21.6949 C73.9216,21.2549 74.3856,20.7969 74.7196,20.3679 C75.1686,19.7909 75.4336,19.2009 74.9196,18.6709 L74.3486,18.0759 C74.0286,17.7409 74.0896,17.5509 74.2776,17.3099 L74.4126,17.1349 L74.1576,16.9369 C73.6946,17.2009 72.8306,17.5629 72.1316,18.4619 C71.7346,18.9719 71.4486,19.5889 72.1836,20.3329 L72.2236,20.3649 C71.8416,20.6059 71.1426,21.1169 70.5686,21.8549 C70.1086,22.4459 69.2856,24.0019 68.6096,25.4789 L72.6746,28.6429 C75.0216,27.4529 76.1926,26.4469 77.2056,25.1459 C78.5726,23.3879 79.2396,21.6449 78.0726,20.7369 L78.0726,20.7369 Z M79.4686,37.9989 C79.8316,38.6319 80.4536,38.5889 81.3126,38.0379 L86.4696,34.7289 C87.3726,34.1529 87.8066,33.6109 87.1646,32.4909 L85.3206,29.2739 C85.1346,28.9499 85.2496,28.7069 85.5156,28.5549 L85.7516,28.4189 L85.5916,28.1409 C85.3496,28.1619 84.2236,28.3179 83.2366,28.8839 C82.2346,29.4579 82.1446,30.0189 82.6166,30.8439 L84.4436,34.0309 C84.7566,34.5769 84.5716,34.7999 83.7306,35.2819 L80.5156,37.1249 C79.7636,37.5569 79.6056,37.5879 79.4216,37.5759 L79.3036,37.6439 C79.3486,37.7549 79.4016,37.8819 79.4686,37.9989 L79.4686,37.9989 Z M81.6866,43.1319 L82.3386,47.8119 C82.4186,48.3849 82.7286,48.8909 83.3816,49.2639 C84.0716,49.6639 85.1036,49.9319 87.1416,49.6479 C89.4826,49.3219 90.5716,48.6389 90.7446,48.5299 C91.4216,48.0929 91.7426,47.5669 91.6226,46.7079 L91.1866,43.5749 C91.1566,43.3559 91.2846,43.1669 91.5536,43.1289 L91.9246,43.0779 L91.8796,42.7599 C91.6276,42.6749 90.4746,42.4059 89.3476,42.5629 C88.3886,42.6969 87.9596,43.0649 88.0716,43.8709 L88.5336,47.1899 C88.6776,48.2169 88.2286,48.5719 87.0826,48.7309 C86.1056,48.8669 85.6196,48.7119 85.5286,48.0549 L84.8816,43.4079 L81.6866,43.1319 Z" id="Fill-3" fill="#FFFFFF"></path>
            <path d="M16.4526,60.025 C16.9796,61.311 18.3866,61.859 19.7356,61.509 C20.9206,61.202 21.1236,60.429 20.9526,59.77 C20.7226,58.882 19.9286,58.666 19.3036,58.829 C18.6126,59.008 18.3046,59.58 18.2806,60.235 C18.2746,60.483 18.2846,60.656 18.0376,60.72 C17.5776,60.84 17.1216,60.167 16.9616,59.823 L16.4526,60.025 Z M21.2046,73.777 C21.6126,73.564 22.0986,73.381 22.9156,73.373 L23.1136,73.37 L23.2496,73.686 C23.3686,73.973 23.3196,74.023 23.2016,74.156 L23.2826,74.286 C24.0996,74.118 24.6926,73.849 25.1406,73.571 C25.8626,73.122 26.1926,72.656 25.9146,72.048 L25.5616,71.287 C25.3406,70.803 25.5286,70.687 25.7886,70.525 L25.9756,70.408 L25.8056,70.134 C25.3316,70.209 24.3296,70.271 23.3906,70.855 C22.7846,71.232 22.3726,71.729 22.7786,72.638 L22.8746,72.858 L22.3576,72.799 C22.0946,72.763 21.7566,72.733 21.4656,72.814 L23.0146,67.225 C23.1416,66.786 23.1676,66.57 23.3836,66.435 L23.4706,66.381 L23.2996,66.107 C22.6036,66.179 21.8436,66.212 21.2136,66.584 C20.9976,66.718 20.5696,66.964 20.3886,67.638 L20.0796,68.751 L19.0556,68.747 C17.4756,68.749 17.0676,68.963 16.3786,69.592 L15.7666,70.153 C15.1686,70.705 14.9616,70.854 14.7546,70.522 L14.5926,70.262 L14.1166,70.559 L15.6166,72.969 C16.2166,72.936 16.7936,72.577 17.2656,71.662 L18.0946,70.066 C18.2756,69.713 18.6486,69.541 19.2956,69.519 L19.8676,69.504 L18.0896,75.915 C17.9716,76.369 17.8666,76.554 17.6886,76.685 L17.8586,76.96 C18.5576,76.925 19.1816,76.898 19.7296,76.556 C20.2926,76.206 20.6926,75.657 20.8736,74.984 L21.2046,73.777 Z M30.3916,87.8 L36.7266,90.742 L38.5056,88.121 L37.5196,87.664 C37.9136,87.34 38.4236,86.845 38.8106,86.012 L39.8626,83.746 C40.3066,82.791 40.0176,81.963 39.0766,81.527 L35.8376,80.022 C35.6366,79.929 35.5476,79.719 35.6616,79.472 L35.8196,79.133 L35.5286,78.998 C35.3426,79.155 34.5056,79.909 33.9616,81.08 C33.5826,81.897 33.6746,82.465 34.3976,82.8 L37.2976,84.147 C38.2846,84.605 38.3776,84.93 37.9336,85.886 C37.6326,86.535 37.4256,86.738 36.7336,87.299 L32.1706,85.18 L30.3916,87.8 Z M46.0286,93.119 L53.0076,93.452 L53.6666,90.352 L52.5796,90.3 C52.8226,89.852 53.1086,89.202 53.1526,88.285 L53.2716,85.789 C53.3216,84.736 52.7406,84.079 51.7046,84.029 L48.1386,83.859 C47.9176,83.849 47.7556,83.688 47.7676,83.416 L47.7856,83.043 L47.4636,83.027 C47.3506,83.243 46.8596,84.258 46.7986,85.548 C46.7556,86.448 47.0556,86.939 47.8536,86.977 L51.0456,87.129 C52.1326,87.181 52.3416,87.447 52.2916,88.499 C52.2576,89.213 52.1426,89.479 51.7136,90.259 L46.6876,90.019 L46.0286,93.119 Z M66.2576,81.862 C65.6846,81.295 65.1016,81.094 64.2896,81.396 L60.9106,82.65 C60.7036,82.727 60.4906,82.643 60.3956,82.388 L60.2656,82.037 L59.9626,82.149 C59.9346,82.414 59.9206,83.598 60.3166,84.666 C60.6536,85.574 61.1066,85.914 61.8716,85.63 L61.9036,85.618 L61.9146,85.65 C61.7956,86.256 61.4816,87.316 62.0376,88.814 C62.7536,90.742 64.3626,91.56 66.4496,90.785 C68.4586,90.039 69.2326,88.12 68.1206,85.124 C67.3106,82.94 66.4026,82.008 66.2576,81.862 L66.2576,81.862 Z M65.4806,88.026 C63.8706,88.623 62.9856,88.389 62.5546,87.226 C62.2646,86.445 62.4336,85.875 62.5086,85.393 L65.5046,84.281 C66.4296,83.938 66.8396,84.312 67.2126,85.316 C67.6916,86.607 67.1536,87.405 65.4806,88.026 L65.4806,88.026 Z" id="Fill-5" fill="#FFFFFF"></path>
        </g>
    </g>
</svg>