<?xml version="1.0" encoding="UTF-8"?>
<svg width="131px" height="20px" viewBox="0 0 131 20" version="1.1" xmlns="http://www.w3.org/2000/svg" xmlns:xlink="http://www.w3.org/1999/xlink">
    <!-- Generator: Sketch 46.2 (44496) - http://www.bohemiancoding.com/sketch -->
    <title>coming soon copy</title>
    <desc>Created with Sketch.</desc>
    <defs></defs>
    <g id="Page-1" stroke="none" stroke-width="1" fill="none" fill-rule="evenodd">
        <g id="Desktop-Landscape" transform="translate(-744.000000, -117.000000)" fill="#000000">
            <path d="M750.901999,129.102 C750.397996,130.098005 749.813002,130.859997 749.146999,131.388 C748.480995,131.916003 747.770003,132.18 747.013999,132.18 C746.233995,132.18 745.610001,131.913003 745.141999,131.379 C744.673996,130.844997 744.439999,130.134004 744.439999,129.246 C744.439999,128.717997 744.517998,128.178003 744.673999,127.626 C744.83,127.073997 745.039997,126.540003 745.303999,126.024 C745.568,125.507997 745.879997,125.022002 746.239999,124.566 C746.600001,124.109998 746.983997,123.714002 747.391999,123.378 C747.800001,123.041998 748.222997,122.775001 748.660999,122.577 C749.099001,122.378999 749.527997,122.28 749.947999,122.28 C750.524002,122.28 750.997997,122.435998 751.369999,122.748 C751.742001,123.060002 751.927999,123.449998 751.927999,123.918 C751.927999,124.218001 751.841,124.460999 751.666999,124.647 C751.492998,124.833001 751.268,124.926 750.991999,124.926 C750.715997,124.926 750.491,124.839001 750.316999,124.665 C750.142998,124.490999 750.055999,124.278001 750.055999,124.026 C750.055999,123.869999 750.079999,123.744 750.127999,123.648 C750.175999,123.552 750.199999,123.462 750.199999,123.378 C750.199999,123.209999 750.056,123.126 749.767999,123.126 C749.371997,123.126 748.970001,123.311998 748.561999,123.684 C748.153997,124.056002 747.785,124.535997 747.454999,125.124 C747.124997,125.712003 746.855,126.368996 746.644999,127.095 C746.434998,127.821004 746.329999,128.543996 746.329999,129.264 C746.329999,129.840003 746.440998,130.292998 746.662999,130.623 C746.885,130.953002 747.193997,131.118 747.589999,131.118 C747.806,131.118 748.030998,131.058001 748.264999,130.938 C748.499,130.817999 748.735998,130.653001 748.975999,130.443 C749.216,130.232999 749.446998,129.984001 749.668999,129.696 C749.891,129.407999 750.091998,129.090002 750.271999,128.742 L750.901999,129.102 Z M758.371999,132.18 C757.963997,132.18 757.583001,132.099001 757.228999,131.937 C756.874997,131.774999 756.566,131.538002 756.301999,131.226 C756.037998,130.913998 755.828,130.533002 755.671999,130.083 C755.515998,129.632998 755.437999,129.126003 755.437999,128.562 C755.437999,127.781996 755.584997,127.014004 755.878999,126.258 C756.173,125.501996 756.559996,124.830003 757.039999,124.242 C757.520001,123.653997 758.068996,123.180002 758.686999,122.82 C759.305002,122.459998 759.943996,122.28 760.603999,122.28 C761.036001,122.28 761.434997,122.360999 761.800999,122.523 C762.167001,122.685001 762.478998,122.918998 762.736999,123.225 C762.995,123.531002 763.198998,123.896998 763.348999,124.323 C763.499,124.749002 763.573999,125.219997 763.573999,125.736 C763.573999,126.492004 763.424,127.253996 763.123999,128.022 C762.823997,128.790004 762.431001,129.479997 761.944999,130.092 C761.458996,130.704003 760.904002,131.204998 760.279999,131.595 C759.655996,131.985002 759.020002,132.18 758.371999,132.18 Z M758.479999,131.28 C758.888001,131.28 759.292997,131.070002 759.694999,130.65 C760.097001,130.229998 760.456997,129.699003 760.774999,129.057 C761.093,128.414997 761.350998,127.716004 761.548999,126.96 C761.747,126.203996 761.845999,125.484003 761.845999,124.8 C761.845999,124.163997 761.735,123.726001 761.512999,123.486 C761.290998,123.245999 760.988001,123.126 760.603999,123.126 C760.339998,123.126 760.073,123.218999 759.802999,123.405 C759.532998,123.591001 759.278,123.845998 759.037999,124.17 C758.797998,124.494002 758.573,124.865998 758.362999,125.286 C758.152998,125.706002 757.97,126.149998 757.813999,126.618 C757.657998,127.086002 757.537999,127.562998 757.453999,128.049 C757.369998,128.535002 757.327999,128.999998 757.327999,129.444 C757.327999,130.116003 757.435998,130.589999 757.651999,130.866 C757.868,131.142001 758.143997,131.28 758.479999,131.28 Z M779.233999,126.006 C779.39,125.561998 779.512999,125.208001 779.602999,124.944 C779.692999,124.679999 779.761999,124.473001 779.809999,124.323 C779.857999,124.172999 779.887999,124.056 779.899999,123.972 C779.911999,123.888 779.917999,123.81 779.917999,123.738 C779.917999,123.389998 779.798,123.216 779.557999,123.216 C779.233997,123.216 778.850001,123.434998 778.405999,123.873 C777.961997,124.311002 777.482002,124.943996 776.965999,125.772 C776.785998,126.060001 776.618,126.350999 776.461999,126.645 C776.305998,126.939001 776.138,127.304998 775.957999,127.743 C775.777998,128.181002 775.568,128.735997 775.327999,129.408 C775.087998,130.080003 774.782001,130.943995 774.409999,132 L772.717999,132 L773.905999,128.382 C774.158,127.613996 774.367998,126.969003 774.535999,126.447 C774.704,125.924997 774.835998,125.490002 774.931999,125.142 C775.027999,124.793998 775.096999,124.518001 775.138999,124.314 C775.180999,124.109999 775.201999,123.942001 775.201999,123.81 C775.201999,123.413998 775.052,123.216 774.751999,123.216 C774.511998,123.216 774.224001,123.353999 773.887999,123.63 C773.551997,123.906001 773.210001,124.265998 772.861999,124.71 C772.513997,125.154002 772.181001,125.654997 771.862999,126.213 C771.544997,126.771003 771.278,127.337997 771.061999,127.914 L769.549999,132 L767.965999,132 L769.297999,127.878 C769.526,127.181997 769.711998,126.597002 769.855999,126.123 C770,125.648998 770.113999,125.259002 770.197999,124.953 C770.281999,124.646998 770.341999,124.404001 770.377999,124.224 C770.413999,124.043999 770.431999,123.894001 770.431999,123.774 C770.431999,123.437998 770.33,123.27 770.125999,123.27 C769.993998,123.27 769.841,123.347999 769.666999,123.504 C769.492998,123.660001 769.316,123.872999 769.135999,124.143 C768.955998,124.413001 768.779,124.721998 768.604999,125.07 C768.430998,125.418002 768.278,125.783998 768.145999,126.168 L767.605999,125.898 C768.026001,124.661994 768.496996,123.750003 769.018999,123.162 C769.541002,122.573997 770.137996,122.28 770.809999,122.28 C771.194001,122.28 771.466998,122.387999 771.628999,122.604 C771.791,122.820001 771.871999,123.179997 771.871999,123.684 C771.871999,124.260003 771.77,124.811997 771.565999,125.34 L771.619999,125.394 C772.736005,123.31799 773.917993,122.28 775.165999,122.28 C775.634001,122.28 775.999998,122.420999 776.263999,122.703 C776.528,122.985001 776.659999,123.377997 776.659999,123.882 C776.659999,124.050001 776.638999,124.241999 776.596999,124.458 C776.554999,124.674001 776.474,124.991998 776.353999,125.412 L776.389999,125.466 C776.726001,124.889997 777.046997,124.401002 777.352999,123.999 C777.659001,123.596998 777.955998,123.270001 778.243999,123.018 C778.532,122.765999 778.822998,122.580001 779.116999,122.46 C779.411,122.339999 779.713997,122.28 780.025999,122.28 C780.494001,122.28 780.844998,122.405999 781.078999,122.658 C781.313,122.910001 781.429999,123.305997 781.429999,123.846 C781.429999,124.014001 781.411999,124.196999 781.375999,124.395 C781.339999,124.593001 781.285999,124.826999 781.213999,125.097 C781.141999,125.367001 781.049,125.678998 780.934999,126.033 C780.820998,126.387002 780.686,126.803998 780.529999,127.284 C780.325998,127.896003 780.164,128.384998 780.043999,128.751 C779.923998,129.117002 779.833999,129.407999 779.773999,129.624 C779.713999,129.840001 779.674999,130.001999 779.656999,130.11 C779.638999,130.218001 779.629999,130.325999 779.629999,130.434 C779.629999,130.662001 779.689998,130.776 779.809999,130.776 C779.99,130.776 780.259997,130.605002 780.619999,130.263 C780.980001,129.920998 781.447996,129.390004 782.023999,128.67 L782.491999,128.922 C782.287998,129.318002 782.027001,129.710998 781.708999,130.101 C781.390997,130.491002 781.058001,130.838998 780.709999,131.145 C780.361997,131.451002 780.017001,131.699999 779.674999,131.892 C779.332997,132.084001 779.036,132.18 778.783999,132.18 C778.483997,132.18 778.247,132.051001 778.072999,131.793 C777.898998,131.534999 777.811999,131.190002 777.811999,130.758 C777.811999,130.613999 777.826999,130.452001 777.856999,130.272 C777.886999,130.091999 777.952998,129.834002 778.054999,129.498 C778.156999,129.161998 778.300998,128.718003 778.486999,128.166 C778.673,127.613997 778.921997,126.894004 779.233999,126.006 Z M788.197999,126.06 C788.366,125.591998 788.485999,125.214001 788.557999,124.926 C788.629999,124.637999 788.665999,124.410001 788.665999,124.242 C788.665999,124.073999 788.638999,123.963 788.584999,123.909 C788.530999,123.855 788.473999,123.828 788.413999,123.828 C788.281998,123.828 788.138,123.890999 787.981999,124.017 C787.825998,124.143001 787.67,124.289999 787.513999,124.458 C787.357998,124.626001 787.22,124.793999 787.099999,124.962 C786.979998,125.130001 786.895999,125.262 786.847999,125.358 L786.325999,125.034 C786.47,124.769999 786.670998,124.476002 786.928999,124.152 C787.187,123.827998 787.477997,123.528001 787.801999,123.252 C788.126001,122.975999 788.461997,122.745001 788.809999,122.559 C789.158001,122.372999 789.487998,122.28 789.799999,122.28 C790.100001,122.28 790.324998,122.366999 790.474999,122.541 C790.625,122.715001 790.699999,123.029998 790.699999,123.486 C790.699999,123.834002 790.595,124.301997 790.384999,124.89 C790.174998,125.478003 789.902001,126.233995 789.565999,127.158 L788.899999,128.976 C788.875999,129.036 788.842999,129.128999 788.800999,129.255 C788.758999,129.381001 788.716999,129.512999 788.674999,129.651 C788.632999,129.789001 788.596999,129.923999 788.566999,130.056 C788.536999,130.188001 788.521999,130.296 788.521999,130.38 C788.521999,130.488001 788.551999,130.584 788.611999,130.668 C788.671999,130.752 788.767998,130.794 788.899999,130.794 C789.08,130.794 789.265998,130.719001 789.457999,130.569 C789.65,130.418999 789.835998,130.242001 790.015999,130.038 C790.196,129.833999 790.357998,129.627001 790.501999,129.417 C790.646,129.206999 790.753999,129.042001 790.825999,128.922 L791.365999,129.228 C791.221998,129.516001 791.027,129.833998 790.780999,130.182 C790.534998,130.530002 790.256001,130.850999 789.943999,131.145 C789.631998,131.439001 789.290001,131.684999 788.917999,131.883 C788.545997,132.081001 788.162001,132.18 787.765999,132.18 C787.417997,132.18 787.157,132.090001 786.982999,131.91 C786.808998,131.729999 786.721999,131.430002 786.721999,131.01 C786.721999,130.661998 786.778999,130.287002 786.892999,129.885 C787.007,129.482998 787.171998,128.976003 787.387999,128.364 L788.197999,126.06 Z M790.843999,119.328 C790.543998,119.328 790.283,119.226001 790.060999,119.022 C789.838998,118.817999 789.727999,118.554002 789.727999,118.23 C789.727999,117.905998 789.835998,117.630001 790.051999,117.402 C790.268,117.173999 790.531998,117.06 790.843999,117.06 C791.180001,117.06 791.455998,117.173999 791.671999,117.402 C791.888,117.630001 791.995999,117.899998 791.995999,118.212 C791.995999,118.524002 791.882,118.787999 791.653999,119.004 C791.425998,119.220001 791.156001,119.328 790.843999,119.328 Z M802.561999,123.216 C802.273998,123.216 801.947001,123.362999 801.580999,123.657 C801.214997,123.951001 800.843001,124.340998 800.464999,124.827 C800.086997,125.313002 799.724001,125.867997 799.375999,126.492 C799.027997,127.116003 798.734,127.751997 798.493999,128.4 L797.161999,132 L795.577999,132 L796.909999,127.878 C797.126,127.217997 797.305998,126.654002 797.449999,126.186 C797.594,125.717998 797.710999,125.325002 797.800999,125.007 C797.891,124.688998 797.953999,124.431001 797.989999,124.233 C798.025999,124.034999 798.043999,123.876001 798.043999,123.756 C798.043999,123.431998 797.942,123.27 797.737999,123.27 C797.605999,123.27 797.45,123.353999 797.269999,123.522 C797.089998,123.690001 796.907,123.908999 796.720999,124.179 C796.534998,124.449001 796.358,124.757998 796.189999,125.106 C796.021998,125.454002 795.878,125.807998 795.757999,126.168 L795.217999,125.898 C795.638001,124.661994 796.108997,123.750003 796.630999,123.162 C797.153002,122.573997 797.749996,122.28 798.421999,122.28 C798.806001,122.28 799.078998,122.387999 799.240999,122.604 C799.403,122.820001 799.483999,123.185997 799.483999,123.702 C799.483999,124.314003 799.382,124.859998 799.177999,125.34 L799.231999,125.394 C799.844002,124.313995 800.464996,123.525002 801.094999,123.027 C801.725002,122.528998 802.411995,122.28 803.155999,122.28 C803.684002,122.28 804.085998,122.405999 804.361999,122.658 C804.638001,122.910001 804.775999,123.269998 804.775999,123.738 C804.775999,123.894001 804.760999,124.067999 804.730999,124.26 C804.700999,124.452001 804.65,124.682999 804.577999,124.953 C804.505999,125.223001 804.407,125.543998 804.280999,125.916 C804.154999,126.288002 804.002,126.743997 803.821999,127.284 C803.545998,128.100004 803.318,128.783997 803.137999,129.336 C802.957998,129.888003 802.867999,130.277999 802.867999,130.506 C802.867999,130.686001 802.927999,130.776 803.047999,130.776 C803.216,130.776 803.461998,130.638001 803.785999,130.362 C804.110001,130.085999 804.547996,129.642003 805.099999,129.03 L805.567999,129.282 C805.375998,129.642002 805.127001,129.992998 804.820999,130.335 C804.514998,130.677002 804.197001,130.985999 803.866999,131.262 C803.536998,131.538001 803.210001,131.759999 802.885999,131.928 C802.561998,132.096001 802.28,132.18 802.039999,132.18 C801.739998,132.18 801.503,132.048001 801.328999,131.784 C801.154998,131.519999 801.067999,131.172002 801.067999,130.74 C801.067999,130.571999 801.082999,130.401001 801.112999,130.227 C801.142999,130.052999 801.205999,129.804002 801.301999,129.48 C801.398,129.155998 801.538998,128.721003 801.724999,128.175 C801.911,127.628997 802.165998,126.906004 802.489999,126.006 C802.598,125.693998 802.687999,125.430001 802.759999,125.214 C802.832,124.997999 802.888999,124.809001 802.930999,124.647 C802.972999,124.484999 803.002999,124.344001 803.020999,124.224 C803.038999,124.103999 803.047999,123.990001 803.047999,123.882 C803.047999,123.437998 802.886001,123.216 802.561999,123.216 Z M816.907999,133.314 C816.907999,133.830003 816.797,134.294998 816.574999,134.709 C816.352998,135.123002 816.035001,135.476999 815.620999,135.771 C815.206997,136.065001 814.706002,136.289999 814.117999,136.446 C813.529996,136.602001 812.870003,136.68 812.137999,136.68 C811.477996,136.68 810.878002,136.620001 810.337999,136.5 C809.797997,136.379999 809.333001,136.206001 808.942999,135.978 C808.552997,135.749999 808.253,135.483002 808.042999,135.177 C807.832998,134.870998 807.727999,134.526002 807.727999,134.142 C807.727999,133.649998 807.886998,133.242002 808.204999,132.918 C808.523001,132.593998 808.927997,132.432 809.419999,132.432 C809.564,132.432 809.701999,132.45 809.833999,132.486 C809.966,132.522 810.133998,132.588 810.337999,132.684 C809.665996,132.960001 809.329999,133.481996 809.329999,134.25 C809.329999,134.754003 809.584997,135.149999 810.094999,135.438 C810.605002,135.726001 811.303995,135.87 812.191999,135.87 C812.672002,135.87 813.115997,135.816001 813.523999,135.708 C813.932001,135.599999 814.282998,135.462001 814.576999,135.294 C814.871001,135.125999 815.098999,134.937001 815.260999,134.727 C815.423,134.516999 815.503999,134.310001 815.503999,134.106 C815.503999,133.769998 815.303001,133.467001 814.900999,133.197 C814.498997,132.926999 813.932003,132.726001 813.199999,132.594 C811.891993,132.365999 810.932002,132.102002 810.319999,131.802 C809.707996,131.501999 809.401999,131.082003 809.401999,130.542 C809.401999,130.193998 809.554998,129.900001 809.860999,129.66 C810.167001,129.419999 810.715995,129.180001 811.507999,128.94 L811.543999,128.868 C810.631995,128.219997 810.175999,127.386005 810.175999,126.366 C810.175999,125.813997 810.289998,125.289002 810.517999,124.791 C810.746,124.292998 811.054997,123.855002 811.444999,123.477 C811.835001,123.098998 812.290997,122.802001 812.812999,122.586 C813.335002,122.369999 813.883996,122.262 814.459999,122.262 C815.348004,122.262 816.091996,122.585997 816.691999,123.234 C817.256002,122.597997 817.801997,122.28 818.329999,122.28 C818.714001,122.28 819.049998,122.396999 819.337999,122.631 C819.626001,122.865001 819.769999,123.137998 819.769999,123.45 C819.769999,123.690001 819.689,123.890999 819.526999,124.053 C819.364999,124.215001 819.164001,124.296 818.923999,124.296 C818.743998,124.296 818.603,124.257 818.500999,124.179 C818.398999,124.101 818.312,124.014 818.239999,123.918 C818.167999,123.822 818.087,123.735 817.996999,123.657 C817.906999,123.579 817.784,123.54 817.627999,123.54 C817.543999,123.54 817.466,123.555 817.393999,123.585 C817.321999,123.615 817.19,123.695999 816.997999,123.828 C817.058,123.996001 817.099999,124.154999 817.123999,124.305 C817.147999,124.455001 817.159999,124.643999 817.159999,124.872 C817.159999,126.192007 816.794003,127.244996 816.061999,128.031 C815.329996,128.817004 814.322006,129.258 813.037999,129.354 C812.461996,129.402 812.051001,129.474 811.804999,129.57 C811.558998,129.666 811.435999,129.809999 811.435999,130.002 C811.435999,130.254001 811.570998,130.442999 811.840999,130.569 C812.111001,130.695001 812.449997,130.8 812.857999,130.884 C813.266001,130.968 813.703997,131.052 814.171999,131.136 C814.640002,131.22 815.077997,131.342999 815.485999,131.505 C815.894001,131.667001 816.232998,131.888999 816.502999,132.171 C816.773001,132.453001 816.907999,132.833998 816.907999,133.314 Z M813.127999,128.562 C813.416001,128.562 813.697998,128.448001 813.973999,128.22 C814.250001,127.991999 814.498998,127.689002 814.720999,127.311 C814.943,126.932998 815.119999,126.504002 815.251999,126.024 C815.384,125.543998 815.449999,125.052003 815.449999,124.548 C815.449999,124.067998 815.342,123.687001 815.125999,123.405 C814.909998,123.122999 814.628001,122.982 814.279999,122.982 C814.003998,122.982 813.722001,123.104999 813.433999,123.351 C813.145998,123.597001 812.885,123.911998 812.650999,124.296 C812.416998,124.680002 812.228,125.114998 812.083999,125.601 C811.939999,126.087002 811.867999,126.563998 811.867999,127.032 C811.867999,127.488002 811.981998,127.856999 812.209999,128.139 C812.438,128.421001 812.743997,128.562 813.127999,128.562 Z M830.894,125.034 C830.894,124.637998 830.968999,124.272002 831.119,123.936 C831.269,123.599998 831.475998,123.309001 831.74,123.063 C832.004001,122.816999 832.318998,122.625001 832.685,122.487 C833.051001,122.348999 833.449997,122.28 833.882,122.28 C834.458002,122.28 834.937998,122.423999 835.322,122.712 C835.706001,123.000001 835.898,123.371998 835.898,123.828 C835.898,124.080001 835.829,124.277999 835.691,124.422 C835.552999,124.566001 835.364001,124.638 835.124,124.638 C834.847998,124.638 834.65,124.557001 834.53,124.395 C834.409999,124.232999 834.308,124.053001 834.224,123.855 C834.139999,123.656999 834.05,123.474001 833.954,123.306 C833.857999,123.137999 833.696001,123.054 833.468,123.054 C833.203998,123.054 832.982,123.167999 832.802,123.396 C832.621999,123.624001 832.532,123.905998 832.532,124.242 C832.532,124.638002 832.648998,125.006998 832.883,125.349 C833.117001,125.691002 833.377998,126.047998 833.666,126.42 C833.954001,126.792002 834.214998,127.199998 834.449,127.644 C834.683001,128.088002 834.8,128.609997 834.8,129.21 C834.8,129.618002 834.713,130.001998 834.539,130.362 C834.364999,130.722002 834.131001,131.036999 833.837,131.307 C833.542998,131.577001 833.204001,131.789999 832.82,131.946 C832.435998,132.102001 832.040002,132.18 831.632,132.18 C830.911996,132.18 830.339002,132.024002 829.913,131.712 C829.486997,131.399998 829.274,130.992003 829.274,130.488 C829.274,130.139998 829.354999,129.867001 829.517,129.669 C829.679,129.470999 829.897998,129.372 830.174,129.372 C830.690002,129.372 830.983999,129.725996 831.056,130.434 C831.092,130.818002 831.154999,131.072999 831.245,131.199 C831.335,131.325001 831.517998,131.388 831.794,131.388 C832.226002,131.388 832.567998,131.259001 832.82,131.001 C833.072001,130.742999 833.198,130.386002 833.198,129.93 C833.198,129.449998 833.078001,129.024002 832.838,128.652 C832.597998,128.279998 832.334001,127.917002 832.046,127.563 C831.757998,127.208998 831.494001,126.834002 831.254,126.438 C831.013998,126.041998 830.894,125.574003 830.894,125.034 Z M842.612,132.18 C842.203998,132.18 841.823001,132.099001 841.469,131.937 C841.114998,131.774999 840.806001,131.538002 840.542,131.226 C840.277998,130.913998 840.068,130.533002 839.912,130.083 C839.755999,129.632998 839.678,129.126003 839.678,128.562 C839.678,127.781996 839.824998,127.014004 840.119,126.258 C840.413001,125.501996 840.799997,124.830003 841.28,124.242 C841.760002,123.653997 842.308997,123.180002 842.927,122.82 C843.545003,122.459998 844.183996,122.28 844.844,122.28 C845.276002,122.28 845.674998,122.360999 846.041,122.523 C846.407001,122.685001 846.718998,122.918998 846.977,123.225 C847.235001,123.531002 847.438999,123.896998 847.589,124.323 C847.739,124.749002 847.814,125.219997 847.814,125.736 C847.814,126.492004 847.664001,127.253996 847.364,128.022 C847.063998,128.790004 846.671002,129.479997 846.185,130.092 C845.698997,130.704003 845.144003,131.204998 844.52,131.595 C843.895997,131.985002 843.260003,132.18 842.612,132.18 Z M842.72,131.28 C843.128002,131.28 843.532998,131.070002 843.935,130.65 C844.337002,130.229998 844.696998,129.699003 845.015,129.057 C845.333001,128.414997 845.590999,127.716004 845.789,126.96 C845.987001,126.203996 846.086,125.484003 846.086,124.8 C846.086,124.163997 845.975001,123.726001 845.753,123.486 C845.530999,123.245999 845.228002,123.126 844.844,123.126 C844.579998,123.126 844.313001,123.218999 844.043,123.405 C843.772998,123.591001 843.518001,123.845998 843.278,124.17 C843.037998,124.494002 842.813001,124.865998 842.603,125.286 C842.392999,125.706002 842.21,126.149998 842.054,126.618 C841.897999,127.086002 841.778,127.562998 841.694,128.049 C841.609999,128.535002 841.568,128.999998 841.568,129.444 C841.568,130.116003 841.675999,130.589999 841.892,130.866 C842.108001,131.142001 842.383998,131.28 842.72,131.28 Z M854.906,132.18 C854.497998,132.18 854.117002,132.099001 853.763,131.937 C853.408998,131.774999 853.100001,131.538002 852.836,131.226 C852.571998,130.913998 852.362001,130.533002 852.206,130.083 C852.049999,129.632998 851.972,129.126003 851.972,128.562 C851.972,127.781996 852.118998,127.014004 852.413,126.258 C852.707001,125.501996 853.093997,124.830003 853.574,124.242 C854.054002,123.653997 854.602997,123.180002 855.221,122.82 C855.839003,122.459998 856.477996,122.28 857.138,122.28 C857.570002,122.28 857.968998,122.360999 858.335,122.523 C858.701002,122.685001 859.012998,122.918998 859.271,123.225 C859.529001,123.531002 859.732999,123.896998 859.883,124.323 C860.033001,124.749002 860.108,125.219997 860.108,125.736 C860.108,126.492004 859.958001,127.253996 859.658,128.022 C859.357998,128.790004 858.965002,129.479997 858.479,130.092 C857.992997,130.704003 857.438003,131.204998 856.814,131.595 C856.189997,131.985002 855.554003,132.18 854.906,132.18 Z M855.014,131.28 C855.422002,131.28 855.826998,131.070002 856.229,130.65 C856.631002,130.229998 856.990998,129.699003 857.309,129.057 C857.627001,128.414997 857.884999,127.716004 858.083,126.96 C858.281001,126.203996 858.38,125.484003 858.38,124.8 C858.38,124.163997 858.269001,123.726001 858.047,123.486 C857.824999,123.245999 857.522002,123.126 857.138,123.126 C856.873998,123.126 856.607001,123.218999 856.337,123.405 C856.066998,123.591001 855.812001,123.845998 855.572,124.17 C855.331999,124.494002 855.107001,124.865998 854.897,125.286 C854.686999,125.706002 854.504001,126.149998 854.348,126.618 C854.191999,127.086002 854.072,127.562998 853.988,128.049 C853.903999,128.535002 853.862,128.999998 853.862,129.444 C853.862,130.116003 853.969999,130.589999 854.186,130.866 C854.402001,131.142001 854.677998,131.28 855.014,131.28 Z M871.484,123.216 C871.195998,123.216 870.869002,123.362999 870.503,123.657 C870.136998,123.951001 869.765002,124.340998 869.387,124.827 C869.008998,125.313002 868.646002,125.867997 868.298,126.492 C867.949998,127.116003 867.656001,127.751997 867.416,128.4 L866.084,132 L864.5,132 L865.832,127.878 C866.048001,127.217997 866.227999,126.654002 866.372,126.186 C866.516001,125.717998 866.632999,125.325002 866.723,125.007 C866.813,124.688998 866.876,124.431001 866.912,124.233 C866.948,124.034999 866.966,123.876001 866.966,123.756 C866.966,123.431998 866.864001,123.27 866.66,123.27 C866.527999,123.27 866.372001,123.353999 866.192,123.522 C866.011999,123.690001 865.829001,123.908999 865.643,124.179 C865.456999,124.449001 865.280001,124.757998 865.112,125.106 C864.943999,125.454002 864.8,125.807998 864.68,126.168 L864.14,125.898 C864.560002,124.661994 865.030997,123.750003 865.553,123.162 C866.075002,122.573997 866.671997,122.28 867.344,122.28 C867.728002,122.28 868.000999,122.387999 868.163,122.604 C868.325001,122.820001 868.406,123.185997 868.406,123.702 C868.406,124.314003 868.304001,124.859998 868.1,125.34 L868.154,125.394 C868.766003,124.313995 869.386997,123.525002 870.017,123.027 C870.647003,122.528998 871.333996,122.28 872.078,122.28 C872.606003,122.28 873.007999,122.405999 873.284,122.658 C873.560001,122.910001 873.698,123.269998 873.698,123.738 C873.698,123.894001 873.683,124.067999 873.653,124.26 C873.623,124.452001 873.572,124.682999 873.5,124.953 C873.428,125.223001 873.329001,125.543998 873.203,125.916 C873.076999,126.288002 872.924001,126.743997 872.744,127.284 C872.467999,128.100004 872.240001,128.783997 872.06,129.336 C871.879999,129.888003 871.79,130.277999 871.79,130.506 C871.79,130.686001 871.849999,130.776 871.97,130.776 C872.138001,130.776 872.383998,130.638001 872.708,130.362 C873.032002,130.085999 873.469997,129.642003 874.022,129.03 L874.49,129.282 C874.297999,129.642002 874.049001,129.992998 873.743,130.335 C873.436998,130.677002 873.119002,130.985999 872.789,131.262 C872.458998,131.538001 872.132002,131.759999 871.808,131.928 C871.483998,132.096001 871.202001,132.18 870.962,132.18 C870.661998,132.18 870.425001,132.048001 870.251,131.784 C870.076999,131.519999 869.99,131.172002 869.99,130.74 C869.99,130.571999 870.005,130.401001 870.035,130.227 C870.065,130.052999 870.127999,129.804002 870.224,129.48 C870.32,129.155998 870.460999,128.721003 870.647,128.175 C870.833001,127.628997 871.087998,126.906004 871.412,126.006 C871.52,125.693998 871.61,125.430001 871.682,125.214 C871.754,124.997999 871.811,124.809001 871.853,124.647 C871.895,124.484999 871.925,124.344001 871.943,124.224 C871.961,124.103999 871.97,123.990001 871.97,123.882 C871.97,123.437998 871.808002,123.216 871.484,123.216 Z" id="coming-soon-copy"></path>
        </g>
    </g>
</svg>