<?xml version="1.0" encoding="UTF-8"?>
<svg width="107px" height="107px" viewBox="0 0 107 107" version="1.1" xmlns="http://www.w3.org/2000/svg" xmlns:xlink="http://www.w3.org/1999/xlink">
    <!-- Generator: Sketch 47 (45396) - http://www.bohemiancoding.com/sketch -->
    <title>en_tickets_cta_white--hover</title>
    <desc>Created with Sketch.</desc>
    <defs>
        <polygon id="path-1" points="12.4778881 12.8 12.4778881 0.10545125 0.508690124 0.10545125 0.508690124 12.8 12.4778881 12.8"></polygon>
    </defs>
    <g id="Page-1" stroke="none" stroke-width="1" fill="none" fill-rule="evenodd">
        <g id="en_tickets_cta_white--hover" transform="translate(1.000000, 1.000000)">
            <circle id="Oval-2-Copy" stroke="#FFFFFF" stroke-width="2" fill="#FFFFFF" cx="52.033321" cy="52.033321" r="52"></circle>
            <g id="Page-1" transform="translate(11.000000, 9.000000)">
                <path d="M14.4405232,18.0074065 C11.8847057,15.3742329 9.94415859,14.6201218 8.51178868,16.0257931 C6.95224574,17.5583582 7.7837617,19.4016833 10.3400941,22.034857 C12.8959115,24.6680306 14.7082559,25.5490354 16.2683137,24.0164703 C17.8288864,22.4839053 16.9963407,20.6405801 14.4405232,18.0074065 M8.00618579,24.3277483 C5.22331039,21.4604688 5.29848149,18.346135 8.09680301,15.5979801 C10.8951245,12.8493073 13.9915561,12.8482714 16.7744315,15.7150331 C19.5573069,18.5812768 19.4821358,21.6961285 16.6832994,24.4442834 C13.8854928,27.1929562 10.7885463,27.193992 8.00618579,24.3277483" id="Fill-1" fill="#00AE7C"></path>
                <path d="M24.1667886,10.3405413 C25.6228426,9.66412019 25.9667761,8.68522597 25.219184,7.05580735 C24.531317,5.55846175 23.6272042,5.05917391 22.2205779,5.71332385 C21.7134304,5.94898357 21.6603987,6.09296907 21.8792187,6.57050371 L23.7085538,10.5539298 L24.1667886,10.3405413 Z M22.1309904,17.5372265 C23.194713,17.0436359 23.2075847,16.8975787 22.8373928,16.0911563 L19.2013769,8.17506153 C18.8239768,7.35206528 18.640168,7.29716433 17.6413191,7.7612327 L17.3921217,7.21792052 L22.4151989,4.88359447 C25.4091713,3.49242523 27.1149375,3.87828565 27.8934217,5.57348182 C28.6724209,7.26816006 27.7585257,8.6515603 26.3668305,9.59834264 L26.3817618,9.63149038 C27.8290629,9.23786096 28.5380397,9.52790369 29.5291655,10.864172 L30.1485548,11.6949372 C31.0089035,12.832837 31.4244041,13.2186974 32.4386991,12.747378 L32.6878964,13.2901722 L29.4648067,14.7880358 C29.0482764,14.7025768 28.4499968,14.2214166 28.0010297,13.6314904 L26.4667154,11.5882429 C25.9559638,10.9071605 25.4673516,10.5352842 24.682174,10.9004273 L24.0107828,11.2117053 L25.6506456,14.7838923 C26.0208375,15.5897968 26.2051612,15.6441798 27.1381066,15.2111874 L27.387304,15.7539817 L22.3812175,18.0805387 L22.1309904,17.5372265 Z" id="Fill-3" fill="#00AE7C"></path>
                <path d="M49.9376564,12.304027 C50.8839885,12.8665027 51.0724312,12.8312832 51.5213983,12.0662955 L55.9333242,4.55988607 C56.391559,3.77936036 56.331834,3.59652986 55.3860168,3.03405413 L55.6882458,2.51871035 L64.0502586,7.49190731 L62.6101656,9.94173251 L61.9737856,9.5636411 C62.5061618,7.73222843 62.1282468,7.1278001 60.7319178,6.29703485 L59.6620168,5.66101257 C59.2429122,5.41136865 59.005042,5.4600544 58.7759246,5.85005828 L56.7396115,9.31503304 L58.5859373,10.413052 C59.3927395,10.8921404 59.7413069,10.762657 60.5774567,9.65997672 L61.0897529,9.96452159 L58.9895958,13.5382624 L58.4772996,13.2337175 C59.0688859,11.9425094 58.989081,11.5794381 58.1822788,11.0993138 L56.3359529,10.0018128 L54.3181752,13.4351936 C53.8048493,14.3089473 53.7904329,14.5114593 55.2799534,15.3971255 C56.753513,16.2734689 57.910942,16.4770167 59.2980033,14.9009453 L59.9338685,15.2790367 L58.1519014,17.883724 L49.6349126,12.8188528 L49.9376564,12.304027 Z" id="Fill-5" fill="#00AE7C"></path>
                <path d="M69.5834696,19.2927101 C70.6554301,20.4932799 71.6872307,20.5347145 73.0140522,19.3362165 C74.2342954,18.2335362 74.4412734,17.2173508 73.4058687,16.0571799 C73.0325875,15.6392076 72.8796709,15.6309207 72.4909437,15.9825975 L69.2462294,18.9141008 L69.5834696,19.2927101 Z M62.1477089,19.4563771 C62.9303122,20.3327205 63.0719016,20.3016445 63.7288764,19.7086107 L70.1781451,13.8808236 C70.8479917,13.2753594 70.8459322,13.0826881 70.1112119,12.2596919 L70.5534857,11.8603652 L74.2512861,16.0002072 C76.4549321,18.469196 76.5913728,20.2218827 75.21049,21.4701023 C73.8296071,22.717804 72.2463802,22.2475205 70.9375792,21.1883466 L70.9108059,21.2132074 C71.7109148,22.4878416 71.6439816,23.254901 70.6662424,24.60101 L70.0597249,25.441616 C69.2323279,26.6043766 68.9882792,27.1166128 69.7348415,27.9530753 L69.2925677,28.3534379 L66.9200442,25.6964393 C66.8783396,25.270698 67.159459,24.5533602 67.5873164,23.947378 L69.0758072,21.8709828 C69.5726573,21.1790238 69.7816948,20.5994562 69.2034951,19.9520394 L68.7097342,19.3988865 L65.8007156,22.0279167 C65.1437407,22.6214684 65.1463151,22.8146576 65.8326375,23.5837887 L65.3903637,23.9836334 L61.7049202,19.8562217 L62.1477089,19.4563771 Z" id="Fill-7" fill="#00AE7C"></path>
                <path d="M0.525940281,57.8695845 C1.03926623,58.8479608 1.19269766,58.8686781 1.95728045,58.4626183 L10.5654014,53.8939274 L10.1869716,53.172964 C9.63194108,52.114308 8.40294505,51.5979284 6.7419726,52.3152662 L6.3887714,51.6424707 L9.25042199,50.1435713 L14.3471257,59.8610386 L11.493713,61.375476 L11.1569877,60.7337565 C12.8879825,59.4876086 12.8612093,58.2709829 12.3314075,57.2615306 L12.0204256,56.6679789 L3.41230467,61.2366699 C2.64772188,61.6427297 2.57821435,61.7820538 3.0827875,62.7438562 L2.55658979,63.0230223 L0.000257435282,58.1487506 L0.525940281,57.8695845 Z" id="Fill-9" fill="#00AE7C"></path>
                <path d="M8.01545346,71.50931 C8.87271295,72.311589 9.011728,72.2680825 9.61309682,71.618594 L15.507335,65.2485305 C16.1339325,64.5715915 16.1009808,64.3675257 15.3096247,63.6268809 L15.7148279,63.1892272 L19.7910581,67.0058787 L19.3853401,67.4435325 C18.5811123,66.6899393 18.4024522,66.6966725 17.7763696,67.3736115 L11.8821314,73.7426391 C11.2436919,74.4330444 11.286941,74.5723684 12.0916837,75.3259616 L11.6859657,75.7641333 L7.61025032,71.9474817 L8.01545346,71.50931 Z" id="Fill-11" fill="#00AE7C"></path>
                <path d="M18.6481999,75.8303252 C20.075936,72.0514828 23.1574363,70.7861714 26.8130174,72.1840737 C28.8009326,72.9444 29.1196375,73.7839702 29.6252404,73.9771593 C29.8105938,74.0481162 30.0448599,74.0408651 30.1823303,73.8803058 L30.2904531,73.7471969 L30.7795802,73.9336529 L29.7369673,77.201295 L29.0969832,76.9568305 C29.4367977,75.0881266 28.6907503,73.5426132 27.0395604,72.9107344 C24.125393,71.7966595 22.4273499,75.0648196 21.7163136,76.9459538 C20.55734,80.0131557 20.8415485,82.5266867 23.1157318,83.396297 C24.8168642,84.0468214 26.4062696,83.4139067 27.4622691,82.1496312 L27.8906414,82.5463682 C26.6503183,83.9919205 25.0099406,84.7610516 22.2976025,83.7236309 C18.8273749,82.3966854 17.219949,79.6102035 18.6481999,75.8303252" id="Fill-13" fill="#00AE7C"></path>
                <g id="Group-17" transform="translate(32.951716, 75.087919)" fill="#00AE7C">
                    <path d="M12.8544645,11.8322414 L12.8328399,12.4304545 L6.99729692,12.2186197 L7.01840661,11.6209245 L7.63110258,11.6431957 C8.22526321,11.664431 8.22062938,11.3008417 7.81027754,10.6694808 L5.04078877,6.4327852 L4.57534578,6.83366569 L4.44353892,10.5109932 C4.41110207,11.4168588 4.46155939,11.5282145 5.63186018,11.5701671 L5.61075049,12.1683802 L0.0455145579,11.9663862 L0.0671391216,11.368691 C1.23743991,11.4106436 1.31312589,11.3044672 1.3460776,10.3986016 L1.65808917,1.7019811 C1.69052601,0.777987831 1.60557237,0.648504469 0.452777174,0.60655186 L0.473886867,0.00885666194 L6.03963767,0.210332773 L6.0180131,0.808545904 C4.91876445,0.768665029 4.7885022,0.890379389 4.75555048,1.81437266 L4.60881237,5.90915449 L9.08355244,1.80815746 C9.49493403,1.42436877 9.45786334,0.933367865 8.82766177,0.910578793 L8.35912956,0.894004923 L8.38075412,0.295791792 L11.9112216,0.423203419 L11.8890821,1.02141655 C10.8629451,0.984125343 10.2584871,1.74237991 8.97285527,2.89271009 L7.24031582,4.4444387 L10.1972175,8.9784281 C11.4617396,10.9284475 11.8278126,11.7949502 12.8544645,11.8322414" id="Fill-15"></path>
                </g>
                <path d="M52.1181333,86.1249776 C53.1247052,85.6805907 53.2060548,85.5060471 52.851309,84.6934095 L49.366665,76.7079116 C49.004711,75.8781823 48.8219319,75.8201737 47.81536,76.2645606 L47.57646,75.717105 L56.470849,71.7890977 L57.6081981,74.3958567 L56.9321731,74.6947043 C55.7639317,73.1906256 55.0554699,73.1466013 53.5705831,73.802305 L52.4316895,74.3047004 C51.9858115,74.5015152 51.8864415,74.7242265 52.0671611,75.1396092 L53.6761316,78.8241877 L55.6393331,77.9571671 C56.4971074,77.5785578 56.5959626,77.218594 56.1943635,75.8911306 L56.7390966,75.6508095 L58.3980096,79.451923 L57.8532765,79.6922442 C57.1561418,78.456455 56.8163272,78.3088439 55.958038,78.6879712 L53.9948365,79.5549918 L55.5883609,83.2069405 C55.993564,84.1366311 56.1490549,84.2666324 57.7333117,83.5669043 C59.3005777,82.8749452 60.1408464,82.0483234 59.6774629,79.9957532 L60.3545177,79.6969056 L61.4166957,82.6724332 L52.3570332,86.6734691 L52.1181333,86.1249776 Z" id="Fill-18" fill="#00AE7C"></path>
                <path d="M68.9466777,76.1133758 C69.721043,75.3281887 69.6947846,75.1743625 69.0810589,74.5616472 L62.1699513,67.667953 L61.5989599,68.2470026 C60.7612654,69.0969314 60.6402709,70.4306101 61.8177798,71.8103848 L61.2843739,72.3511073 L59.0065866,70.0530366 L66.6972082,62.2524409 L68.9878673,64.5370454 L68.4802049,65.0518712 C66.7795875,63.7637707 65.6345153,64.1542925 64.8354362,64.9648584 L64.3658743,65.4408392 L71.276467,72.3350513 C71.8901927,72.9467307 72.0431093,72.9721095 72.8046028,72.2003886 L73.2267967,72.6214685 L69.3693864,76.5349737 L68.9466777,76.1133758 Z" id="Fill-20" fill="#00AE7C"></path>
                <g id="Group-24" transform="translate(68.992656, 52.816781)">
                    <mask id="mask-2" fill="white">
                        <use xlink:href="#path-1"></use>
                    </mask>
                    <g id="Clip-23"></g>
                    <path d="M6.68580023,11.3161207 L7.06628957,10.6785446 C8.24946213,11.1612586 10.3887493,10.8883077 11.3258138,9.31896934 C11.9009242,8.35509519 12.0342756,7.04006217 10.783655,6.28387934 C9.88778027,5.74263889 9.04648176,6.05909622 8.0347611,6.90695327 L6.98957386,7.7775994 C5.35743417,9.13821056 3.94514421,9.53287585 2.30785582,8.54362297 C0.314276992,7.3394277 0.006384395,5.14390782 1.24052914,3.07683543 C1.87176045,2.0202512 2.56735058,1.80582676 2.91076925,1.2304027 C3.10487545,0.904622558 3.00293108,0.758047393 2.87678779,0.618205362 L3.18262091,0.10545125 L5.91761334,1.5463421 L5.537124,2.18391817 C3.91476685,1.62610385 2.38148231,2.11658682 1.62101848,3.39122104 C0.980004632,4.46386121 1.12159404,5.66961027 2.03342981,6.22017352 C3.13010411,6.88312834 4.21287691,5.84518971 4.79056168,5.37024474 L6.11068981,4.28517417 C7.46531426,3.17938626 8.96461734,2.81631491 10.509229,3.75014892 C12.9044069,5.19673703 12.8292358,7.75222066 11.7897121,9.49299498 C11.1023599,10.6428072 10.1477899,11.1866373 9.8697598,11.6527774 C9.7209622,11.9013855 9.74567599,12.1070051 9.86873005,12.2877639 L9.56289694,12.8 L6.68580023,11.3161207 Z" id="Fill-22" fill="#00AE7C" mask="url(#mask-2)"></path>
                </g>
                <g id="Group-27" transform="translate(33.981457, 0.505503)" fill="#00AE7C">
                    <path d="M9.86306648,5.74610904 C9.70860531,2.28734948 8.42503299,0.603029912 6.06641094,0.709206269 C5.29204561,0.744425743 4.93266595,0.779127284 4.96252845,1.44881523 L5.35794904,10.3059951 C5.4006833,11.2662437 5.69364465,11.3615435 6.43145417,11.3278778 C8.95226045,11.2144504 10.0298845,9.47730159 9.86306648,5.74610904 L9.86306648,5.74610904 Z M0.889902283,11.6505503 C2.29395431,11.5868445 2.30734095,11.4780785 2.26718104,10.5722129 L1.87845377,1.86109025 C1.83777899,0.955224656 1.70597213,0.83402823 0.409528047,0.892554709 L0.383269648,0.294859511 L6.43248391,0.0219085848 C10.5926381,-0.129845915 12.939933,1.52495145 13.1191079,5.54515086 C13.3173331,9.9822867 10.8186662,11.801269 6.37172918,12.0022271 L0.916160682,12.2487635 L0.889902283,11.6505503 Z" id="Fill-25"></path>
                </g>
            </g>
        </g>
    </g>
</svg>