<?xml version="1.0" encoding="UTF-8"?>
<svg width="106px" height="106px" viewBox="0 0 106 106" version="1.1" xmlns="http://www.w3.org/2000/svg" xmlns:xlink="http://www.w3.org/1999/xlink">
    <!-- Generator: Sketch 46.2 (44496) - http://www.bohemiancoding.com/sketch -->
    <title>Group 2 Copy 2</title>
    <desc>Created with Sketch.</desc>
    <defs>
        <polygon id="path-1" points="0 0.0620697674 0 11.5855 11.4147171 11.5855 11.4147171 0.0620697674"></polygon>
        <polygon id="path-3" points="10.0449338 11.3662791 0.0346688742 11.3662791 0.0346688742 0.440553646 10.0449338 0.440553646"></polygon>
    </defs>
    <g id="Page-1" stroke="none" stroke-width="1" fill="none" fill-rule="evenodd">
        <g id="Artboard" transform="translate(-25.000000, -8.000000)">
            <g id="Group-2-Copy-2" transform="translate(26.000000, 9.000000)">
                <circle id="Oval-2-Copy" stroke="#FFFFFF" stroke-width="2" fill-opacity="0.699999988" fill="#00AE7C" cx="52" cy="52" r="52"></circle>
                <g id="Page-1" transform="translate(15.000000, 9.000000)">
                    <path d="M19.0919702,15.4021977 C18.9817053,15.4862093 18.8605132,15.5563837 18.7532285,15.6161802 L18.6687914,15.5064709 C18.6568709,15.3196686 18.6032285,15.1644942 18.0643212,14.4642326 L15.7626656,11.4694651 C15.1606788,10.6866744 14.9088576,10.5300174 14.3982616,10.9184477 L11.6510762,13.0093488 C11.6555464,13.1580988 11.820447,13.6853953 12.2535596,14.2487674 C12.929553,15.1279244 14.2174669,16.0634186 14.798096,16.8190291 C15.0727649,17.1763256 15.2858444,17.6240581 15.3360099,18.1730988 L13.0442881,19.9170814 L11.5154801,17.0745233 L12.6340232,16.2235349 C12.1666391,15.729843 11.5517384,15.0439128 11.3351821,14.5339128 C11.2035596,14.2205988 11.1156457,13.7649593 11.0540563,13.48525 L11.0436258,13.4714128 L11.001904,13.5030407 C10.2290563,14.0916163 9.64842715,14.0762965 8.93021523,13.1417907 C8.22293046,12.2216163 7.91299669,11.1072267 7.85885762,10.866064 L8.12110927,10.6664128 L8.28998344,10.8858314 C8.48021523,11.1334186 8.74147351,11.2174302 9.04544702,10.9861512 L12.4969371,8.35955233 C13.5459437,7.56144186 14.1543874,7.92565698 14.8611755,8.75934884 L18.8828642,13.5366453 C19.5578642,14.3288256 19.6855132,14.9505116 19.0919702,15.4021977" id="Fill-1" fill="#FFFFFF"></path>
                    <path d="M23.5748841,9.40450872 L26.616606,8.47543895 C26.5118046,8.2540436 26.3344868,7.85622384 26.1586589,7.16782267 L25.9227318,6.22639826 C25.8030298,5.72035174 25.545745,5.65413081 25.1647848,5.71590407 L23.7243874,5.93878198 C23.0672682,6.04898547 22.7911093,5.86218314 22.5715728,5.15104942 C22.2914404,4.24125291 22.341606,3.28500291 22.3987252,2.29070058 L22.7146192,2.1943343 L22.7856457,2.42561337 C22.9033609,2.80613663 23.0449172,2.8530843 23.5858113,2.77846221 L24.8886258,2.57979942 C25.5288576,2.47453779 25.9276987,2.58820058 26.1581623,3.51282267 L26.9156126,6.55651453 C27.1669371,7.54735756 27.9040232,8.22735756 28.3376325,9.63282267 C28.5209106,10.2283169 28.5502152,10.6172413 28.552202,11.2137238 L24.0149503,12.5994215 L23.5748841,9.40450872 Z" id="Fill-3" fill="#FFFFFF"></path>
                    <path d="M34.747202,5.46831686 L35.3129305,4.51602035 C35.430149,4.31538081 35.3889238,4.13945058 35.1659106,4.09102035 L34.3915728,3.93831686 C33.8074669,3.81477035 33.4369371,3.34084593 33.4950497,2.42610756 C33.5665728,1.30381105 34.2296523,0.184479651 34.3284934,0.000148255814 L34.6582947,0.0209040698 L34.6438907,0.245264535 C34.6185596,0.642590116 34.7844536,0.774043605 35.0427318,0.824944767 L35.9531623,1.02113663 C36.7086258,1.19014826 36.8278311,1.78663081 36.7771689,2.58078779 C36.7597848,2.85703779 36.7215397,3.18369477 36.6559768,3.3877936 L36.6723675,3.40607849 C37.388096,3.104625 38.0611093,2.38410174 38.4018377,0.863491279 L38.5925662,0.875351744 C38.9914073,0.900555233 39.8283278,1.43822965 40.3026656,1.91857849 C41.3342881,2.95439244 41.6094536,4.6524157 41.5150828,6.13695058 C41.4281623,7.50090407 40.9637583,9.60317151 40.716904,10.7486948 L35.9804801,10.4502064 L36.7031623,7.30718314 L40.6409106,7.55526453 C40.7129305,7.24788081 40.7501821,6.93802616 40.763096,6.73096221 C40.8475331,5.40160174 40.2316391,4.13253198 38.5314735,4.02578779 C37.108957,3.93584593 36.285447,4.83724128 36.0063079,5.11447965 C34.9861093,6.09000291 34.5554801,7.93430523 34.4020033,10.350875 L33.6559768,10.3039273 C33.8139238,7.8186657 34.1238576,6.50363663 34.747202,5.46831686" id="Fill-5" fill="#FFFFFF"></path>
                    <path d="M51.7995199,6.53333721 C51.3306457,7.42138953 50.671043,7.74112791 50.4500166,7.89877326 L50.3114404,7.82662209 C50.3372682,7.70307558 50.363096,7.58002326 50.1102815,7.38926744 L49.5743543,6.99194186 C49.3031623,7.31909302 48.9569702,7.90025581 48.7374338,8.76211628 L48.046043,11.4485116 C47.7674007,12.5337442 47.2170695,12.8322326 46.6016722,12.5105174 C46.4784934,12.4462733 46.3478642,12.3583081 46.2485265,12.2866512 L46.313096,12.164093 C46.3915728,12.1270291 46.6503477,12.0084244 46.8862748,11.1159244 L47.4068046,9.19996512 C47.7097848,8.06877326 48.3018377,7.24496512 49.1069702,6.64996512 L48.6321358,6.28426744 C47.7897517,5.64874419 47.6943874,5.34481977 48.1230298,4.53336628 C48.6162417,3.59935465 49.5644205,2.84473256 49.9523344,2.52005233 L50.2443874,2.67275581 L50.1395861,2.87191279 C49.9940563,3.14717442 49.9121026,3.3389186 50.3417384,3.64185465 L51.5526656,4.50915116 C52.2808113,5.02656395 52.2117715,5.75252326 51.7995199,6.53333721" id="Fill-7" fill="#FFFFFF"></path>
                    <path d="M56.5852649,18.8362965 L56.6870861,18.741907 C56.9721854,18.6915 57.0864238,18.58525 57.6725166,18.0436221 L59.557947,16.3011221 C60.8061258,15.1476919 61.597351,15.0542907 61.7210265,15.0340291 L61.7463576,15.0108023 L58.2789735,11.2969942 C57.6521523,10.6253953 57.5254967,10.0575756 58.4299669,9.22141279 C59.3086093,8.40946512 60.443543,7.99780814 60.6183775,7.93109302 L60.8428808,8.17176163 L60.7028146,8.30123837 C60.3461921,8.63086047 60.3273179,8.8137093 60.6347682,9.1433314 L64.4096026,13.1862674 C64.6346026,13.4274302 64.6008278,13.6705698 64.3971854,13.8593488 L62.5629139,15.554407 L62.3036424,15.5815872 C61.8337748,15.6379244 61.1225166,16.2482442 60.3278146,17.1007151 L58.7264901,18.8170233 C57.9705298,19.6339128 57.3288079,19.6838256 56.8321192,19.1515872 C56.7372517,19.0497849 56.6433775,18.9242616 56.5852649,18.8362965 M52.7046358,14.6544942 L52.7940397,14.5724593 C52.965894,14.5783895 53.1288079,14.4988256 53.3965232,14.2517326 L55.2178808,12.5680407 C56.0205298,11.8262674 56.7258278,11.7175465 57.1162252,12.1356279 C57.1753311,12.1988837 57.1991722,12.2245814 57.2672185,12.3738256 L57.1912252,12.4444942 C56.9587748,12.3990291 56.7432119,12.5749593 56.513245,12.8111802 L54.5304636,14.8561221 C53.8907285,15.5183314 53.3175497,15.3868779 52.9271523,14.9687965 C52.8442053,14.8803372 52.7860927,14.7923721 52.7046358,14.6544942" id="Fill-9" fill="#FFFFFF"></path>
                    <g id="Group-13" transform="translate(0.000000, 57.398721)">
                        <mask id="mask-2" fill="white">
                            <use xlink:href="#path-1"></use>
                        </mask>
                        <g id="Clip-12"></g>
                        <path d="M6.00720199,9.05279651 L7.56928808,8.11433721 C8.49213576,7.56035465 8.59842715,7.23369767 8.02375828,6.28634302 L6.27193709,3.39980233 C5.27359272,3.49419186 4.90753311,3.59302907 4.05918874,4.10253488 L3.68716887,4.32590698 C3.33004967,4.54038372 3.34842715,4.67084884 3.4830298,4.89273837 L6.00720199,9.05279651 Z M3.32706954,3.33061628 C4.20471854,2.80331977 4.8156457,2.73907558 5.93667219,2.91401744 L5.96647351,2.89622674 L5.80504967,2.62986047 C5.4727649,2.08230233 5.62872517,1.40230233 6.41746689,0.928872093 C7.54793046,0.249860465 8.68932119,0.08925 8.93667219,0.0620697674 L9.10703642,0.343261628 L8.77971854,0.539947674 C8.54180464,0.682767442 8.49759934,0.911575581 8.61432119,1.10381395 L11.1206126,5.23422093 C11.6684603,6.13709884 11.4414735,7.00093605 10.5186258,7.5549186 L3.80836093,11.5855 L-0.000248344371,5.30834884 L3.32706954,3.33061628 Z" id="Fill-11" fill="#FFFFFF" mask="url(#mask-2)"></path>
                    </g>
                    <path d="M13.7643377,74.3511802 C14.842649,74.4060349 15.622947,74.2226919 16.0019205,73.7057733 C16.3088742,73.2867035 16.2840397,72.9689419 15.7645033,72.5913837 L14.6971192,71.8169942 C13.9103642,71.2462093 13.7603642,70.6877791 14.4467881,69.7517907 C15.1535762,68.7876337 16.1295695,68.1901628 16.3471192,68.0695814 L16.6138411,68.2633023 L16.4499338,68.4866744 C16.2656623,68.7382151 16.2587086,69.0115 16.567649,69.2358605 L17.9583775,70.2449884 C18.6184768,70.7238547 18.5842053,71.298593 18.5315563,71.5170233 C18.4659934,71.8120523 17.9047351,72.7534767 17.5669868,73.2145523 C16.1429801,75.1567035 14.5724503,74.9802791 13.6803974,74.8468488 L13.7643377,74.3511802 Z" id="Fill-14" fill="#FFFFFF"></path>
                    <path d="M28.763543,80.0708401 C28.9895364,79.0048808 28.838543,78.460782 27.8521192,78.253718 L24.6549338,77.5826134 C24.3271192,77.9557238 23.8696689,78.354532 23.6938411,79.183282 C23.4320861,80.4187471 24.0688411,81.1002297 25.7863907,81.4609855 C27.5724834,81.8355785 28.4729801,81.441218 28.763543,80.0708401 M29.6531126,80.3989797 C28.9786093,83.5800552 27.2610596,84.8100843 25.1183444,84.360375 C22.8906954,83.892875 21.9459934,82.3159273 22.3800993,80.2685145 C22.717351,78.6782238 23.5671854,77.937439 24.0017881,77.480811 L24.0087417,77.4467122 L23.9749669,77.4397936 C23.1584106,77.268311 22.9527815,76.7301424 23.1574172,75.7659855 C23.3978146,74.6323227 24.0559272,73.6217122 24.225298,73.4097064 L24.5486424,73.4774099 L24.4696689,73.849532 C24.412053,74.1203459 24.5496358,74.3086308 24.7711589,74.3545901 L28.3761258,75.1116831 C29.2433444,75.2935436 29.6372185,75.7827878 29.8229801,76.5818866 C29.8686755,76.7859855 30.1448344,78.0807529 29.6531126,80.3989797" id="Fill-16" fill="#FFFFFF"></path>
                    <path d="M37.7194868,82.2350291 C38.5772682,81.5817151 39.0525993,80.9397674 39.0049172,80.3012791 C38.9666722,79.7838663 38.7401821,79.5575291 38.098957,79.6049709 L36.780745,79.7023256 C35.8097185,79.7739826 35.331904,79.4448547 35.2459768,78.2889535 C35.1570695,77.0984593 35.512202,76.0142151 35.5996192,75.7819477 L35.9289238,75.7577326 L35.9497848,76.0339826 C35.9726325,76.3443314 36.1454801,76.5573256 36.5269371,76.529157 L38.2434934,76.4021512 C39.0585596,76.3423547 39.4067384,76.8024419 39.5090563,77.0030814 C39.6506126,77.2699419 39.8358775,78.3492442 39.878096,78.9185465 C40.056904,81.3168314 38.745149,82.1940116 37.9782616,82.6669477 L37.7194868,82.2350291 Z" id="Fill-18" fill="#FFFFFF"></path>
                    <g id="Group-22" transform="translate(44.205298, 73.212674)">
                        <mask id="mask-4" fill="white">
                            <use xlink:href="#path-3"></use>
                        </mask>
                        <g id="Clip-21"></g>
                        <path d="M8.9318543,3.402125 C9.6555298,4.91729942 10.0369868,6.440875 10.0449338,9.11738663 L5.2881457,11.3664273 C4.24907285,10.0770959 3.20602649,8.61727035 2.87771523,7.93035174 C2.46745033,7.07096221 2.32142384,6.20168895 2.27622517,5.74456686 L2.22903974,5.76680523 C1.21182119,6.09445058 0.779701987,5.55232849 0.496092715,4.95881105 C-0.00357615894,3.912125 0.0624834437,2.96229942 0.0346688742,2.42017733 L0.332682119,2.27884012 L0.429536424,2.48195058 C0.564139073,2.76314244 0.708675497,2.90546802 1.16264901,2.76759012 L1.96827815,2.52049709 C2.68798013,2.29514826 3.10519868,2.80613663 3.4260596,3.47773547 C3.66496689,3.97785174 3.86960265,4.60843314 3.94609272,5.45299709 L3.80453642,5.51971221 C3.68284768,5.38578779 3.63019868,5.31511919 3.33268212,5.4174157 L2.9805298,5.52663081 C3.02870861,5.82907267 3.18019868,6.42802616 3.4260596,6.94346221 C3.61281457,7.33386919 3.86215232,7.694625 4.33897351,8.33064244 L8.97009934,6.14139826 C8.92539735,5.64523547 8.81910596,5.14017733 8.50569536,4.48439244 C7.94642384,3.31267733 7.37622517,3.04631105 6.43450331,3.49157267 C5.94774834,3.72136919 5.41430464,4.33761919 5.44609272,5.08828779 L5.4555298,5.39023547 L5.04725166,5.58346221 L4.79245033,4.72753198 C4.21728477,2.79724128 4.09460265,1.170875 5.30354305,0.599101744 C6.6689404,-0.0463052326 7.95486755,1.35619477 8.9318543,3.402125" id="Fill-20" fill="#FFFFFF" mask="url(#mask-4)"></path>
                    </g>
                    <path d="M70.3534768,64.4575262 L72.0774834,60.002439 C72.3213576,59.3728459 71.9647351,58.9952878 71.0235099,58.634532 C69.9203642,58.2120029 69.3437086,58.3063924 68.9627483,59.290811 L67.7319536,62.4708983 C67.4319536,63.245782 66.8652318,63.3619157 65.9403974,63.0075843 C64.8536424,62.5914797 63.9551325,61.7839797 63.7718543,61.5838343 L63.8905629,61.2769448 L64.2476821,61.4138343 C64.5069536,61.5131657 64.7155629,61.4079041 64.7965232,61.197875 L65.9587748,58.1956948 C66.2771523,57.3723808 66.8254967,57.0635145 67.6480132,57.0076715 C67.8576159,56.9953169 69.1708609,56.9236599 71.4258278,57.7879913 C73.3887417,58.5401424 74.1799669,59.2878459 74.5991722,59.9861308 C74.9980132,60.6394448 75.0253311,61.2428459 74.8127483,61.7918866 L73.0763245,66.2790959 L70.3534768,64.4575262 Z" id="Fill-23" fill="#FFFFFF"></path>
                    <path d="M66.7253146,73.6577878 L66.6200166,73.5673517 C66.5703477,73.3869738 66.4864073,73.2456366 65.8163742,72.667439 L62.9534603,70.1970029 C62.2049503,69.5511017 61.9268046,69.448311 61.5051159,69.931625 L59.0450166,72.7539215 C58.4072682,73.485811 57.8350828,73.5876134 56.9420364,72.8166831 C56.0624007,72.0576134 55.5329305,71.0282238 55.4306126,70.802875 L55.6466722,70.5542994 L55.8572682,70.7356657 C56.0931954,70.9397645 56.3668709,70.9694157 56.617202,70.6817994 L59.100149,67.833311 C59.9658775,66.8404913 60.6359106,67.0752297 61.4971689,67.7497936 L66.4302815,71.5940669 C67.2523013,72.2350262 67.5031291,72.8181657 67.013394,73.3800552 C66.9225,73.4843285 66.8181954,73.5777297 66.7253146,73.6577878" id="Fill-25" fill="#FFFFFF"></path>
                </g>
            </g>
        </g>
    </g>
</svg>