<?xml version="1.0" encoding="UTF-8"?>
<svg width="333px" height="281px" viewBox="0 0 333 281" version="1.1" xmlns="http://www.w3.org/2000/svg" xmlns:xlink="http://www.w3.org/1999/xlink">
    <!-- Generator: Sketch 46.2 (44496) - http://www.bohemiancoding.com/sketch -->
    <title>Group 6</title>
    <desc>Created with Sketch.</desc>
    <defs></defs>
    <g id="Page-1" stroke="none" stroke-width="1" fill="none" fill-rule="evenodd">
        <g id="coming-soon---desktop" transform="translate(-313.000000, -412.000000)">
            <g id="Group-6" transform="translate(313.000000, 412.000000)">
                <rect id="back" fill-opacity="0.01" fill="#00AE7C" x="0" y="0" width="333" height="281"></rect>
                <g id="Group-3" transform="translate(0.000000, 1.000000)" fill="#FFFFFF">
                    <g id="Group">
                        <path d="M104.969781,274.294792 L107.920468,274.294792 L107.920468,264.205264 L111.911135,264.205264 L111.911135,261.677522 L101,261.677522 L101,264.205264 L104.969781,264.205264 L104.969781,274.294792 Z M118.937474,274.294792 L122.099903,274.294792 L123.183094,269.043387 L124.308057,274.294792 L127.55547,274.294792 L129.168734,264.554224 L126.557983,264.554224 L125.793844,272.05021 L124.647274,266.384785 L121.845669,266.384785 L120.763198,272.05021 L120.062437,264.554224 L117.281718,264.554224 L118.937474,274.294792 Z M135.515917,274.294792 L144.473851,274.294792 L144.473851,272.09383 L141.565656,272.09383 L141.565656,264.554224 L135.515917,264.554224 L135.515917,266.755186 L138.720838,266.755186 L138.720838,272.09383 L135.515917,272.09383 L135.515917,274.294792 Z M138.466605,263.006823 L141.820609,263.006823 L141.820609,260 L138.466605,260 L138.466605,263.006823 Z M152.285216,274.294792 L161.243149,274.294792 L161.243149,272.09383 L158.186591,272.09383 L158.186591,260 L152.285216,260 L152.285216,262.222402 L155.341774,262.222402 L155.341774,272.09383 L152.285216,272.09383 L152.285216,274.294792 Z M169.055234,274.294792 L178.013168,274.294792 L178.013168,272.09383 L175.104972,272.09383 L175.104972,264.554224 L169.055234,264.554224 L169.055234,266.755186 L172.260155,266.755186 L172.260155,272.09383 L169.055234,272.09383 L169.055234,274.294792 Z M172.005202,263.006823 L175.359205,263.006823 L175.359205,260 L172.005202,260 L172.005202,263.006823 Z M189.857691,278.543675 C193.02084,278.543675 194.782466,277.215114 194.782466,274.447092 L194.782466,264.554224 L192.2567,264.554224 L192.2567,265.839905 C191.725908,265.142724 190.89767,264.336124 189.178536,264.336124 C186.991988,264.336124 185.102885,265.621805 185.102885,269.195688 C185.102885,272.68233 186.886117,273.924391 188.923583,273.924391 C190.664323,273.924391 191.576825,273.074171 191.937649,272.63871 L191.937649,274.207552 C191.937649,275.384552 191.746794,276.429954 190.006054,276.429954 C188.456889,276.429954 188.116951,275.601913 188.031966,274.687372 L185.314626,274.687372 C185.421216,278.020975 187.861998,278.543675 189.857691,278.543675 L189.857691,278.543675 Z M190.070152,271.50533 C188.668629,271.50533 188.053573,270.764529 188.053573,269.195688 C188.053573,267.626846 188.668629,266.755186 190.02766,266.755186 C190.982654,266.755186 191.534333,267.104146 191.937649,267.474546 L191.937649,270.786709 C191.470955,271.222169 190.919276,271.50533 190.070152,271.50533 L190.070152,271.50533 Z M202.615437,274.294792 L205.459534,274.294792 L205.459534,267.474546 C205.692881,267.212826 206.266166,266.776626 207.200274,266.776626 C208.346843,266.776626 208.686061,267.408746 208.686061,268.781667 L208.686061,274.294792 L211.530878,274.294792 L211.530878,268.258967 C211.530878,265.229964 210.002599,264.336124 208.261859,264.336124 C206.626989,264.336124 205.86285,265.120544 205.459534,265.621805 L205.459534,260 L202.615437,260 L202.615437,274.294792 Z M225.137748,274.512892 C226.581043,274.512892 227.6844,274.142491 228.385161,273.815711 L228.385161,271.527509 C227.748498,271.78849 226.835276,272.09383 225.859395,272.09383 C224.436987,272.09383 224.139541,271.440269 224.139541,269.871428 L224.139541,266.755186 L228.830969,266.755186 L228.830969,264.554224 L224.139541,264.554224 L224.139541,260 L221.295444,260 L221.295444,264.554224 L218.344756,264.554224 L218.344756,266.755186 L221.295444,266.755186 L221.295444,269.980108 C221.295444,273.379511 222.632868,274.512892 225.137748,274.512892 L225.137748,274.512892 Z" id="Fill-1"></path>
                        <path d="M128.409681,246.224025 L128.409681,234.936056 L119.2184,234.936056 C118.326784,234.936056 117.711007,234.500595 117.711007,234.500595 L116.756012,237.115577 C116.756012,237.115577 117.58353,237.725518 118.369276,237.725518 L118.369276,246.224025 L128.409681,246.224025 Z M121.085896,243.434563 L125.69234,243.434563 L125.69234,237.725518 L121.085896,237.725518 L121.085896,243.434563 Z M140.16994,236.897477 L135.92432,234.500595 L134.586896,236.897477 L136.815936,238.183158 L135.096082,241.734861 L137.261744,242.889682 L140.16994,236.897477 Z M156.98173,243.783523 L156.98173,237.028337 C156.98173,235.742656 155.941751,234.936056 154.731804,234.936056 L150.952878,234.936056 L149.361221,238.074478 C149.106267,236.679377 148.639573,235.480936 147.853827,234.348295 L145.731378,236.004376 C147.472118,238.967579 147.111294,243.064162 145.646393,246.224025 L148.447998,246.224025 C149.722044,243.347323 149.679552,239.861419 149.424599,238.509939 C149.424599,238.509939 150.592054,237.725518 152.948571,237.725518 C153.436872,237.725518 154.285996,237.725518 154.285996,238.575738 L154.285996,242.258301 C154.285996,242.628702 154.221897,242.650142 153.967664,242.759562 L150.486184,243.761343 L151.335308,246.289085 L156.069228,244.873284 C156.641792,244.698804 156.98173,244.218984 156.98173,243.783523 L156.98173,243.783523 Z M167.467943,246.224025 L167.467943,236.701557 L163.965577,234.500595 L162.713137,236.810237 L164.751323,238.183158 L164.751323,246.224025 L167.467943,246.224025 Z M182.199776,237.115577 L181.223175,234.500595 C181.223175,234.500595 180.523134,234.936056 179.992342,234.936056 L175.406784,234.936056 C174.536774,234.936056 173.942603,234.500595 173.942603,234.500595 L172.966003,237.115577 C172.966003,237.115577 173.920997,237.725518 174.621759,237.725518 L178.336586,237.725518 L178.336586,246.224025 L181.053927,246.224025 L181.053927,237.638278 C181.881444,237.333677 182.199776,237.115577 182.199776,237.115577 L182.199776,237.115577 Z M198.969794,243.783523 L198.969794,237.028337 C198.969794,235.742656 197.929095,234.936056 196.719148,234.936056 L192.940942,234.936056 L191.348565,238.074478 C191.094332,236.679377 190.626917,235.480936 189.841892,234.348295 L187.718722,236.004376 C189.459462,238.967579 189.098638,243.064162 187.633737,246.224025 L190.436062,246.224025 C191.710108,243.347323 191.667616,239.861419 191.412663,238.509939 C191.412663,238.509939 192.580118,237.725518 194.936636,237.725518 C195.424936,237.725518 196.27406,237.725518 196.27406,238.575738 L196.27406,242.258301 C196.27406,242.628702 196.209961,242.650142 195.955008,242.759562 L192.474248,243.761343 L193.323372,246.289085 L198.056572,244.873284 C198.629857,244.698804 198.969794,244.218984 198.969794,243.783523 L198.969794,243.783523 Z M214.083337,237.115577 L213.106736,234.500595 C213.106736,234.500595 212.406695,234.936056 211.875903,234.936056 L207.291065,234.936056 C206.420335,234.936056 205.826164,234.500595 205.826164,234.500595 L204.849564,237.115577 C204.849564,237.115577 205.804558,237.725518 206.50532,237.725518 L210.220147,237.725518 L210.220147,246.224025 L212.937488,246.224025 L212.937488,237.638278 C213.765005,237.333677 214.083337,237.115577 214.083337,237.115577 L214.083337,237.115577 Z" id="Fill-3"></path>
                        <path d="M0.142554385,176.540483 L6.82895555,176.540483 L6.82895555,174.653733 L4.57902909,174.653733 L4.57902909,169.009748 L6.82895555,169.009748 L6.82895555,167.122998 L0.142554385,167.122998 L0.142554385,169.009748 L2.37663629,169.009748 L2.37663629,174.653733 L0.142554385,174.653733 L0.142554385,176.540483 Z M9.66513046,176.540483 L11.7883005,176.540483 L11.7883005,171.449511 C12.1051915,171.124209 12.5171499,170.929028 13.0875538,170.929028 C13.9431596,170.929028 14.1966725,171.400716 14.1966725,172.425416 L14.1966725,176.540483 L16.3198425,176.540483 L16.3198425,172.035054 C16.3198425,169.774207 15.099812,169.107339 13.8322478,169.107339 C12.6280618,169.107339 11.8992124,169.709147 11.5506322,170.245895 L11.5506322,169.26999 L9.66513046,169.26999 L9.66513046,176.540483 Z M23.4657357,176.703133 C24.5431653,176.703133 25.367082,176.426627 25.8899523,176.182651 L25.8899523,174.474817 C25.4146157,174.669998 24.7332999,174.897709 24.0044505,174.897709 C22.9428655,174.897709 22.7210417,174.409756 22.7210417,173.23867 L22.7210417,170.912763 L26.2226879,170.912763 L26.2226879,169.26999 L22.7210417,169.26999 L22.7210417,165.870587 L20.5978717,165.870587 L20.5978717,169.26999 L18.3954789,169.26999 L18.3954789,170.912763 L20.5978717,170.912763 L20.5978717,173.319996 C20.5978717,175.857349 21.5960785,176.703133 23.4657357,176.703133 L23.4657357,176.703133 Z M32.1795194,176.703133 C33.8907311,176.703133 35.52272,176.133855 35.7920774,174.263371 L33.7481301,174.263371 C33.6372182,174.881444 32.9400579,175.06036 32.1795194,175.06036 C30.9753334,175.06036 30.3732404,174.637468 30.2781731,173.222405 L35.8237665,173.222405 L35.8237665,172.897104 C35.8237665,170.066979 34.0650212,169.107339 32.1002966,169.107339 C30.1989503,169.107339 28.1866922,170.018184 28.1866922,172.962164 C28.1866922,175.678433 29.8820593,176.703133 32.1795194,176.703133 L32.1795194,176.703133 Z M30.3098622,171.969994 C30.4683077,170.977824 31.1179344,170.636257 32.0369184,170.636257 C32.971747,170.636257 33.57384,170.994089 33.7005964,171.969994 L30.3098622,171.969994 Z M38.1687603,176.540483 L44.8551614,176.540483 L44.8551614,174.897709 L41.9556083,174.897709 L41.9556083,172.116379 C42.7003023,171.31939 43.4449963,171.18927 43.9520219,171.18927 C44.6174931,171.18927 45.0769852,171.416981 45.4572544,171.660957 L45.4572544,169.513966 C45.2354307,169.33505 44.7442496,169.107339 44.0629338,169.107339 C42.6844577,169.107339 42.0665202,170.034449 41.71794,170.847703 L41.71794,169.26999 L38.1687603,169.26999 L38.1687603,170.912763 L39.8324383,170.912763 L39.8324383,174.897709 L38.1687603,174.897709 L38.1687603,176.540483 Z M47.6913363,176.540483 L49.8145064,176.540483 L49.8145064,171.449511 C50.1313974,171.124209 50.5433558,170.929028 51.1137597,170.929028 C51.9693655,170.929028 52.2228784,171.400716 52.2228784,172.425416 L52.2228784,176.540483 L54.3460484,176.540483 L54.3460484,172.035054 C54.3460484,169.774207 53.1260178,169.107339 51.8584536,169.107339 C50.6542677,169.107339 49.9254182,169.709147 49.5768381,170.245895 L49.5768381,169.26999 L47.6913363,169.26999 L47.6913363,176.540483 Z M59.2895488,176.703133 C60.7947813,176.703133 61.5870089,175.98747 61.9514336,175.515782 L61.9514336,175.662168 C61.9514336,176.247711 62.2524801,176.703133 63.1873087,176.703133 C63.741868,176.703133 64.343961,176.540483 64.6608521,176.377832 L64.6608521,174.979034 C64.5024066,175.011565 64.2805828,175.044095 64.1062928,175.044095 C63.8369354,175.044095 63.7260235,174.962769 63.7260235,174.686263 L63.7260235,171.969994 C63.7260235,169.790472 62.2524801,169.107339 60.4303566,169.107339 C58.4497875,169.107339 56.9603996,169.904328 56.9603996,171.823608 L58.9409686,171.823608 C58.9409686,171.075414 59.495528,170.782643 60.3036001,170.782643 C61.4444079,170.782643 61.618698,171.368186 61.618698,172.14891 L61.618698,172.701923 C61.2701179,172.604332 60.557113,172.474211 59.7490408,172.474211 C58.2121192,172.474211 56.7227313,172.945899 56.7227313,174.604937 C56.7227313,176.068795 57.8952282,176.703133 59.2895488,176.703133 L59.2895488,176.703133 Z M59.7490408,175.255541 C59.2261706,175.255541 58.8459013,175.044095 58.8459013,174.523612 C58.8459013,173.921804 59.3370824,173.775418 60.2877556,173.775418 C60.7314031,173.775418 61.2542733,173.807948 61.618698,173.873009 L61.618698,174.686263 C61.3493406,174.897709 60.7630922,175.255541 59.7490408,175.255541 L59.7490408,175.255541 Z M70.9986731,176.703133 C72.0761027,176.703133 72.9000194,176.426627 73.4228896,176.182651 L73.4228896,174.474817 C72.9475531,174.669998 72.2662373,174.897709 71.5373879,174.897709 C70.4758029,174.897709 70.2539791,174.409756 70.2539791,173.23867 L70.2539791,170.912763 L73.7556252,170.912763 L73.7556252,169.26999 L70.2539791,169.26999 L70.2539791,165.870587 L68.1308091,165.870587 L68.1308091,169.26999 L65.9284163,169.26999 L65.9284163,170.912763 L68.1308091,170.912763 L68.1308091,173.319996 C68.1308091,175.857349 69.1290159,176.703133 70.9986731,176.703133 L70.9986731,176.703133 Z M76.1949661,176.540483 L82.8813673,176.540483 L82.8813673,174.897709 L80.7106636,174.897709 L80.7106636,169.26999 L76.1949661,169.26999 L76.1949661,170.912763 L78.5874936,170.912763 L78.5874936,174.897709 L76.1949661,174.897709 L76.1949661,176.540483 Z M78.3973589,168.115169 L80.9007982,168.115169 L80.9007982,165.870587 L78.3973589,165.870587 L78.3973589,168.115169 Z M88.9973646,176.703133 C90.8511772,176.703133 92.9109691,175.841084 92.9109691,172.864573 C92.9109691,169.969388 90.9620891,169.107339 89.0924319,169.107339 C87.2386192,169.107339 85.1788274,169.953123 85.1788274,172.929634 C85.1788274,175.841084 87.1435519,176.703133 88.9973646,176.703133 L88.9973646,176.703133 Z M89.0448982,174.913974 C87.9833132,174.913974 87.3812202,174.344696 87.3812202,172.897104 C87.3812202,171.449511 87.9833132,170.880233 89.0448982,170.880233 C90.1064833,170.880233 90.7085762,171.449511 90.7085762,172.897104 C90.7085762,174.344696 90.1064833,174.913974 89.0448982,174.913974 L89.0448982,174.913974 Z M95.2242737,176.540483 L97.3474438,176.540483 L97.3474438,171.449511 C97.6643348,171.124209 98.0762932,170.929028 98.6466971,170.929028 C99.5023029,170.929028 99.7558157,171.400716 99.7558157,172.425416 L99.7558157,176.540483 L101.878986,176.540483 L101.878986,172.035054 C101.878986,169.774207 100.658955,169.107339 99.391391,169.107339 C98.187205,169.107339 97.4583556,169.709147 97.1097755,170.245895 L97.1097755,169.26999 L95.2242737,169.26999 L95.2242737,176.540483 Z M106.822486,176.703133 C108.327719,176.703133 109.119946,175.98747 109.484371,175.515782 L109.484371,175.662168 C109.484371,176.247711 109.785417,176.703133 110.720246,176.703133 C111.274805,176.703133 111.876898,176.540483 112.193789,176.377832 L112.193789,174.979034 C112.035344,175.011565 111.81352,175.044095 111.63923,175.044095 C111.369873,175.044095 111.258961,174.962769 111.258961,174.686263 L111.258961,171.969994 C111.258961,169.790472 109.785417,169.107339 107.963294,169.107339 C105.982725,169.107339 104.493337,169.904328 104.493337,171.823608 L106.473906,171.823608 C106.473906,171.075414 107.028465,170.782643 107.836538,170.782643 C108.977345,170.782643 109.151635,171.368186 109.151635,172.14891 L109.151635,172.701923 C108.803055,172.604332 108.09005,172.474211 107.281978,172.474211 C105.745057,172.474211 104.255669,172.945899 104.255669,174.604937 C104.255669,176.068795 105.428166,176.703133 106.822486,176.703133 L106.822486,176.703133 Z M107.281978,175.255541 C106.759108,175.255541 106.378839,175.044095 106.378839,174.523612 C106.378839,173.921804 106.87002,173.775418 107.820693,173.775418 C108.26434,173.775418 108.787211,173.807948 109.151635,173.873009 L109.151635,174.686263 C108.882278,174.897709 108.29603,175.255541 107.281978,175.255541 L107.281978,175.255541 Z M114.221892,176.540483 L120.908293,176.540483 L120.908293,174.897709 L118.626678,174.897709 L118.626678,165.870587 L114.221892,165.870587 L114.221892,167.529626 L116.503508,167.529626 L116.503508,174.897709 L114.221892,174.897709 L114.221892,176.540483 Z M129.447787,176.540483 L131.65018,176.540483 L131.65018,173.20614 L135.690541,173.20614 L135.690541,171.31939 L131.65018,171.31939 L131.65018,169.009748 L136.356012,169.009748 L136.356012,167.122998 L129.447787,167.122998 L129.447787,176.540483 Z M142.456165,176.703133 C144.167376,176.703133 145.799365,176.133855 146.068723,174.263371 L144.024775,174.263371 C143.913863,174.881444 143.216703,175.06036 142.456165,175.06036 C141.251979,175.06036 140.649886,174.637468 140.554818,173.222405 L146.100412,173.222405 L146.100412,172.897104 C146.100412,170.066979 144.341666,169.107339 142.376942,169.107339 C140.475596,169.107339 138.463337,170.018184 138.463337,172.962164 C138.463337,175.678433 140.158704,176.703133 142.456165,176.703133 L142.456165,176.703133 Z M140.586507,171.969994 C140.744953,170.977824 141.39458,170.636257 142.313564,170.636257 C143.248392,170.636257 143.850485,170.994089 143.977242,171.969994 L140.586507,171.969994 Z M151.693539,176.703133 C153.816709,176.719399 155.607143,176.11759 155.607143,174.312166 C155.607143,172.653127 154.1336,172.262765 152.739279,172.067584 C151.075601,171.839873 150.299218,171.758548 150.299218,171.238065 C150.299218,170.815173 150.790399,170.652522 151.535093,170.652522 C152.232254,170.652522 152.929414,170.798908 153.024481,171.416981 L155.195185,171.416981 C155.084273,169.627822 153.57904,169.107339 151.725228,169.107339 C149.602058,169.107339 148.11267,169.790472 148.11267,171.400716 C148.11267,173.027224 149.617902,173.385056 150.980534,173.612767 C152.374855,173.840479 153.40475,173.889274 153.40475,174.491082 C153.40475,175.011565 152.675901,175.15795 151.851984,175.15795 C150.917156,175.15795 150.204151,174.962769 150.140773,174.263371 L147.970069,174.263371 C148.017603,176.11759 149.665436,176.686868 151.693539,176.703133 L151.693539,176.703133 Z M162.261855,176.703133 C163.339285,176.703133 164.163202,176.426627 164.686072,176.182651 L164.686072,174.474817 C164.210735,174.669998 163.529419,174.897709 162.80057,174.897709 C161.738985,174.897709 161.517161,174.409756 161.517161,173.23867 L161.517161,170.912763 L165.018807,170.912763 L165.018807,169.26999 L161.517161,169.26999 L161.517161,165.870587 L159.393991,165.870587 L159.393991,169.26999 L157.191598,169.26999 L157.191598,170.912763 L159.393991,170.912763 L159.393991,173.319996 C159.393991,175.857349 160.392198,176.703133 162.261855,176.703133 L162.261855,176.703133 Z M167.458148,176.540483 L174.144549,176.540483 L174.144549,174.897709 L171.973846,174.897709 L171.973846,169.26999 L167.458148,169.26999 L167.458148,170.912763 L169.850676,170.912763 L169.850676,174.897709 L167.458148,174.897709 L167.458148,176.540483 Z M169.660541,168.115169 L172.16398,168.115169 L172.16398,165.870587 L169.660541,165.870587 L169.660541,168.115169 Z M179.214806,176.540483 L181.38551,176.540483 L184.601954,169.26999 L182.272805,169.26999 L181.068619,172.27903 L180.33977,174.442287 L179.626765,172.262765 L178.438423,169.26999 L176.014207,169.26999 L179.214806,176.540483 Z M188.578937,176.703133 C190.084169,176.703133 190.876397,175.98747 191.240822,175.515782 L191.240822,175.662168 C191.240822,176.247711 191.541868,176.703133 192.476697,176.703133 C193.031256,176.703133 193.633349,176.540483 193.95024,176.377832 L193.95024,174.979034 C193.791795,175.011565 193.569971,175.044095 193.395681,175.044095 C193.126323,175.044095 193.015412,174.962769 193.015412,174.686263 L193.015412,171.969994 C193.015412,169.790472 191.541868,169.107339 189.719745,169.107339 C187.739176,169.107339 186.249788,169.904328 186.249788,171.823608 L188.230357,171.823608 C188.230357,171.075414 188.784916,170.782643 189.592988,170.782643 C190.733796,170.782643 190.908086,171.368186 190.908086,172.14891 L190.908086,172.701923 C190.559506,172.604332 189.846501,172.474211 189.038429,172.474211 C187.501507,172.474211 186.012119,172.945899 186.012119,174.604937 C186.012119,176.068795 187.184616,176.703133 188.578937,176.703133 L188.578937,176.703133 Z M189.038429,175.255541 C188.515559,175.255541 188.135289,175.044095 188.135289,174.523612 C188.135289,173.921804 188.62647,173.775418 189.577144,173.775418 C190.020791,173.775418 190.543661,173.807948 190.908086,173.873009 L190.908086,174.686263 C190.638729,174.897709 190.05248,175.255541 189.038429,175.255541 L189.038429,175.255541 Z M195.978343,176.540483 L202.664744,176.540483 L202.664744,174.897709 L200.383128,174.897709 L200.383128,165.870587 L195.978343,165.870587 L195.978343,167.529626 L198.259958,167.529626 L198.259958,174.897709 L195.978343,174.897709 L195.978343,176.540483 Z M215.121443,169.755724 L212.033196,168.011664 L211.060196,169.755724 L212.681382,170.690967 L211.431103,173.274897 L213.006195,174.114767 L215.121443,169.755724 Z M225.653749,174.764631 L225.653749,169.850357 C225.653749,168.915115 224.897532,168.328833 224.016719,168.328833 L221.268409,168.328833 L220.109596,170.61112 C219.924503,169.59677 219.584566,168.725109 219.013441,167.900765 L217.469318,169.105121 C218.735442,171.261723 218.472566,174.24193 217.40738,176.540483 L219.445566,176.540483 C220.372472,174.448201 220.341503,171.911587 220.15641,170.928289 C220.15641,170.928289 221.005534,170.357532 222.719626,170.357532 C223.074688,170.357532 223.692626,170.357532 223.692626,170.976345 L223.692626,173.654909 C223.692626,173.924761 223.646533,173.940287 223.460719,174.020134 L220.928472,174.749105 L221.546409,176.587799 L224.989719,175.557924 C225.406718,175.43076 225.653749,175.0818 225.653749,174.764631 L225.653749,174.764631 Z M231.583933,176.540483 L231.583933,169.613035 L229.035841,168.011664 L228.124779,169.692143 L229.607685,170.690967 L229.607685,176.540483 L231.583933,176.540483 Z M242.734177,169.818567 C242.734177,169.818567 241.962115,168.899589 240.371178,167.868974 L239.166272,169.470346 C239.166272,169.470346 240.278271,170.231108 240.325085,170.325742 L239.645209,171.658 C237.854055,169.675877 235.707118,167.837184 235.707118,167.837184 L234.317119,169.533188 C234.317119,169.533188 235.259149,170.389323 235.336932,170.516487 L234.178119,176.540483 L236.139962,176.540483 L236.989086,172.038011 C236.989086,172.038011 239.275023,174.305512 241.220302,176.873178 L242.687364,175.288071 L240.973271,173.274897 L242.734177,169.818567 Z M250.964702,168.328833 L247.474579,168.328833 C247.505548,167.520014 247.598455,167.028365 247.243393,165.189671 L245.312518,165.554157 C245.590518,166.901941 245.621487,169.07333 245.359331,170.357532 L249.08064,170.357532 C249.049672,172.006221 248.13861,174.146558 246.440362,175.018219 L247.413361,176.746753 C250.161671,175.415234 251.350733,171.451729 250.964702,168.328833 L250.964702,168.328833 Z M257.342854,175.906144 L257.342854,169.42229 L254.5787,168.011664 L253.512794,169.692143 L255.366607,170.627385 L255.366607,174.178349 L252.478577,174.606416 L252.787546,176.540483 L257.342854,175.906144 Z M264.153131,169.755724 L261.064884,168.011664 L260.091884,169.755724 L261.71379,170.690967 L260.462791,173.274897 L262.037883,174.114767 L264.153131,169.755724 Z M273.002314,174.511044 L271.87519,174.511044 L271.87519,169.564979 C271.87519,168.851533 271.643283,168.328833 270.825128,168.328833 L268.138036,168.328833 C267.736161,168.328833 267.196005,168.011664 267.196005,168.011664 L266.501006,169.913939 C266.501006,169.913939 267.180161,170.357532 267.674223,170.357532 L269.898222,170.357532 L269.898222,174.511044 L266.253975,174.511044 L265.713099,176.540483 L272.462159,176.540483 L273.002314,174.511044 Z M286.113681,168.328833 L282.623558,168.328833 C282.654527,167.520014 282.746714,167.028365 282.391652,165.189671 L280.461497,165.554157 C280.739497,166.901941 280.770466,169.07333 280.50759,170.357532 L284.22962,170.357532 C284.198651,172.006221 283.287589,174.146558 281.588621,175.018219 L282.56162,176.746753 C285.31065,175.415234 286.499712,171.451729 286.113681,168.328833 L286.113681,168.328833 Z M295.827112,174.511044 L294.699988,174.511044 L294.699988,169.564979 C294.699988,168.851533 294.468081,168.328833 293.649926,168.328833 L290.962834,168.328833 C290.560959,168.328833 290.020804,168.011664 290.020804,168.011664 L289.325804,169.913939 C289.325804,169.913939 290.004959,170.357532 290.499741,170.357532 L292.72302,170.357532 L292.72302,174.511044 L289.078773,174.511044 L288.537898,176.540483 L295.286957,176.540483 L295.827112,174.511044 Z M301.618296,169.755724 L298.530049,168.011664 L297.557049,169.755724 L299.178235,170.690967 L297.927235,173.274897 L299.502328,174.114767 L301.618296,169.755724 Z M312.644664,169.454081 C312.135478,169.010488 309.061634,167.979873 308.938479,168.248986 L308.120324,170.072154 C308.444417,170.040363 309.834417,170.246634 310.621603,170.659176 C310.621603,170.659176 310.235572,174.257456 307.255356,174.638207 L306.745449,169.358708 L304.79945,168.011664 L303.904233,169.692143 L304.969419,170.437379 L305.556387,176.857652 C310.621603,176.461375 312.21254,174.03566 312.644664,169.454081 L312.644664,169.454081 Z M323.45497,168.328833 L316.613724,168.328833 C316.103818,168.328833 315.609756,168.011664 315.609756,168.011664 L314.899632,169.913939 C314.899632,169.913939 315.547818,170.357532 316.072849,170.357532 L316.613724,176.667646 C321.833064,176.175997 323.45497,172.608768 323.45497,168.328833 L323.45497,168.328833 Z M321.354847,170.357532 C321.354847,171.673526 320.180909,173.813863 318.342941,174.225665 L317.987879,170.357532 L321.354847,170.357532 Z M332.010308,175.208964 L332.010308,170.880972 C332.010308,170.214843 331.979339,169.803041 331.269215,169.549453 L328.752092,168.248986 C328.103186,167.916291 327.763248,167.8845 327.439155,168.455257 L326.080124,170.849182 C325.617031,171.658 325.771156,172.402497 326.435186,172.751457 L328.304123,173.750281 L329.138123,172.133384 L328.180248,171.609944 C328.010279,171.515311 327.918092,171.467255 328.041248,171.261723 L328.489217,170.484696 C328.597248,170.29469 328.597248,170.262899 328.875247,170.421114 L329.833123,170.944554 C329.972123,171.039187 330.03334,170.991871 330.03334,171.261723 L330.03334,174.257456 C330.03334,174.431936 329.879216,174.495518 329.833123,174.495518 C329.833123,174.495518 325.555093,175.0818 325.555093,175.098065 L325.802124,176.984076 L330.929278,176.382268 C331.578184,176.302421 332.010308,175.747929 332.010308,175.208964 L332.010308,175.208964 Z" id="Fill-8"></path>
                        <path d="M0.862761318,150.277546 L9.28198037,150.277546 L9.28198037,141.634871 L12.6597509,141.634871 C19.4152919,141.634871 25.8179316,138.788481 25.8179316,130.766837 C25.8179316,122.745193 19.4152919,119.898803 12.6597509,119.898803 L0.862761318,119.898803 L0.862761318,150.277546 Z M9.28198037,126.937149 L12.6597509,126.937149 C15.5333765,126.937149 17.2474691,127.868695 17.2474691,130.766837 C17.2474691,133.664979 15.5333765,134.596525 12.6597509,134.596525 L9.28198037,134.596525 L9.28198037,126.937149 Z M43.1597943,150.795071 C49.1591181,150.795071 54.3013956,148.93198 55.1584418,143.03219 L47.3946111,143.03219 C46.9408807,144.429508 45.1259592,144.843529 43.1093798,144.843529 C39.8828528,144.843529 37.7654444,143.808478 37.6142009,139.771779 L55.3600998,139.771779 L55.3600998,138.529718 C55.3600998,129.628281 49.8145064,126.316118 42.9077219,126.316118 C36.3538388,126.316118 29.6487122,129.317766 29.6487122,138.788481 C29.6487122,147.275898 34.9926477,150.795071 43.1597943,150.795071 L43.1597943,150.795071 Z M37.6142009,135.424566 C38.1687603,132.681681 40.1853397,131.85364 42.6556495,131.85364 C45.1259592,131.85364 47.1425386,132.681681 47.697098,135.424566 L37.6142009,135.424566 Z M60.6032062,150.277546 L82.8359943,150.277546 L82.8359943,144.170746 L73.8118014,144.170746 L73.8118014,136.666627 C75.0721635,135.424566 77.0383284,134.130752 79.6094672,134.130752 C81.7772901,134.130752 83.4409681,134.90704 85.1046461,136.045596 L85.1046461,127.920447 C84.0963564,127.040654 82.3822639,126.316118 80.31527,126.316118 C76.1812822,126.316118 74.2655318,129.00725 73.0051696,131.801888 L73.0051696,126.833644 L60.6032062,126.833644 L60.6032062,132.940444 L65.6950692,132.940444 L65.6950692,144.170746 L60.6032062,144.170746 L60.6032062,150.277546 Z M91.0024207,150.277546 L114.949301,150.277546 L114.949301,144.170746 L106.73174,144.170746 L106.73174,134.079 L114.949301,134.079 L114.949301,127.9722 L106.73174,127.9722 L106.73174,127.920447 C106.73174,122.745193 111.470702,121.813647 114.949301,121.813647 L114.949301,115.655094 C107.437543,115.655094 98.6654224,118.035711 98.6654224,127.920447 L98.6654224,127.9722 L91.0024207,127.9722 L91.0024207,134.079 L98.6654224,134.079 L98.6654224,144.170746 L91.0024207,144.170746 L91.0024207,150.277546 Z M133.047381,150.795071 C139.399606,150.795071 146.306391,147.948681 146.306391,138.374461 C146.306391,129.059003 139.752508,126.316118 133.450697,126.316118 C127.098472,126.316118 120.191687,129.110756 120.191687,138.684976 C120.191687,148.000434 126.745571,150.795071 133.047381,150.795071 L133.047381,150.795071 Z M133.249039,144.015488 C130.274585,144.015488 128.610907,142.618169 128.610907,138.529718 C128.610907,134.441268 130.274585,133.095701 133.249039,133.095701 C136.223494,133.095701 137.887172,134.441268 137.887172,138.529718 C137.887172,142.618169 136.223494,144.015488 133.249039,144.015488 L133.249039,144.015488 Z M151.347839,150.277546 L173.580627,150.277546 L173.580627,144.170746 L164.556435,144.170746 L164.556435,136.666627 C165.816797,135.424566 167.782962,134.130752 170.3541,134.130752 C172.521923,134.130752 174.185601,134.90704 175.849279,136.045596 L175.849279,127.920447 C174.84099,127.040654 173.126897,126.316118 171.059903,126.316118 C166.925915,126.316118 165.010165,129.00725 163.749803,131.801888 L163.749803,126.833644 L151.347839,126.833644 L151.347839,132.940444 L156.439702,132.940444 L156.439702,144.170746 L151.347839,144.170746 L151.347839,150.277546 Z M202.064091,150.277546 L208.819632,150.277546 L208.819632,134.441268 C208.819632,130.715084 208.164244,126.316118 203.62694,126.316118 C200.24917,126.316118 198.635906,128.748488 198.030933,129.680034 C197.375544,127.765189 195.963939,126.316118 193.443214,126.316118 C190.015029,126.316118 188.351351,128.80024 187.645549,130.042301 L187.645549,126.833644 L181.696639,126.833644 L181.696639,150.277546 L188.45218,150.277546 L188.45218,133.768484 C188.905911,133.199206 189.662128,132.526423 190.569589,132.526423 C191.47705,132.526423 191.880365,133.302712 191.880365,134.90704 L191.880365,150.277546 L198.635906,150.277546 L198.635906,133.768484 C199.089637,133.199206 199.845854,132.526423 200.753315,132.526423 C201.660776,132.526423 202.064091,133.302712 202.064091,134.90704 L202.064091,150.277546 Z M222.2803,150.795071 C227.523407,150.795071 229.993716,148.052186 230.800348,147.017135 L230.800348,147.379403 C230.800348,149.397752 232.010296,150.795071 235.236823,150.795071 C237.555889,150.795071 239.421225,150.070535 240.227857,149.656515 L240.227857,144.481261 C239.975784,144.533013 239.219567,144.636518 238.765837,144.636518 C237.908791,144.636518 237.606304,144.274251 237.606304,143.44621 L237.606304,135.631576 C237.606304,128.230962 232.413612,126.316118 226.464702,126.316118 C219.104187,126.316118 214.566884,129.266013 214.566884,135.217556 L222.179471,135.217556 C222.179471,133.250959 223.74232,132.629929 225.859729,132.629929 C228.985427,132.629929 229.539986,133.975495 229.539986,136.045596 L229.539986,138.115698 C228.531696,137.54642 226.162215,137.080647 223.691906,137.080647 C218.448799,137.080647 213.760252,138.684976 213.760252,143.911983 C213.760252,148.776722 217.793411,150.795071 222.2803,150.795071 L222.2803,150.795071 Z M224.599366,145.619817 C222.885274,145.619817 221.82657,145.050539 221.82657,143.549715 C221.82657,141.997139 223.28859,141.531366 225.658071,141.531366 C227.271334,141.531366 228.783769,141.686624 229.539986,141.841881 L229.539986,143.963735 C229.035841,144.429508 227.170505,145.619817 224.599366,145.619817 L224.599366,145.619817 Z M246.377704,150.277546 L254.494436,150.277546 L254.494436,134.648278 C255.351482,133.87199 256.359772,133.354464 258.02345,133.354464 C260.140858,133.354464 260.997905,134.389515 260.997905,137.1324 L260.997905,150.277546 L269.114637,150.277546 L269.114637,135.735081 C269.114637,128.696735 265.232721,126.316118 260.997905,126.316118 C257.01516,126.316118 254.796923,128.38622 253.687804,129.990549 L253.687804,126.833644 L246.377704,126.833644 L246.377704,150.277546 Z M287.91852,150.795071 C294.270745,150.795071 300.572555,148.155691 301.026286,139.97879 L292.707896,139.97879 C292.506238,143.083942 290.84256,144.170746 288.069763,144.170746 C284.944065,144.170746 283.229972,142.773427 283.229972,138.529718 C283.229972,134.28601 284.944065,132.940444 288.069763,132.940444 C290.741731,132.940444 292.506238,133.923742 292.707896,137.1324 L301.026286,137.1324 C300.572555,128.955498 294.522817,126.316118 287.968934,126.316118 C281.415051,126.316118 274.961997,128.955498 274.961997,138.529718 C274.961997,148.103939 281.465465,150.795071 287.91852,150.795071 L287.91852,150.795071 Z M318.923428,150.795071 C324.922752,150.795071 330.065029,148.93198 330.922076,143.03219 L323.158245,143.03219 C322.704514,144.429508 320.889593,144.843529 318.873014,144.843529 C315.646486,144.843529 313.529078,143.808478 313.377835,139.771779 L331.123733,139.771779 L331.123733,138.529718 C331.123733,129.628281 325.57814,126.316118 318.671356,126.316118 C312.117473,126.316118 305.412346,129.317766 305.412346,138.788481 C305.412346,147.275898 310.756281,150.795071 318.923428,150.795071 L318.923428,150.795071 Z M313.377835,135.424566 C313.932394,132.681681 315.948973,131.85364 318.419283,131.85364 C320.889593,131.85364 322.906172,132.681681 323.460732,135.424566 L313.377835,135.424566 Z" id="Fill-10"></path>
                        <path d="M37.0063463,93.723106 C37.708548,94.443945 38.2703094,94.443945 38.9725112,93.723106 L40.5641685,92.1372602 C41.2663703,91.4164212 41.2663703,90.83975 40.5641685,90.118911 L38.9725112,88.4850093 C38.2703094,87.7641703 37.708548,87.7641703 37.0063463,88.4850093 L35.4615024,90.118911 C34.7593006,90.83975 34.7593006,91.4164212 35.4615024,92.1372602 L37.0063463,93.723106 Z M37.9894287,105.640977 C46.8371709,105.640977 50.6290604,99.7300976 50.6290604,91.0319738 C50.6290604,81.9974584 46.7903575,76.4710261 37.9894287,76.4710261 C29.1416866,76.4710261 25.3497971,82.3338499 25.3497971,91.0319738 C25.3497971,100.066489 29.1885,105.640977 37.9894287,105.640977 L37.9894287,105.640977 Z M37.9894287,98.9131467 C34.0570989,98.9131467 33.3080837,96.4142382 33.3080837,91.0319738 C33.3080837,85.6497093 34.0570989,83.1988567 37.9894287,83.1988567 C41.9217586,83.1988567 42.6707738,85.6497093 42.6707738,91.0319738 C42.6707738,96.4142382 41.9217586,98.9131467 37.9894287,98.9131467 L37.9894287,98.9131467 Z M56.526835,105.160418 L66.2640327,105.160418 L66.2640327,96.606462 L56.526835,96.606462 L56.526835,105.160418 Z M56.526835,91.9450365 L66.2640327,91.9450365 L66.2640327,83.3910804 L56.526835,83.3910804 L56.526835,91.9450365 Z M85.5979879,105.640977 C94.5393569,105.640977 97.3949774,100.547048 97.3949774,95.9336789 C97.3949774,91.0800297 94.2116628,86.9472195 87.8450335,86.9472195 C84.5680919,86.9472195 81.9465387,88.0525059 80.1208141,89.7344636 C80.3080679,84.7366466 81.7124714,82.3819059 85.6916148,82.3819059 C88.4067949,82.3819059 89.8580119,83.4871923 90.2325195,85.0730381 L97.2545371,85.0730381 C97.2545371,82.5741296 95.2415587,76.4710261 85.6448013,76.4710261 C76.9843129,76.4710261 72.6774755,81.4207872 72.6774755,91.1761416 C72.6774755,101.075664 77.1247533,105.640977 85.5979879,105.640977 L85.5979879,105.640977 Z M85.3639206,99.4898179 C82.6487405,99.4898179 80.8698293,98.6728671 80.3080679,94.2997772 C81.7124714,93.3386585 83.5850095,92.6658755 85.7852417,92.6658755 C88.0791007,92.6658755 90.0920791,93.3867145 90.0920791,95.9817348 C90.0920791,98.2403637 88.5940487,99.4898179 85.3639206,99.4898179 L85.3639206,99.4898179 Z M141.443554,80.2674448 L121.45421,80.2674448 C120.330687,80.2674448 118.177269,78.8257668 118.177269,78.8257668 L115.415275,86.1783246 C115.415275,86.1783246 117.52188,87.5719466 118.973097,87.9563941 L120.471128,105.592921 C136.715395,104.055132 141.443554,93.5308823 141.443554,80.2674448 L141.443554,80.2674448 Z M133.39164,88.0525059 C132.923506,90.9839178 130.582833,94.8283925 127.165451,96.2220145 L126.416436,88.0525059 L133.39164,88.0525059 Z M160.683882,103.238181 L160.683882,83.679416 L151.602072,79.0179906 L147.482489,85.5055415 L153.100103,88.3408415 L153.100103,96.558406 L144.954562,97.7598044 L146.171712,105.25653 L160.683882,103.238181 Z M191.392785,99.1534264 L191.392785,85.5535974 C191.392785,82.2377381 188.677605,80.2674448 185.775171,80.2674448 L177.536004,80.2674448 L175.335772,84.6405347 C174.727197,82.7663533 173.744114,80.844116 172.199271,78.6335431 L166.300776,83.2469127 C170.045852,89.6383517 169.390464,97.4234128 165.832641,105.160418 L173.837741,105.160418 C176.599735,99.0092586 176.693362,92.4255958 176.318854,89.1577924 C176.599735,88.4369534 176.786989,88.0525059 177.910512,88.0525059 L182.217349,88.0525059 C182.732297,88.0525059 183.809006,88.1966737 183.809006,89.1097365 L183.809006,96.0778467 C183.809006,96.0778467 184.979343,95.7414552 177.723258,97.7598044 L179.174475,105.160418 L188.771232,102.42123 C190.316076,101.988726 191.392785,100.595104 191.392785,99.1534264 L191.392785,99.1534264 Z M215.080391,105.160418 L215.080391,83.4871923 C215.080391,81.6130109 213.207853,80.2674448 211.850263,80.2674448 L201.785371,80.2674448 C200.989543,80.2674448 199.72558,79.5466058 198.555243,78.9218787 L195.840063,86.2263805 C195.840063,86.2263805 199.023378,88.0525059 200.287341,88.0525059 L206.981664,88.0525059 C207.496612,88.0525059 207.543426,88.0525059 207.543426,88.7733449 L207.543426,105.160418 L215.080391,105.160418 Z M232.260208,105.160418 L232.260208,84.3041432 L223.786973,78.9699346 L220.229151,85.5055415 L224.676429,88.4850093 L224.676429,105.160418 L232.260208,105.160418 Z M257.211777,100.402881 L257.211777,88.4369534 C257.211777,86.5147161 257.11815,84.6885906 254.496597,83.727472 L247.615019,80.171333 C245.648854,79.1621584 243.916757,78.7777109 242.559167,81.1805075 L238.814091,87.8122263 C236.473418,91.9450365 239.141785,94.2997772 242.278286,95.885623 C242.278286,95.885623 243.261368,96.3181264 244.384891,96.9428535 L247.568206,90.6475263 L246.163802,89.8786314 L247.146885,88.0525059 C250.002505,89.5902958 249.581184,89.3500161 249.581184,89.398072 L249.581184,97.9039722 C247.193698,98.4325874 237.17562,99.8262095 237.17562,99.9223213 L238.065075,106.505984 L253.279447,104.727915 C255.620119,104.439579 257.211777,102.469286 257.211777,100.402881 L257.211777,100.402881 Z M280.899383,105.160418 L280.899383,83.4871923 C280.899383,81.6130109 279.026845,80.2674448 277.669255,80.2674448 L267.604363,80.2674448 C266.808534,80.2674448 265.544571,79.5466058 264.374235,78.9218787 L261.659055,86.2263805 C261.659055,86.2263805 264.842369,88.0525059 266.106332,88.0525059 L272.800656,88.0525059 C273.315604,88.0525059 273.362417,88.0525059 273.362417,88.7733449 L273.362417,105.160418 L280.899383,105.160418 Z M305.850232,100.402881 L305.850232,88.4369534 C305.850232,86.5147161 305.756605,84.6885906 303.135052,83.727472 L296.253474,80.171333 C294.287309,79.1621584 292.555212,78.7777109 291.197622,81.1805075 L287.452546,87.8122263 C285.111873,91.9450365 287.78024,94.2997772 290.916741,95.885623 C290.916741,95.885623 291.899823,96.3181264 293.023346,96.9428535 L296.206661,90.6475263 L294.802257,89.8786314 L295.78534,88.0525059 C298.64096,89.5902958 298.219639,89.3500161 298.219639,89.398072 L298.219639,97.9039722 C295.832153,98.4325874 285.814075,99.8262095 285.814075,99.9223213 L286.70353,106.505984 L301.917902,104.727915 C304.258574,104.439579 305.850232,102.469286 305.850232,100.402881 L305.850232,100.402881 Z" id="Fill-12"></path>
                        <path d="M38.742045,19.9609458 C42.8256183,19.9609458 45.9513164,17.1145559 45.9513164,13.2072389 C45.9513164,10.0762101 43.1533124,8.21311851 41.136733,8.05786089 C42.9516545,7.43683037 44.665747,5.85837781 44.665747,4.02116253 C44.665747,1.6922981 42.90124,0.320855706 40.6325882,0.320855706 C38.4395581,0.320855706 36.4733931,1.45941165 34.8097151,3.684771 C34.6332644,3.91765745 34.7340934,4.17642016 34.9105441,4.30580152 L35.4903107,4.82332695 C35.6667614,4.95270831 35.9188338,4.95270831 36.0952845,4.71982186 C36.9271235,3.73652354 37.9354132,2.83085404 39.2209826,2.83085404 C40.4561375,2.83085404 41.4140127,3.73652354 41.4140127,5.08208966 C41.4140127,6.71229477 39.8511637,7.7732219 38.2631074,8.08373716 L37.6077191,8.21311851 C37.3808539,8.23899479 37.2548177,8.36837614 37.2548177,8.57538632 L37.2548177,9.61043718 C37.2548177,9.81744735 37.4564756,9.94682871 37.6581335,9.94682871 C40.0024071,9.89507616 42.5483386,11.7064152 42.5483386,14.7856915 C42.5483386,16.7264118 41.2123548,18.0978542 39.2461898,18.0978542 C36.9019163,18.0978542 37.1035742,15.8466186 37.5573046,14.7598152 C37.6329263,14.5786813 37.6581335,14.4234237 37.6581335,14.2164135 L37.6581335,13.7506406 C37.6581335,13.5695067 37.4564756,13.4401254 37.2548177,13.5177542 L34.0282906,15.1738355 C33.549353,15.3808457 33.2720733,15.7948661 33.2720733,16.4158966 C33.2720733,17.8132152 34.8853368,19.9609458 38.742045,19.9609458 L38.742045,19.9609458 Z M48.2199682,10.2055914 C48.2199682,15.6396084 50.9423504,20.0385746 54.8998875,20.0385746 C58.8574246,20.0385746 61.5798068,15.6396084 61.5798068,10.2055914 C61.5798068,4.7715744 58.8574246,0.346731978 54.8998875,0.346731978 C50.9423504,0.346731978 48.2199682,4.7715744 48.2199682,10.2055914 L48.2199682,10.2055914 Z M50.6398635,11.3958999 C49.6819883,7.69559308 50.6146563,4.20229643 53.185795,3.45188456 C55.782141,2.75322523 58.2020363,5.34085238 59.1851188,9.01528293 C60.142994,12.7155898 59.210326,16.1830101 56.6391873,16.933422 C54.0428413,17.6320813 51.622946,15.0703305 50.6398635,11.3958999 L50.6398635,11.3958999 Z M66.1163903,15.0962067 C65.6374527,15.5361033 64.9820644,16.2088864 64.5787485,16.6746593 C64.2258471,17.0628034 64.2510543,17.5803288 64.6039557,17.9684729 C65.0072716,18.4342458 65.6878672,19.1070288 66.1163903,19.5210492 C66.4944989,19.883317 66.9986438,19.883317 67.3767524,19.5210492 C67.8304828,19.1070288 68.4858711,18.460122 68.9143942,17.9684729 C69.2672956,17.5803288 69.2420884,17.0628034 68.889187,16.7005356 C68.4606639,16.2347627 67.8304828,15.5878559 67.3515452,15.122083 C66.9986438,14.7598152 66.4944989,14.7339389 66.1163903,15.0962067 L66.1163903,15.0962067 Z M72.3929937,3.3225032 C72.216543,3.42600829 72.1409213,3.55538964 72.1913358,3.76239982 L72.2921648,4.25404897 C72.3425792,4.48693542 72.4938227,4.56456423 72.7206879,4.53868796 L73.8045993,4.43518288 C74.5356094,4.35755406 75.0397542,4.69394559 75.0397542,5.49611001 L75.0649615,16.1830101 C75.0649615,17.5803288 74.182708,18.071978 72.8719313,18.2789881 C72.6450662,18.3048644 72.5442372,18.460122 72.5694444,18.6671322 L72.6198589,19.2105339 C72.6450662,19.3916678 72.7711024,19.5210492 72.9727603,19.5210492 L80.1820317,19.5210492 C80.3836897,19.5210492 80.5097259,19.3916678 80.5349331,19.2105339 L80.5853476,18.6671322 C80.6105548,18.460122 80.5097259,18.3048644 80.2828607,18.2789881 C78.9720841,18.071978 78.1150378,17.5803288 78.1150378,16.1830101 L78.1402451,1.20064894 C78.1402451,1.01951504 78.0394161,0.890133679 77.8377581,0.864257408 L76.4009453,0.864257408 C76.1992874,0.864257408 76.0480439,0.916009951 75.8715932,1.04539131 C74.7120601,1.95106081 73.8298066,2.54621506 72.3929937,3.3225032 L72.3929937,3.3225032 Z M82.8792067,10.2055914 C82.8792067,15.6396084 85.6015889,20.0385746 89.559126,20.0385746 C93.5166631,20.0385746 96.2390453,15.6396084 96.2390453,10.2055914 C96.2390453,4.7715744 93.5166631,0.346731978 89.559126,0.346731978 C85.6015889,0.346731978 82.8792067,4.7715744 82.8792067,10.2055914 L82.8792067,10.2055914 Z M85.299102,11.3958999 C84.3412268,7.69559308 85.2738947,4.20229643 87.8450335,3.45188456 C90.4413795,2.75322523 92.8612748,5.34085238 93.8443572,9.01528293 C94.8022325,12.7155898 93.8695645,16.1830101 91.2984257,16.933422 C88.7020797,17.6320813 86.2821844,15.0703305 85.299102,11.3958999 L85.299102,11.3958999 Z M113.631323,14.164661 C114.009431,14.164661 114.261504,13.9576508 114.362333,13.6730118 L114.84127,12.2498169 C114.967306,11.9134253 114.765648,11.6546626 114.437954,11.6546626 L99.7673391,11.6546626 C99.3892304,11.6546626 99.137158,11.8616728 99.036329,12.1463118 L98.5573914,13.5695067 C98.4313552,13.9058982 98.6330131,14.164661 98.9607073,14.164661 L113.631323,14.164661 Z M116.656192,19.2105339 C116.656192,19.3916678 116.757021,19.5210492 116.958679,19.5210492 L126.159322,19.5210492 C126.36098,19.5210492 126.512224,19.4434203 126.63826,19.2622864 L128.932119,15.8466186 C129.032948,15.691361 129.058155,15.5619796 129.058155,15.3549694 L129.058155,14.8115677 C129.058155,14.6304338 128.957326,14.5010525 128.755668,14.5010525 L128.049865,14.5010525 C127.848207,14.5010525 127.722171,14.5786813 127.54572,14.7339389 C126.537431,15.6137322 125.957664,16.0795051 124.596473,16.0795051 L119.78189,16.0795051 C120.538107,15.0962067 121.97492,13.7247643 124.722509,11.8357965 C127.218026,10.1279626 128.932119,8.23899479 128.932119,5.44435746 C128.932119,2.31332861 126.562638,0.346731978 123.537769,0.346731978 C120.613729,0.346731978 118.168626,2.72734896 116.883057,5.13384221 C116.757021,5.36672865 116.832642,5.57373882 117.009093,5.72899645 L117.58886,6.16889307 C117.790518,6.32415069 118.067797,6.27239815 118.219041,6.03951171 C119.176916,4.64219305 120.286035,3.24487439 122.403443,3.3225032 C123.966292,3.37425574 125.226654,4.56456423 125.277069,6.22064561 C125.327483,7.61796427 124.596473,8.83414903 123.386525,10.0244575 C120.286035,13.1037338 118.143419,15.406722 116.807435,17.9684729 C116.731813,18.1237305 116.656192,18.3048644 116.656192,18.5377508 L116.656192,19.2105339 Z M133.721495,15.0962067 C133.242557,15.5361033 132.587169,16.2088864 132.183853,16.6746593 C131.830952,17.0628034 131.856159,17.5803288 132.20906,17.9684729 C132.612376,18.4342458 133.292972,19.1070288 133.721495,19.5210492 C134.099604,19.883317 134.603748,19.883317 134.981857,19.5210492 C135.435587,19.1070288 136.090976,18.460122 136.519499,17.9684729 C136.8724,17.5803288 136.847193,17.0628034 136.494292,16.7005356 C136.065768,16.2347627 135.435587,15.5878559 134.95665,15.122083 C134.603748,14.7598152 134.099604,14.7339389 133.721495,15.0962067 L133.721495,15.0962067 Z M139.998098,3.3225032 C139.821648,3.42600829 139.746026,3.55538964 139.79644,3.76239982 L139.897269,4.25404897 C139.947684,4.48693542 140.098927,4.56456423 140.325793,4.53868796 L141.409704,4.43518288 C142.140714,4.35755406 142.644859,4.69394559 142.644859,5.49611001 L142.670066,16.1830101 C142.670066,17.5803288 141.787813,18.071978 140.477036,18.2789881 C140.250171,18.3048644 140.149342,18.460122 140.174549,18.6671322 L140.224964,19.2105339 C140.250171,19.3916678 140.376207,19.5210492 140.577865,19.5210492 L147.787136,19.5210492 C147.988794,19.5210492 148.11483,19.3916678 148.140038,19.2105339 L148.190452,18.6671322 C148.215659,18.460122 148.11483,18.3048644 147.887965,18.2789881 C146.577189,18.071978 145.720142,17.5803288 145.720142,16.1830101 L145.74535,1.20064894 C145.74535,1.01951504 145.644521,0.890133679 145.442863,0.864257408 L144.00605,0.864257408 C143.804392,0.864257408 143.653149,0.916009951 143.476698,1.04539131 C142.317165,1.95106081 141.434911,2.54621506 139.998098,3.3225032 L139.998098,3.3225032 Z M150.963249,3.3225032 C150.786798,3.42600829 150.711176,3.55538964 150.761591,3.76239982 L150.86242,4.25404897 C150.912834,4.48693542 151.064078,4.56456423 151.290943,4.53868796 L152.374855,4.43518288 C153.105865,4.35755406 153.610009,4.69394559 153.610009,5.49611001 L153.635217,16.1830101 C153.635217,17.5803288 152.752963,18.071978 151.442187,18.2789881 C151.215321,18.3048644 151.114492,18.460122 151.1397,18.6671322 L151.190114,19.2105339 C151.215321,19.3916678 151.341358,19.5210492 151.543015,19.5210492 L158.752287,19.5210492 C158.953945,19.5210492 159.079981,19.3916678 159.105188,19.2105339 L159.155603,18.6671322 C159.18081,18.460122 159.079981,18.3048644 158.853116,18.2789881 C157.542339,18.071978 156.685293,17.5803288 156.685293,16.1830101 L156.7105,1.20064894 C156.7105,1.01951504 156.609671,0.890133679 156.408013,0.864257408 L154.9712,0.864257408 C154.769543,0.864257408 154.618299,0.916009951 154.441848,1.04539131 C153.282315,1.95106081 152.400062,2.54621506 150.963249,3.3225032 L150.963249,3.3225032 Z M163.969466,15.0962067 C163.490528,15.5361033 162.83514,16.2088864 162.431824,16.6746593 C162.078923,17.0628034 162.10413,17.5803288 162.457031,17.9684729 C162.860347,18.4342458 163.540943,19.1070288 163.969466,19.5210492 C164.347575,19.883317 164.851719,19.883317 165.229828,19.5210492 C165.683558,19.1070288 166.338947,18.460122 166.76747,17.9684729 C167.120371,17.5803288 167.095164,17.0628034 166.742263,16.7005356 C166.313739,16.2347627 165.683558,15.5878559 165.204621,15.122083 C164.851719,14.7598152 164.347575,14.7339389 163.969466,15.0962067 L163.969466,15.0962067 Z M170.246069,3.3225032 C170.069619,3.42600829 169.993997,3.55538964 170.044411,3.76239982 L170.14524,4.25404897 C170.195655,4.48693542 170.346898,4.56456423 170.573763,4.53868796 L171.657675,4.43518288 C172.388685,4.35755406 172.89283,4.69394559 172.89283,5.49611001 L172.918037,16.1830101 C172.918037,17.5803288 172.035784,18.071978 170.725007,18.2789881 C170.498142,18.3048644 170.397313,18.460122 170.42252,18.6671322 L170.472935,19.2105339 C170.498142,19.3916678 170.624178,19.5210492 170.825836,19.5210492 L178.035107,19.5210492 C178.236765,19.5210492 178.362801,19.3916678 178.388009,19.2105339 L178.438423,18.6671322 C178.46363,18.460122 178.362801,18.3048644 178.135936,18.2789881 C176.82516,18.071978 175.968113,17.5803288 175.968113,16.1830101 L175.993321,1.20064894 C175.993321,1.01951504 175.892492,0.890133679 175.690834,0.864257408 L174.254021,0.864257408 C174.052363,0.864257408 173.90112,0.916009951 173.724669,1.04539131 C172.565136,1.95106081 171.682882,2.54621506 170.246069,3.3225032 L170.246069,3.3225032 Z M185.87456,19.1587814 C185.496451,13.310744 190.638729,5.39260492 191.798262,3.19312184 C191.924298,2.9602354 191.949505,2.80497777 191.949505,2.57209133 L191.949505,1.20064894 C191.949505,1.01951504 191.798262,0.864257408 191.596604,0.864257408 L183.429457,0.864257408 C182.622825,0.864257408 181.690158,0.73487605 181.160805,0.476113335 C180.93394,0.372608249 180.606246,0.424360792 180.606246,0.708999779 L180.606246,5.28909983 C180.606246,5.52198628 180.681868,5.70312018 180.833111,5.78074899 L181.337256,6.03951171 C181.564121,6.14301679 181.765779,6.06538798 181.866608,5.88425408 C182.521997,4.71982186 183.40425,4.12466762 184.715027,4.12466762 L189.655646,4.07291507 C188.06759,6.97105748 184.059638,10.6713643 182.118681,19.1587814 C182.068266,19.3657915 182.244717,19.5210492 182.446375,19.5210492 L185.546866,19.5210492 C185.748524,19.5210492 185.899767,19.3657915 185.87456,19.1587814 L185.87456,19.1587814 Z M204.417728,8.8666792 C202.37306,8.8666792 200.728108,10.5094528 200.728108,12.5854691 C200.728108,14.6614854 202.37306,16.304259 204.417728,16.304259 C206.462395,16.304259 208.106628,14.6614854 208.106628,12.5854691 C208.106628,10.5094528 206.462395,8.8666792 204.417728,8.8666792 L204.417728,8.8666792 Z M220.994731,2.48706929 L219.957633,2.48706929 C219.179809,2.48706929 218.726079,2.27636251 218.596442,1.85494895 C218.422872,1.27827775 218.314841,0.989942155 218.272348,0.989942155 C217.342561,0.989942155 216.878748,1.96584725 216.878748,3.91765745 C216.878748,5.69203035 217.786209,6.5792168 219.60113,6.5792168 L219.990042,6.5792168 C220.57341,6.5792168 220.983207,6.64575578 221.221596,6.77883375 C221.545689,6.9784507 221.707736,7.34441511 221.707736,7.87672698 C221.707736,8.98571005 221.069632,10.2277711 219.795586,11.6029101 L220.541,12.3015694 C222.615196,10.5050168 223.652294,8.36467953 223.652294,5.88055747 C223.652294,3.61823202 222.76572,2.48706929 220.994731,2.48706929 L220.994731,2.48706929 Z M241.671152,8.97462022 L241.606333,5.91382696 C241.584727,4.78266424 241.228224,3.90656761 240.536826,3.2855371 C239.931852,2.75322523 239.240453,2.48706929 238.46263,2.48706929 L231.85113,2.48706929 C231.073307,2.48706929 230.59797,2.23200319 230.42512,1.72187098 C230.338695,1.23391843 230.252271,0.989942155 230.165846,0.989942155 C229.236779,0.989942155 228.772245,1.96584725 228.772245,3.91765745 C228.772245,5.69203035 229.647297,6.5792168 231.3974,6.5792168 L231.721493,6.5792168 C231.440612,6.73447443 231.116519,7.07825918 230.749213,7.61057105 C230.230664,8.38685919 229.895768,8.98571005 229.744525,9.40712361 C229.550069,9.93943548 229.452841,10.5493762 229.452841,11.2369457 C229.452841,11.7027186 229.528463,12.4124677 229.679706,13.3661932 L230.003799,15.3956322 L227.832375,15.3956322 L226.957324,19.5210492 L231.332581,19.5210492 L232.466907,16.127561 C232.315663,15.7948661 232.196829,15.4843508 232.110405,15.1960152 C231.894342,14.552805 231.753902,14.0426728 231.689083,13.6656186 C231.300172,12.002144 231.105716,10.7046338 231.105716,9.77308802 C231.105716,9.17423717 231.343384,8.53694157 231.818721,7.8604619 C232.294057,7.18398223 232.812606,6.75665409 233.374368,6.5792168 L237.555169,6.5792168 C237.879262,6.5792168 238.208397,6.64058053 238.544013,6.76182934 C238.878909,6.8845568 239.121619,7.04498969 239.272862,7.24460664 C239.661774,7.77691851 239.85623,9.83962701 239.85623,13.4327321 L239.85623,14.8633203 L239.629365,18.0571915 C239.586152,18.6338627 239.564546,19.2659831 239.564546,19.9535526 L242.124882,17.2919932 C241.90882,15.3845423 241.757576,12.6120847 241.671152,8.97462022 L241.671152,8.97462022 Z M251.977313,8.97462022 L251.977313,5.11535915 C251.977313,4.42778965 251.814546,3.84002863 251.489012,3.35207608 C251.119546,2.77540489 250.620443,2.48706929 249.990982,2.48706929 L248.265366,2.48706929 C247.461615,2.48706929 247.005724,2.26527268 246.896973,1.82167945 C246.745009,1.26718792 246.647781,0.989942155 246.603849,0.989942155 C245.648854,0.989942155 245.171357,1.96584725 245.171357,3.91765745 C245.171357,4.9157422 245.441435,5.62549136 245.98159,6.04690493 C246.456927,6.40177951 247.202341,6.5792168 248.217833,6.5792168 C249.038868,6.5792168 249.568221,6.740389 249.805889,7.06125477 C250.043557,7.38359918 250.162391,9.15205751 250.162391,12.3681084 L250.162391,14.8633203 L249.935526,18.0571915 C249.892314,18.6338627 249.870707,19.2659831 249.870707,19.9535526 L252.463452,17.2919932 C252.160966,14.7413322 251.998919,11.9688745 251.977313,8.97462022 L251.977313,8.97462022 Z M261.149148,2.48706929 L258.912906,2.48706929 C258.135082,2.48706929 257.669828,2.23200319 257.519305,1.72187098 C257.519305,1.23391843 257.43288,0.989942155 257.260031,0.989942155 C256.308637,0.989942155 255.834021,1.96584725 255.834021,3.91765745 C255.834021,5.13753882 256.222933,5.92491679 257.000756,6.27979137 C257.43288,6.47940832 258.340341,6.5792168 259.723138,6.5792168 C259.226196,7.22242698 258.902102,7.73255919 258.750859,8.10961343 C258.556403,8.57538632 258.459175,9.16314734 258.459175,9.8728965 L258.68604,13.8652355 C258.729253,14.5749847 258.750859,15.3734525 258.750859,16.260639 C258.750859,16.9260288 258.653631,18.157 258.459175,19.9535526 C259.049745,19.7982949 259.645356,19.3879712 260.247449,18.7225814 C260.848102,18.0571915 261.149148,17.4139813 261.149148,16.7929508 C261.149148,16.6376932 261.062723,15.8281356 260.889874,14.3642779 L260.306506,9.44039311 L260.241687,8.70846428 C260.241687,8.3535897 260.327392,7.94326597 260.500962,7.47749308 C260.695418,6.87864223 260.922283,6.5792168 261.181557,6.5792168 L262.737204,6.5792168 C262.996479,6.04690493 263.126116,5.44805407 263.126116,4.78266424 C263.126116,3.25226761 262.467127,2.48706929 261.149148,2.48706929 L261.149148,2.48706929 Z M278.163317,2.48706929 L270.158217,2.48706929 C269.380393,2.48706929 268.905057,2.23200319 268.732207,1.72187098 C268.645782,1.23391843 268.559357,0.989942155 268.472932,0.989942155 C267.543865,0.989942155 267.079332,1.96806522 267.079332,3.9228327 C267.079332,5.70090221 267.878762,6.58882799 269.477621,6.58882799 C268.678191,7.45531342 268.148839,8.1554514 267.889565,8.68850259 C267.543865,9.37755073 267.371016,10.2329463 267.371016,11.2554287 L267.371016,19.9535526 C268.926663,19.50922 269.704486,18.6641749 269.704486,17.4191566 L269.704486,9.51432531 C269.704486,8.3365853 269.877336,7.58025885 270.223035,7.24608528 L270.93604,6.5792168 L278.00127,6.5792168 C278.00127,6.84537274 277.774405,7.44422359 277.320675,8.37576936 C277.039794,8.95244056 276.899353,9.62892023 276.899353,10.4052084 C276.899353,11.0484185 276.926721,12.0243236 276.980737,13.3329237 C277.034032,14.6415237 277.0614,15.6174288 277.0614,16.260639 L277.0614,17.8243051 C276.996581,18.8223898 276.964172,19.532139 276.964172,19.9535526 C277.612358,19.8648339 278.217332,19.4936942 278.779094,18.8393942 C279.340855,18.1850942 279.621736,17.5137898 279.621736,16.8262203 C279.621736,16.5600644 279.578523,16.1164712 279.492098,15.4954406 L278.811503,10.5715558 C278.703472,9.79526769 278.649456,9.25186598 278.649456,8.94135073 C278.649456,8.54211682 278.887125,7.94326597 279.362461,7.14479816 C279.837798,6.34633036 280.075466,5.75856933 280.075466,5.38151509 L280.075466,4.78266424 C280.075466,3.25226761 279.438083,2.48706929 278.163317,2.48706929 L278.163317,2.48706929 Z M295.113387,2.48706929 L287.075877,2.48706929 C286.298054,2.48706929 285.8328,2.23200319 285.682277,1.72187098 C285.682277,1.23391843 285.595852,0.989942155 285.423003,0.989942155 C284.471609,0.989942155 283.996993,1.96584725 283.996993,3.91765745 C283.996993,4.9157422 284.26707,5.62549136 284.807226,6.04690493 C285.281842,6.40177951 286.027256,6.5792168 287.043468,6.5792168 L294.95134,6.5792168 C294.95134,6.80101341 294.854112,7.11152867 294.659656,7.51076257 L294.238335,8.37576936 C293.957455,9.10769819 293.817014,9.78417786 293.817014,10.4052084 C293.817014,10.8931609 293.87031,12.1130423 293.979061,14.0648525 C294.022273,14.8411406 294.04388,15.5730695 294.04388,16.260639 C294.04388,16.6598729 294.016512,17.2698135 293.962496,18.090461 C293.908481,18.9111085 293.881833,19.532139 293.881833,19.9535526 C294.530019,19.8648339 295.134273,19.4936942 295.696754,18.8393942 C296.258516,18.1850942 296.539397,17.5137898 296.539397,16.8262203 C296.539397,16.5600644 296.495464,16.1164712 296.409759,15.4954406 L295.729164,10.5715558 C295.620413,9.79526769 295.567117,9.25186598 295.567117,8.94135073 C295.567117,8.54211682 295.804785,7.94326597 296.280122,7.14479816 C296.754738,6.34633036 296.993127,5.75856933 296.993127,5.38151509 L296.993127,4.78266424 C296.993127,3.25226761 296.365827,2.48706929 295.113387,2.48706929 L295.113387,2.48706929 Z M285.293365,11.1704067 C284.709998,11.7470779 284.418314,12.3791982 284.418314,13.0667677 L284.418314,19.9535526 C285.001681,19.8648339 285.563443,19.5373142 286.103598,18.9724722 C286.643033,18.4061515 286.913831,17.8243051 286.913831,17.2254542 C286.913831,16.6709627 286.886463,15.8281356 286.832448,14.6969728 C286.778432,13.5658101 286.751784,12.7118931 286.751784,12.135222 C286.751784,11.7138084 286.892225,11.1038677 287.173105,10.3053999 C286.503313,10.3053999 285.876733,10.5937355 285.293365,11.1704067 L285.293365,11.1704067 Z" id="Fill-5"></path>
                    </g>
                </g>
            </g>
        </g>
    </g>
</svg>