<?xml version="1.0" encoding="UTF-8"?>
<svg width="333px" height="281px" viewBox="0 0 333 281" version="1.1" xmlns="http://www.w3.org/2000/svg" xmlns:xlink="http://www.w3.org/1999/xlink">
    <!-- Generator: Sketch 46.2 (44496) - http://www.bohemiancoding.com/sketch -->
    <title>Group 4</title>
    <desc>Created with Sketch.</desc>
    <defs>
        <polygon id="path-1" points="0.380125219 13.3077968 106.006394 13.3077968 106.006394 0.151856748 0.380125219 0.151856748 0.380125219 13.3077968"></polygon>
        <polygon id="path-3" points="15.3425683 0.405370276 15.3425683 34.4008765 0.285994173 34.4008765 0.285994173 0.405370276 15.3425683 0.405370276"></polygon>
    </defs>
    <g id="Page-1" stroke="none" stroke-width="1" fill="none" fill-rule="evenodd">
        <g id="coming-soon---desktop" transform="translate(-1315.000000, -412.000000)">
            <g id="Group-4" transform="translate(1315.000000, 412.000000)">
                <rect id="back" fill-opacity="0.00999999978" fill="#FFFFFF" x="0" y="0" width="333" height="281"></rect>
                <g id="Group-2" transform="translate(32.000000, 0.000000)">
                    <g id="autumn-cult_title">
                        <path d="M16.3099503,18.8640237 C16.3099503,19.0451576 16.4107792,19.174539 16.6124372,19.174539 L25.8130807,19.174539 C26.0147387,19.174539 26.1659821,19.0969102 26.2920183,18.9157763 L28.5858774,15.5001084 C28.6867064,15.3448508 28.7119136,15.2154694 28.7119136,15.0084593 L28.7119136,14.4650576 C28.7119136,14.2839237 28.6110847,14.1545423 28.4094267,14.1545423 L27.7036239,14.1545423 C27.501966,14.1545423 27.3759298,14.2321711 27.1994791,14.3874288 C26.1911894,15.267222 25.6114228,15.7329949 24.2502317,15.7329949 L19.4356483,15.7329949 C20.1918656,14.7496966 21.6286785,13.3782542 24.3762679,11.4892863 C26.8717849,9.78145242 28.5858774,7.8924846 28.5858774,5.09784728 C28.5858774,1.96681843 26.2163966,0.000221796613 23.1915275,0.000221796613 C20.2674874,0.000221796613 17.8223848,2.38083877 16.5368154,4.78733202 C16.4107792,5.02021847 16.486401,5.22722864 16.6628517,5.38248627 L17.2426182,5.82238288 C17.4442762,5.97764051 17.7215558,5.92588797 17.8727993,5.69300153 C18.8306745,4.29568287 19.9397932,2.8983642 22.0572016,2.97599302 C23.6200506,3.02774556 24.8804128,4.21805405 24.9308272,5.87413543 C24.9812417,7.27145409 24.2502317,8.48763885 23.040284,9.67794734 C19.9397932,12.7572236 17.7971776,15.0602118 16.4611937,17.6219627 C16.385572,17.7772203 16.3099503,17.9583542 16.3099503,18.1912407 L16.3099503,18.8640237 Z M32.1653059,8.53939139 C32.1653059,8.79815411 32.2157204,8.95341174 32.3669638,9.13454564 L32.795487,9.52268971 C32.9467304,9.67794734 33.1483884,9.72969988 33.3500463,9.6261948 C34.0810563,9.26392699 34.9885171,9.00516428 35.8707706,9.00516428 C37.9881789,9.00516428 39.7274787,10.7388745 39.7274787,13.3523779 C39.7274787,15.8365 38.1898369,17.751344 36.0472213,17.751344 C34.1062636,17.751344 33.526497,16.0176339 34.1062636,14.6203152 C34.1818853,14.4391813 34.2070925,14.2580474 34.2070925,14.025161 L34.2070925,13.4300067 C34.2070925,13.1971203 33.9550201,13.0936152 33.7785694,13.1971203 L31.0561872,14.6203152 C30.5520424,14.9049542 30.3503844,15.5259847 30.4512134,16.1470152 C30.6528713,17.5184576 32.1905131,19.5885593 35.5430764,19.5885593 C39.7778932,19.5885593 42.8279695,15.8106237 42.8279695,12.2396982 C42.8279695,8.04774223 40.1812091,5.84825916 36.5765734,5.84825916 C35.7447343,5.84825916 34.5599939,6.10702187 33.8289839,6.46928967 L33.9550201,3.70052862 C35.0641388,3.93341506 38.6435673,5.07197101 41.2903277,1.16465401 C41.4163639,0.957643842 41.3911567,0.776509942 41.2903277,0.621252313 L40.9374263,0.155479426 C40.7861829,-0.0515307464 40.5341105,0.000221796613 40.3576598,0.103726883 C39.2737483,0.673004856 38.1394224,1.00939639 36.6521951,1.00939639 C35.4926619,1.00939639 34.358336,0.517747227 33.5012898,0.517747227 L32.7702797,0.517747227 C32.5686218,0.517747227 32.4425856,0.673004856 32.4425856,0.854138756 L32.1653059,8.53939139 Z M60.2706613,13.8181508 C60.6487699,13.8181508 60.9008423,13.6111406 61.0016713,13.3265016 L61.4806089,11.9033067 C61.6066451,11.5669152 61.4049872,11.3081524 61.077293,11.3081524 L46.4066778,11.3081524 C46.0285691,11.3081524 45.7764967,11.5151626 45.6756678,11.7998016 L45.1967301,13.2229965 C45.0706939,13.5593881 45.2723519,13.8181508 45.600046,13.8181508 L60.2706613,13.8181508 Z M63.2955304,18.8640237 C63.2955304,19.0451576 63.3963593,19.174539 63.5980173,19.174539 L72.7986609,19.174539 C73.0003188,19.174539 73.1515623,19.0969102 73.2775985,18.9157763 L75.5714576,15.5001084 C75.6722865,15.3448508 75.6974938,15.2154694 75.6974938,15.0084593 L75.6974938,14.4650576 C75.6974938,14.2839237 75.5966648,14.1545423 75.3950069,14.1545423 L74.6892041,14.1545423 C74.4875461,14.1545423 74.3615099,14.2321711 74.1850592,14.3874288 C73.1767695,15.267222 72.5970029,15.7329949 71.2358118,15.7329949 L66.4212285,15.7329949 C67.1774457,14.7496966 68.6142586,13.3782542 71.361848,11.4892863 C73.8573651,9.78145242 75.5714576,7.8924846 75.5714576,5.09784728 C75.5714576,1.96681843 73.2019767,0.000221796613 70.1771076,0.000221796613 C67.2530675,0.000221796613 64.8079649,2.38083877 63.5223956,4.78733202 C63.3963593,5.02021847 63.4719811,5.22722864 63.6484318,5.38248627 L64.2281984,5.82238288 C64.4298563,5.97764051 64.707136,5.92588797 64.8583794,5.69300153 C65.8162546,4.29568287 66.9253733,2.8983642 69.0427817,2.97599302 C70.6056307,3.02774556 71.8659929,4.21805405 71.9164074,5.87413543 C71.9668219,7.27145409 71.2358118,8.48763885 70.0258642,9.67794734 C66.9253733,12.7572236 64.7827577,15.0602118 63.4467738,17.6219627 C63.3711521,17.7772203 63.2955304,17.9583542 63.2955304,18.1912407 L63.2955304,18.8640237 Z M87.7465558,14.7496966 C87.7465558,16.6386644 86.1837067,17.8030966 84.1167128,17.8030966 C81.8732682,17.8030966 79.9575178,16.3022728 79.9575178,14.128666 C79.9575178,11.9809355 81.3439161,10.6353694 83.0580086,9.72969988 C84.7216866,10.790627 87.7465558,11.8774304 87.7465558,14.7496966 L87.7465558,14.7496966 Z M85.3266605,6.85743374 C83.2848738,5.64124898 81.848061,4.94258965 81.848061,3.41588963 C81.848061,2.32908623 82.8311434,1.55279809 84.0410911,1.55279809 C85.6039401,1.55279809 86.9651312,2.51022013 86.9651312,4.32155914 C86.9651312,5.33073373 86.2593284,6.23640323 85.3266605,6.85743374 L85.3266605,6.85743374 Z M81.6211958,8.82403038 C80.0583467,9.52268971 77.6132442,11.2305236 77.6132442,14.1804186 C77.6132442,17.4925813 80.4616626,19.6144356 84.0662983,19.6144356 C87.7465558,19.6144356 91.0234973,17.2338186 91.0234973,13.5852643 C91.0234973,10.7129982 89.3850265,9.23805072 86.5618154,7.65959816 C87.6961413,7.167949 89.0321251,5.79650661 89.0321251,4.03692015 C89.0321251,1.57867436 86.7886805,0.000221796613 84.0915056,0.000221796613 C81.6211958,0.000221796613 78.8231919,1.6304269 78.8231919,4.52856931 C78.8231919,6.4434134 80.1087612,7.81485579 81.6211958,8.82403038 L81.6211958,8.82403038 Z M95.5355937,14.7496966 C95.0566561,15.1895932 94.4012678,15.8623762 93.9979519,16.3281491 C93.6450505,16.7162932 93.6702578,17.2338186 94.0231592,17.6219627 C94.4264751,18.0877356 95.1070706,18.7605186 95.5355937,19.174539 C95.9137024,19.5368068 96.4178472,19.5368068 96.7959559,19.174539 C97.2496862,18.7605186 97.9050746,18.1136118 98.3335977,17.6219627 C98.6864991,17.2338186 98.6612918,16.7162932 98.3083904,16.3540254 C97.8798673,15.8882525 97.2496862,15.2413457 96.7707486,14.7755728 C96.4178472,14.413305 95.9137024,14.3874288 95.5355937,14.7496966 L95.5355937,14.7496966 Z M101.811477,2.97599302 C101.635026,3.07949811 101.559405,3.20887946 101.609819,3.41588963 L101.710648,3.90753879 C101.761062,4.14042524 101.912306,4.21805405 102.139171,4.19217778 L103.223083,4.08867269 C103.954093,4.01104388 104.458237,4.34743541 104.458237,5.14959983 L104.483445,15.8365 C104.483445,17.2338186 103.601191,17.7254678 102.290415,17.9324779 C102.063549,17.9583542 101.96272,18.1136118 101.987928,18.320622 L102.038342,18.8640237 C102.063549,19.0451576 102.189586,19.174539 102.391244,19.174539 L109.600515,19.174539 C109.802173,19.174539 109.928209,19.0451576 109.953416,18.8640237 L110.003831,18.320622 C110.029038,18.1136118 109.928209,17.9583542 109.701344,17.9324779 C108.390567,17.7254678 107.533521,17.2338186 107.533521,15.8365 L107.558728,0.854138756 C107.558728,0.673004856 107.457899,0.543623498 107.256241,0.517747227 L105.819429,0.517747227 C105.617771,0.517747227 105.466527,0.56949977 105.290076,0.698881127 C104.130543,1.60455063 103.24829,2.19970487 101.811477,2.97599302 L101.811477,2.97599302 Z M112.29769,9.85908124 C112.29769,15.2930983 115.020072,19.6920644 118.977609,19.6920644 C122.935146,19.6920644 125.657529,15.2930983 125.657529,9.85908124 C125.657529,4.42506422 122.935146,0.000221796613 118.977609,0.000221796613 C115.020072,0.000221796613 112.29769,4.42506422 112.29769,9.85908124 L112.29769,9.85908124 Z M114.717585,11.0493897 C113.75971,7.3490829 114.692378,3.85578625 117.263517,3.10537438 C119.859863,2.40671505 122.279758,4.9943422 123.26284,8.66877275 C124.220716,12.3690796 123.288048,15.8365 120.716909,16.5869118 C118.120563,17.2855712 115.700668,14.7238203 114.717585,11.0493897 L114.717585,11.0493897 Z M130.194832,14.7496966 C129.715895,15.1895932 129.060506,15.8623762 128.65719,16.3281491 C128.304289,16.7162932 128.329496,17.2338186 128.682398,17.6219627 C129.085714,18.0877356 129.766309,18.7605186 130.194832,19.174539 C130.572941,19.5368068 131.077086,19.5368068 131.455194,19.174539 C131.908925,18.7605186 132.564313,18.1136118 132.992836,17.6219627 C133.345738,17.2338186 133.32053,16.7162932 132.967629,16.3540254 C132.539106,15.8882525 131.908925,15.2413457 131.429987,14.7755728 C131.077086,14.413305 130.572941,14.3874288 130.194832,14.7496966 L130.194832,14.7496966 Z M136.470715,2.97599302 C136.294265,3.07949811 136.218643,3.20887946 136.269057,3.41588963 L136.369886,3.90753879 C136.420301,4.14042524 136.571544,4.21805405 136.79841,4.19217778 L137.882321,4.08867269 C138.613331,4.01104388 139.117476,4.34743541 139.117476,5.14959983 L139.142683,15.8365 C139.142683,17.2338186 138.26043,17.7254678 136.949653,17.9324779 C136.722788,17.9583542 136.621959,18.1136118 136.647166,18.320622 L136.697581,18.8640237 C136.722788,19.0451576 136.848824,19.174539 137.050482,19.174539 L144.259753,19.174539 C144.461411,19.174539 144.587448,19.0451576 144.612655,18.8640237 L144.663069,18.320622 C144.688277,18.1136118 144.587448,17.9583542 144.360582,17.9324779 C143.049806,17.7254678 142.19276,17.2338186 142.19276,15.8365 L142.217967,0.854138756 C142.217967,0.673004856 142.117138,0.543623498 141.91548,0.517747227 L140.478667,0.517747227 C140.277009,0.517747227 140.125766,0.56949977 139.949315,0.698881127 C138.789782,1.60455063 137.907528,2.19970487 136.470715,2.97599302 L136.470715,2.97599302 Z M152.099206,18.8122712 C151.721097,12.9642338 156.863375,5.04609474 158.022908,2.84661166 C158.148944,2.61372522 158.174151,2.45846759 158.174151,2.22558115 L158.174151,0.854138756 C158.174151,0.673004856 158.022908,0.517747227 157.82125,0.517747227 L149.654103,0.517747227 C148.847472,0.517747227 147.914804,0.388365869 147.385451,0.129603154 C147.158586,0.0260980681 146.830892,0.0778506111 146.830892,0.362489598 L146.830892,4.94258965 C146.830892,5.1754761 146.906514,5.35661 147.057757,5.43423881 L147.561902,5.69300153 C147.788767,5.79650661 147.990425,5.7188778 148.091254,5.5377439 C148.746643,4.37331168 149.628896,3.77815744 150.939673,3.77815744 L155.880292,3.72640489 C154.292236,6.6245473 150.284284,10.3248541 148.343327,18.8122712 C148.292912,19.0192814 148.469363,19.174539 148.671021,19.174539 L151.771512,19.174539 C151.97317,19.174539 152.124413,19.0192814 152.099206,18.8122712 L152.099206,18.8122712 Z M171.531109,8.52016902 C169.486442,8.52016902 167.842209,10.1629426 167.842209,12.2389589 C167.842209,14.3149752 169.486442,15.9577488 171.531109,15.9577488 C173.575777,15.9577488 175.220729,14.3149752 175.220729,12.2389589 C175.220729,10.1629426 173.575777,8.52016902 171.531109,8.52016902 L171.531109,8.52016902 Z M196.651207,2.14055911 L188.613697,2.14055911 C187.835874,2.14055911 187.37134,1.88549301 187.220097,1.3753608 C187.220097,0.887408248 187.133672,0.643431974 186.960822,0.643431974 C186.010149,0.643431974 185.534813,1.61933707 185.534813,3.57114726 C185.534813,4.56923202 185.80489,5.27898118 186.345046,5.70039475 C186.820382,6.05526933 187.565796,6.23270662 188.581288,6.23270662 L196.48916,6.23270662 C196.48916,6.45450323 196.391932,6.76501849 196.197476,7.16425239 L195.776155,8.02925918 C195.495275,8.76118801 195.354834,9.43766767 195.354834,10.0586982 C195.354834,10.5466507 195.40885,11.7665321 195.516881,13.7183423 C195.560093,14.4946304 195.581699,15.2265593 195.581699,15.9141288 C195.581699,16.3133627 195.554332,16.9233034 195.501036,17.7439508 C195.446301,18.5645983 195.419653,19.1856288 195.419653,19.6070424 C196.067839,19.5183237 196.672813,19.1471841 197.234574,18.4921447 C197.796336,17.838584 198.077216,17.1672796 198.077216,16.4797101 C198.077216,16.2135542 198.034004,15.769961 197.947579,15.1489305 L197.266984,10.2250457 C197.158953,9.44875751 197.104937,8.9053558 197.104937,8.59484055 C197.104937,8.19560664 197.342605,7.59675579 197.817942,6.79828798 C198.293279,5.99982017 198.530947,5.41205915 198.530947,5.03500491 L198.530947,4.43615405 C198.530947,2.90575743 197.904367,2.14055911 196.651207,2.14055911 L196.651207,2.14055911 Z M186.831185,10.8238965 C186.247818,11.4005677 185.956134,12.032688 185.956134,12.7202575 L185.956134,19.6070424 C186.539501,19.5183237 187.101263,19.1908041 187.641418,18.6252227 C188.181573,18.0596413 188.451651,17.4777949 188.451651,16.878944 C188.451651,16.3244525 188.424283,15.4816254 188.370988,14.3504626 C188.316252,13.2192999 188.289604,12.365383 188.289604,11.7887118 C188.289604,11.3672982 188.430045,10.7573575 188.710925,9.95888971 C188.041133,9.95888971 187.414553,10.2472253 186.831185,10.8238965 L186.831185,10.8238965 Z M213.244775,8.62811004 L213.244775,4.76884897 C213.223168,4.08127947 213.059681,3.49351845 212.755754,3.0055659 C212.407894,2.42889471 211.918874,2.14055911 211.289413,2.14055911 L204.965996,2.14055911 C204.183131,2.14055911 203.705634,1.88549301 203.531344,1.3753608 C203.444199,0.887408248 203.357774,0.643431974 203.270629,0.643431974 C202.3358,0.643431974 201.869106,1.61933707 201.869106,3.57114726 C201.869106,5.34552017 202.744157,6.23270662 204.49426,6.23270662 L209.452885,6.23270662 C210.273921,6.23270662 210.808314,6.39387882 211.057506,6.71474459 C211.305257,7.037089 211.429853,8.80554733 211.429853,12.0215982 L211.429853,14.5168101 L211.202988,17.7106813 C211.159775,18.2873525 211.138169,18.9194729 211.138169,19.6070424 L213.730914,16.945483 C213.47164,14.9936728 213.309593,12.2212152 213.244775,8.62811004 L213.244775,8.62811004 Z M221.217465,2.14055911 L220.180367,2.14055911 C219.402544,2.14055911 218.948813,1.92985233 218.819176,1.50843876 C218.645606,0.931767571 218.538295,0.643431974 218.495083,0.643431974 C217.566016,0.643431974 217.101483,1.61933707 217.101483,3.57114726 C217.101483,5.34552017 218.008943,6.23270662 219.823865,6.23270662 L220.212777,6.23270662 C220.796144,6.23270662 221.205942,6.2992456 221.44433,6.43232357 C221.768424,6.63194052 221.93047,6.99790493 221.93047,7.5302168 C221.93047,8.63919987 221.293087,9.8812609 220.018321,11.2563999 L220.763735,11.9550592 C222.837931,10.1585067 223.875029,8.01816935 223.875029,5.53404729 C223.875029,3.27172184 222.988454,2.14055911 221.217465,2.14055911 L221.217465,2.14055911 Z M232.625543,2.14055911 L230.389301,2.14055911 C229.611477,2.14055911 229.146223,1.88549301 228.9957,1.3753608 C228.9957,0.887408248 228.908555,0.643431974 228.736426,0.643431974 C227.785032,0.643431974 227.310416,1.61933707 227.310416,3.57114726 C227.310416,4.79102863 227.699328,5.57840661 228.477151,5.93328119 C228.908555,6.13289814 229.816016,6.23270662 231.199533,6.23270662 C230.70187,6.8759168 230.377777,7.38604901 230.227254,7.76310325 C230.032798,8.22887613 229.93557,8.81663716 229.93557,9.52638632 L230.162435,13.5187254 C230.204928,14.2284745 230.227254,15.0269423 230.227254,15.9141288 C230.227254,16.5795186 230.130026,17.8104898 229.93557,19.6070424 C230.52542,19.4517847 231.121751,19.041461 231.723124,18.3760712 C232.324497,17.7106813 232.625543,17.0674712 232.625543,16.4464406 C232.625543,16.291183 232.538398,15.4816254 232.366269,14.0177677 L231.782901,9.09388292 L231.718082,8.3619541 C231.718082,8.00707952 231.803787,7.59675579 231.977357,7.1309829 C232.171813,6.53213205 232.398678,6.23270662 232.657952,6.23270662 L234.213599,6.23270662 C234.472874,5.70039475 234.602511,5.10154389 234.602511,4.43615405 C234.602511,2.90575743 233.942802,2.14055911 232.625543,2.14055911 L232.625543,2.14055911 Z M249.283209,2.14055911 L241.2457,2.14055911 C240.467876,2.14055911 240.003343,1.88549301 239.852099,1.3753608 C239.852099,0.887408248 239.765675,0.643431974 239.592825,0.643431974 C238.642152,0.643431974 238.166815,1.61933707 238.166815,3.57114726 C238.166815,4.56923202 238.436893,5.27898118 238.977048,5.70039475 C239.452385,6.05526933 240.197799,6.23270662 241.213291,6.23270662 L249.121163,6.23270662 C249.121163,6.45450323 249.023935,6.76501849 248.829479,7.16425239 L248.408158,8.02925918 C248.127277,8.76118801 247.986837,9.43766767 247.986837,10.0586982 C247.986837,10.5466507 248.040852,11.7665321 248.148883,13.7183423 C248.192096,14.4946304 248.213702,15.2265593 248.213702,15.9141288 C248.213702,16.3133627 248.186334,16.9233034 248.132319,17.7439508 C248.078303,18.5645983 248.051655,19.1856288 248.051655,19.6070424 C248.699842,19.5183237 249.304815,19.1471841 249.866577,18.4921447 C250.428338,17.838584 250.709219,17.1672796 250.709219,16.4797101 C250.709219,16.2135542 250.666007,15.769961 250.579582,15.1489305 L249.898986,10.2250457 C249.790955,9.44875751 249.73694,8.9053558 249.73694,8.59484055 C249.73694,8.19560664 249.974608,7.59675579 250.449944,6.79828798 C250.925281,5.99982017 251.162949,5.41205915 251.162949,5.03500491 L251.162949,4.43615405 C251.162949,2.90575743 250.536369,2.14055911 249.283209,2.14055911 L249.283209,2.14055911 Z M239.463188,10.8238965 C238.87982,11.4005677 238.588136,12.032688 238.588136,12.7202575 L238.588136,19.6070424 C239.171504,19.5183237 239.733265,19.1908041 240.273421,18.6252227 C240.813576,18.0596413 241.083653,17.4777949 241.083653,16.878944 C241.083653,16.3244525 241.056285,15.4816254 241.00299,14.3504626 C240.948254,13.2192999 240.921607,12.365383 240.921607,11.7887118 C240.921607,11.3672982 241.062047,10.7573575 241.342928,9.95888971 C240.673135,9.95888971 240.046555,10.2472253 239.463188,10.8238965 L239.463188,10.8238965 Z" id="Fill-1" fill="#00AE7C"></path>
                        <g id="Group-5" transform="translate(81.383383, 266.919655)">
                            <mask id="mask-2" fill="white">
                                <use xlink:href="#path-1"></use>
                            </mask>
                            <g id="Clip-4"></g>
                            <path d="M9.52171182,10.6265715 L3.85512367,10.6265715 C7.44103399,7.9450504 9.69888273,5.51415952 9.69888273,3.28732153 C9.69888273,1.62902219 8.25990928,0.196955392 5.69237156,0.196955392 C4.14320645,0.196955392 2.68190658,1.10632151 1.5310159,2.26483915 L2.01787579,2.87847644 C2.77049203,2.42379339 3.52310828,2.2197405 4.27572452,2.2197405 C5.51520065,2.2197405 6.64448513,2.74170186 7.39710137,3.81002222 C6.64448513,5.832068 3.83279726,9.24034262 0.380125219,12.1946735 L0.800726068,13.1262193 L8.68051013,13.1262193 L9.52171182,11.2402087 L9.52171182,10.6265715 Z M22.9132395,4.85542358 C22.9132395,2.28775813 21.6953696,0.196955392 19.0615729,0.196955392 C14.9225436,0.196955392 12.6423685,4.87760325 12.6423685,8.89951516 C12.6423685,11.5130186 13.9488238,13.3080925 16.4717087,13.3080925 C20.6993234,13.3080925 22.9132395,8.8773355 22.9132395,4.85542358 L22.9132395,4.85542358 Z M17.1357395,11.9898813 C16.0957607,11.9898813 15.5203154,10.5585538 15.5203154,8.37681448 C15.5203154,5.90008563 16.4501025,1.69703982 18.4198685,1.69703982 C19.4382411,1.69703982 19.9690336,3.28732153 19.9690336,5.3322863 C19.9690336,7.67297989 19.3935883,11.9898813 17.1357395,11.9898813 L17.1357395,11.9898813 Z M30.6381791,0.287892004 L26.388238,1.67412083 L26.2549997,2.60566661 L28.9557757,2.60566661 L27.4728696,11.4442616 L24.9269381,12.1717545 L24.7720936,13.1262193 L32.3421887,13.1262193 L32.5193596,12.1488355 L30.2175783,11.4671806 L32.1210852,0.287892004 L30.6381791,0.287892004 Z M36.0829435,2.69660322 L42.6123396,2.7195222 L36.171529,12.7853918 L36.1492026,13.3080925 L38.6944139,13.3080925 L44.9141209,1.42422998 L44.5821055,0.469765226 L36.8132334,0.469765226 L36.0829435,2.28775813 L36.0829435,2.69660322 Z M57.8728043,8.91134431 C58.17097,8.91134431 58.3690269,8.74869346 58.4482496,8.52467888 L58.8249179,7.40460599 C58.9243064,7.1399287 58.7658609,6.93661514 58.5080268,6.93661514 L46.9638299,6.93661514 C46.6663844,6.93661514 46.4683275,7.09926598 46.3891047,7.32328056 L46.0117163,8.44261414 C45.913048,8.70803075 46.0714935,8.91134431 46.3293276,8.91134431 L57.8728043,8.91134431 Z M69.6618716,10.6265715 L63.9960036,10.6265715 C67.5811938,7.9450504 69.8390425,5.51415952 69.8390425,3.28732153 C69.8390425,1.62902219 68.4007892,0.196955392 65.8325313,0.196955392 C64.2833662,0.196955392 62.8227865,1.10632151 61.6718959,2.26483915 L62.1587558,2.87847644 C62.911372,2.42379339 63.6639882,2.2197405 64.4166045,2.2197405 C65.6560806,2.2197405 66.7846449,2.74170186 67.5372611,3.81002222 C66.7846449,5.832068 63.9736772,9.24034262 60.520285,12.1946735 L60.9408858,13.1262193 L68.8213901,13.1262193 L69.6618716,11.2402087 L69.6618716,10.6265715 Z M83.0533993,4.85542358 C83.0533993,2.28775813 81.8362496,0.196955392 79.2017326,0.196955392 C75.0627034,0.196955392 72.7832484,4.87760325 72.7832484,8.89951516 C72.7832484,11.5130186 74.0889836,13.3080925 76.6125887,13.3080925 C80.8402034,13.3080925 83.0533993,8.8773355 83.0533993,4.85542358 L83.0533993,4.85542358 Z M77.2766195,11.9898813 C76.2359205,11.9898813 75.6604751,10.5585538 75.6604751,8.37681448 C75.6604751,5.90008563 76.5902623,1.69703982 78.5600282,1.69703982 C79.5784008,1.69703982 80.1099136,3.28732153 80.1099136,5.3322863 C80.1099136,7.67297989 79.5344682,11.9898813 77.2766195,11.9898813 L77.2766195,11.9898813 Z M90.7783389,0.287892004 L86.5283978,1.67412083 L86.3958797,2.60566661 L89.0959355,2.60566661 L87.6130294,11.4442616 L85.0678181,12.1717545 L84.9129736,13.1262193 L92.4830687,13.1262193 L92.6595194,12.1488355 L90.357738,11.4671806 L92.2612449,0.287892004 L90.7783389,0.287892004 Z M106.006394,2.94649407 C106.006394,1.24235676 103.970369,0.151856748 101.95595,0.151856748 C100.207288,0.151856748 97.130564,1.94693067 97.130564,3.81002222 C97.130564,4.76448697 97.9055067,5.80914902 98.9015529,6.83163141 C97.2854085,7.60422294 95.7585698,8.83149753 95.7585698,10.3766806 C95.7585698,11.9669623 97.4409732,13.3080925 99.6318427,13.3080925 C102.066862,13.3080925 105.253778,11.6490538 105.253778,9.60408907 C105.253778,8.5586877 104.081281,7.35433209 102.774826,6.21873343 C104.457229,5.46832156 106.006394,4.26470527 106.006394,2.94649407 L106.006394,2.94649407 Z M102.996649,10.8535433 C102.50979,11.399163 101.469091,11.8309271 100.605562,11.8309271 C99.5879101,11.8309271 98.4370194,11.0812545 97.8608539,10.1267898 C98.2151957,9.30836025 98.790641,8.33171583 99.5879101,7.46818768 C101.070816,8.85441651 102.708567,10.1038708 102.996649,10.8535433 L102.996649,10.8535433 Z M99.1010502,2.90139543 C99.5655837,2.17390253 100.273547,1.81015609 101.004557,1.81015609 C102.089189,1.81015609 103.372598,2.58274762 103.837851,3.67398696 C103.505116,4.26470527 102.885738,4.9463602 102.066862,5.67311376 C100.694148,4.53677578 99.3444801,3.5142934 99.1010502,2.90139543 L99.1010502,2.90139543 Z" id="Fill-3" fill="#00AE7C" mask="url(#mask-2)"></path>
                        </g>
                        <path d="M144.525207,244.975503 C144.525207,241.794201 142.555441,239.90819 139.058116,239.90819 C134.276662,239.90819 130.956508,243.97594 130.956508,248.383778 C130.956508,251.519243 133.01558,253.542028 136.445925,253.542028 C141.248985,253.542028 144.525207,249.224387 144.525207,244.975503 L144.525207,244.975503 Z M136.734008,252.178718 C135.029278,252.178718 134.232729,250.883426 134.232729,248.838461 C134.232729,245.407268 135.671703,241.226401 138.659841,241.226401 C140.386177,241.226401 141.248985,242.453676 141.248985,244.52082 C141.248985,248.997415 139.500323,252.178718 136.734008,252.178718 L136.734008,252.178718 Z M144.657725,258.063722 L150.301987,258.063722 L150.457551,257.109257 L148.81908,256.472701 L149.350593,253.451091 C149.748868,253.49619 150.169468,253.542028 150.678655,253.542028 C153.489622,253.542028 156.212005,250.110834 156.212005,246.884433 C156.212005,244.79363 155.5703,242.794503 154.087394,242.794503 C153.401037,242.794503 152.272473,243.203349 151.076929,243.771148 L151.2541,242.794503 L148.553324,243.271366 L148.199702,245.248313 C147.491019,245.657158 146.893247,246.043085 146.494973,246.315894 L146.69447,247.475151 L147.933946,246.815676 L146.229216,256.631655 L144.813289,257.131437 L144.657725,258.063722 Z M152.361058,244.770711 L152.803265,244.770711 C153.20226,245.407268 153.378711,246.361732 153.378711,247.475151 C153.378711,249.701989 152.361058,251.951007 151.630048,251.951007 C150.988344,251.951007 150.324313,251.792053 149.704935,251.542162 L150.789567,245.452366 C151.386618,245.180296 151.940457,244.930405 152.361058,244.770711 L152.361058,244.770711 Z M165.41985,249.111271 C164.556322,249.770007 163.095742,250.76957 162.011111,251.065299 L161.679095,250.951444 C161.546577,250.360725 161.501925,249.770007 161.501925,249.133451 L161.501925,248.951577 C163.405431,248.156806 165.729539,246.997549 166.814171,246.066003 L166.814171,243.567095 C165.640954,243.021475 164.667234,242.794503 163.848359,242.794503 C162.122023,242.794503 161.015065,243.748229 160.218516,244.816549 C159.377314,245.975067 158.868128,248.088049 158.868128,250.155933 C158.868128,251.224253 159.022972,252.291834 159.311055,253.22338 L160.948806,253.542028 C163.095742,252.6785 165.043902,250.905606 165.818125,249.838025 L165.41985,249.111271 Z M162.56423,244.52082 C163.139675,244.498641 163.980877,244.702694 164.844405,245.043521 L164.844405,245.384349 C163.848359,246.247877 162.652815,247.043387 161.59051,247.611187 C161.767681,246.361732 162.122023,245.202475 162.56423,244.52082 L162.56423,244.52082 Z M169.558879,253.360155 L172.148744,253.360155 L173.188722,247.065567 C174.140836,246.066003 175.003644,245.452366 175.579089,245.157377 L175.99969,245.271232 C176.044343,245.475285 176.066669,245.725176 176.066669,245.997986 C176.066669,246.474849 175.99969,247.043387 175.911105,247.679204 L175.02597,253.178282 L177.416337,253.542028 L180.205699,251.224253 L179.696512,250.451662 L178.125021,251.656017 L177.903917,251.497063 L178.567948,247.611187 C178.700466,246.861514 178.766725,246.134021 178.766725,245.521123 C178.766725,243.862084 178.302192,242.794503 177.438664,242.794503 C176.287773,242.794503 174.915058,243.839165 173.476805,245.407268 L173.87508,243.021475 L172.922966,242.794503 L169.249191,243.589275 L169.249191,244.634676 L170.997853,244.634676 L169.558879,253.360155 Z M185.18593,253.542028 L187.996897,251.224253 L187.465384,250.451662 L185.916219,251.656017 L185.695116,251.497063 L187.089436,243.021475 L186.137323,242.794503 L182.463547,243.589275 L182.463547,244.634676 L184.21221,244.634676 L182.795563,253.178282 L185.18593,253.542028 Z M186.978525,241.112546 C187.487711,240.45381 187.974571,239.226535 188.240327,238.385926 L186.004805,238 C185.916219,238.453944 185.3631,239.772155 184.964106,240.498909 L186.978525,241.112546 Z M190.940383,253.360155 L193.530247,253.360155 L194.570226,247.065567 C195.522339,246.066003 196.385868,245.452366 196.961313,245.157377 L197.381914,245.271232 C197.425846,245.475285 197.448173,245.725176 197.448173,245.997986 C197.448173,246.474849 197.381914,247.043387 197.293328,247.679204 L196.407474,253.178282 L198.798561,253.542028 L201.587202,251.224253 L201.078016,250.451662 L199.506524,251.656017 L199.285421,251.497063 L199.949451,247.611187 C200.08197,246.861514 200.148229,246.134021 200.148229,245.521123 C200.148229,243.862084 199.683695,242.794503 198.820167,242.794503 C197.669276,242.794503 196.297282,243.839165 194.858309,245.407268 L195.256583,243.021475 L194.30519,242.794503 L190.630694,243.589275 L190.630694,244.634676 L192.379356,244.634676 L190.940383,253.360155 Z M205.925729,258.199757 C208.736696,258.199757 210.751115,255.813965 211.127063,253.473271 L212.831793,242.794503 L211.968265,242.794503 L211.237975,243.362303 C210.285861,242.975637 209.489312,242.794503 208.780629,242.794503 C207.098946,242.794503 206.058247,243.726049 205.239371,244.816549 C204.354237,246.020905 203.800398,248.519813 203.800398,250.76957 C203.800398,251.746954 203.91131,252.655581 204.132413,253.428172 L205.814817,253.428172 L209.112644,250.201771 L208.913867,251.542162 C208.559525,253.905035 208.249836,255.518236 207.873168,255.859063 C207.452567,255.95 207.031966,255.972919 206.633692,255.972919 C205.371889,255.972919 204.15474,255.609172 203.158694,255.155229 L202.538595,257.518102 C203.379797,257.949866 204.818771,258.199757 205.925729,258.199757 L205.925729,258.199757 Z M206.412588,250.815408 C206.346329,250.428743 206.324003,249.996979 206.324003,249.542296 C206.324003,247.634106 206.76693,245.521123 207.386308,244.52082 C208.116598,244.429884 208.980126,244.748532 209.865261,245.316331 L209.334468,248.838461 L206.744604,250.928525 L206.412588,250.815408 Z M58.005791,253.633838 C61.1048414,253.633838 64.159239,252.179591 64.159239,248.816415 C64.159239,246.703433 62.432903,245.998859 60.8167586,245.385222 C59.4008318,244.840341 58.3601328,244.430757 58.3601328,243.295158 C58.3601328,242.135901 59.5772825,241.432067 60.8614115,241.432067 C61.7249396,241.432067 62.432903,241.659039 62.9860219,242.067884 L63.1855192,244.271803 L64.4912544,244.271803 L65.0666997,240.841348 C64.2924773,240.386665 62.9420893,240 61.2596859,240 C58.4263918,240 55.7702686,241.840912 55.7702686,244.749405 C55.7702686,246.498641 57.0543976,247.271232 58.3601328,247.839032 C59.9539507,248.521426 61.3929242,248.884433 61.3929242,250.134627 C61.3929242,251.543035 59.9092979,252.22469 58.5596301,252.22469 C57.762361,252.22469 56.9434857,251.974799 56.1246105,251.407 L55.9474395,249.134324 L54.619378,249.134324 L54,252.77031 C55.2394761,253.31519 56.6114703,253.633838 58.005791,253.633838 L58.005791,253.633838 Z M73.5517225,249.316768 C72.6889146,249.975503 71.2276147,250.975067 70.1429831,251.270796 L69.8109677,251.15694 C69.6784496,250.566222 69.634517,249.975503 69.634517,249.338947 L69.634517,249.157074 C71.5380239,248.362303 73.8621317,247.203046 74.9467633,246.2715 L74.9467633,243.772592 C73.7735462,243.226972 72.7991062,243 71.9802309,243 C70.2538949,243 69.1469369,243.953725 68.350388,245.022046 C67.5091863,246.180563 67,248.293546 67,250.36143 C67,251.42975 67.1548445,252.497331 67.4429273,253.428877 L69.0806778,253.747525 C71.2276147,252.883996 73.1757745,251.111102 73.9507171,250.043521 L73.5517225,249.316768 Z M70.97444,245.001642 C71.5498853,244.979462 72.391087,245.183515 73.2538949,245.524342 L73.2538949,245.86517 C72.2578487,246.728698 71.0630254,247.524208 70,248.092008 C70.1771709,246.842553 70.5315127,245.683296 70.97444,245.001642 L70.97444,245.001642 Z M81.7144746,253.383778 L83.9723233,253.747525 L86.9158091,251.42975 L86.3850165,250.657158 L84.8351312,251.861514 L84.6140277,251.70256 L86.0530012,243 L85.189473,243 L84.4591832,243.567799 C83.5070696,243.181134 82.6881944,243 81.9802309,243 C80.2978275,243 79.2571285,243.931546 78.4382532,245.022046 C77.5531189,246.226401 77,248.72531 77,250.975067 C77,251.952451 77.1101917,252.861077 77.3320154,253.633669 L79.0136986,253.633669 L82.2013345,250.520384 L81.7144746,253.383778 Z M80.0885855,251.309991 C80.0223264,250.923326 80,250.491561 80,250.036878 C80,248.128688 80.4429273,246.015706 81.0623052,245.015403 C81.7933153,244.924466 82.6561232,245.243114 83.5196513,245.787995 L82.9218795,249.401061 L80.4206008,251.423107 L80.0885855,251.309991 Z M96.8797841,246.794201 L97.4552294,243.612898 C96.5254422,243.204053 95.7288934,243 94.8214326,243 C92.4303456,243 90.2834088,245.158081 90.2834088,246.430454 C90.2834088,247.589711 91.2131959,248.521257 92.2315685,249.316768 C93.3378064,250.157377 94.4670908,250.907049 94.4670908,251.292975 C94.4670908,251.770577 93.9579045,252.020468 93.1829619,252.020468 C92.6075165,252.020468 91.8549003,251.861514 91.0806778,251.542866 L90.6816832,249.611757 L89.5970515,249.611757 L89,253.110968 C89.7526162,253.474715 90.969766,253.747525 92.3417602,253.747525 C94.2013345,253.747525 96.7688722,252.043387 96.7688722,250.429447 C96.7688722,249.225831 95.6403079,248.248447 94.4894172,247.475856 C93.3378064,246.680345 92.386413,246.067447 92.386413,245.635683 C92.386413,245.158081 92.9841848,244.885271 93.7807336,244.885271 C94.2899199,244.885271 94.9316243,244.999127 95.5517225,245.226099 L95.772826,246.794201 L96.8797841,246.794201 Z M104.350388,251.998725 C103.952114,251.975806 103.531513,251.839032 103.354342,251.725915 C103.154844,251.180296 103,250.362606 103,249.476158 C103,247.431194 103.641704,245.000303 104.859574,244 C105.368761,244 105.789361,244.136775 106.076724,244.249891 C106.276221,244.840609 106.386413,245.568102 106.386413,246.340694 C106.386413,248.430757 105.700776,250.907486 104.350388,251.998725 L104.350388,251.998725 Z M103.076724,253.747525 C106.706567,253.701687 108.964416,250.498204 108.964416,246.885137 C108.964416,244.36331 107.680287,243 105.599609,243 C102.036025,243 100.021606,246.226401 100,249.975503 C100,252.043387 101.017652,253.747525 103.076724,253.747525 L103.076724,253.747525 Z M112.309689,253.565651 L114.899553,253.565651 L115.939532,247.271063 C116.891645,246.2715 117.754453,245.657863 118.329899,245.362873 L118.7505,245.476729 C118.795152,245.680782 118.817479,245.930673 118.817479,246.203482 C118.817479,246.680345 118.7505,247.248884 118.661914,247.884701 L117.77678,253.383778 L120.167147,253.747525 L122.956508,251.42975 L122.447322,250.657158 L120.87583,251.861514 L120.654007,251.70256 L121.318037,247.816683 C121.451276,247.067011 121.517535,246.339518 121.517535,245.72662 C121.517535,244.067581 121.053001,243 120.189473,243 C119.038582,243 117.665868,244.044662 116.227615,245.612764 L116.625889,243.226972 L115.673776,243 L112,243.794771 L112,244.840173 L113.748662,244.840173 L112.309689,253.565651 Z" id="Fill-6" fill="#00AE7C"></path>
                        <path d="M89.9482037,228.600266 L92.1613996,228.001415 C92.1016224,227.670938 91.6385294,225.56387 91.5377004,223.188428 C91.4973688,222.423969 91.4973688,221.845819 91.4973688,221.246229 L92.6446585,220.730182 L92.5438295,218.169171 C92.2823944,217.900058 91.9806277,217.75589 91.5578662,217.75589 L84.3543565,217.75589 C83.9114292,217.75589 83.7104915,217.693787 83.388559,217.610983 L83.1069581,216.846524 L82,216.991431 L82.3420983,220.854389 L88.2982096,220.854389 C89.0227378,220.854389 89.2640071,220.957154 89.6867686,221.122762 C89.747266,221.432538 89.9885353,222.960717 89.9683695,225.191991 L89.9482037,228.600266 Z M82.3622641,228.600266 L84.4947968,228.10418 C84.4544652,227.340461 84.4148538,225.915048 84.4148538,225.316197 C84.4148538,224.634542 84.4544652,223.539606 84.5149626,222.568876 L82.6841966,223.084923 C82.6841966,223.725176 82.643865,224.613841 82.5833676,225.852945 C82.543036,226.72017 82.4429273,227.691639 82.3622641,228.600266 L82.3622641,228.600266 Z M94.5762535,228.373294 L100.733303,228.373294 C100.672805,227.526031 100.391204,223.766578 100.331427,222.63024 C100.291095,221.618108 100.27093,219.532481 100.27093,218.788723 C100.210432,218.354741 99.868334,217.75589 99.3850752,217.75589 L97.2525424,217.75589 L96.9104441,216.846524 L95.6824913,216.929328 L96.085087,220.854389 L98.0368478,220.854389 C98.2586715,221.08136 98.3789461,221.536043 98.4192777,221.700912 C98.6807128,222.816549 98.761376,223.477503 98.761376,224.882215 C98.761376,225.088486 98.7210444,225.17129 98.6807128,225.254094 C98.4999408,225.336898 97.83591,225.439664 96.7894494,225.439664 L94.797357,225.439664 L94.5762535,228.373294 Z M105.80428,228.600266 L107.75604,228.145583 L107.575268,225.74944 C107.413942,223.581008 107.454274,219.614545 107.454274,219.201264 C107.454274,218.209834 106.85074,217.858656 106.609471,217.75589 L105.321021,217.652385 C105.059586,217.610983 104.878814,217.54888 104.617379,217.446114 L104.375389,216.825823 L103.328928,216.908627 L103.530586,220.750883 L105.079751,220.854389 C105.220912,220.957154 105.542844,221.246229 105.642953,221.804417 C105.723616,222.196997 105.844611,223.663073 105.884943,224.365429 C106.005217,226.328329 105.884943,227.50533 105.80428,228.600266 L105.80428,228.600266 Z M110.311335,230.129184 C110.311335,230.129184 112.505085,229.385426 113.430551,229.054949 C115.321814,228.373294 116.710373,227.608835 116.710373,227.608835 C117.414736,227.278358 117.837497,226.493198 118.018269,225.625973 L118.984066,221.184865 L119.829589,220.812986 L119.72876,218.14847 C119.708595,217.75589 119.426994,217.75589 119.105061,217.75589 L116.48927,217.75589 C116.046342,217.776591 116.10684,218.107068 116.147171,218.458246 L116.327943,220.668079 L117.777,221.184865 L116.770871,224.283364 C116.569213,224.923617 116.187503,225.191991 115.805073,225.439664 C115.583249,225.584571 115.281483,225.74944 114.899053,225.95645 L113.430551,222.320464 C113.229613,221.825118 113.209447,221.411837 113.189281,221.164164 L114.315685,220.771584 L114.477011,218.209834 C114.517343,217.900058 114.43668,217.75589 114.195411,217.75589 L112.263095,217.75589 C111.981494,217.75589 111.881386,217.652385 111.800722,217.590282 L111.458624,216.825823 L110.371832,217.032833 L110.57277,220.957154 L111.398127,221.329033 L113.772649,226.34903 L113.108618,226.596703 C111.539287,227.174853 110.734096,227.278358 110.170894,227.381863 L110.311335,230.129184 Z M136.208535,228.600266 L138.542726,228.042817 C138.422452,227.361162 138.240959,225.543169 138.140851,224.221261 C137.939193,221.721613 137.939193,220.523912 137.939193,219.965723 C137.939193,219.263367 137.335659,218.313339 136.651463,217.75589 L129.869994,217.75589 C129.407621,217.75589 129.226129,217.590282 129.105855,217.486777 L128.804088,216.825823 L127.898068,217.012132 L128.119891,220.68878 C128.401492,220.792285 128.743591,220.854389 129.205963,220.854389 L129.790051,220.854389 L129.12602,222.465371 C129.005026,222.733745 128.964694,223.147026 128.98486,223.373998 L129.12602,225.873646 L127.294534,226.018553 L126.771664,228.373294 L130.876123,228.373294 C131.077781,227.195554 131.097947,226.92718 131.097947,226.5346 C131.017284,226.059216 130.513859,223.291933 130.513859,222.63024 C130.513859,222.010688 130.835792,221.370435 131.057615,220.854389 L135.404064,220.854389 L135.56467,221.102061 C136.068095,221.887221 136.309364,223.725176 136.309364,224.737308 C136.309364,226.307628 136.289199,226.885778 136.208535,228.600266 L136.208535,228.600266 Z M141.923377,228.600266 L144.217237,228.063518 C144.156739,227.463928 143.91547,224.344728 143.91547,222.134894 L143.91547,220.854389 L149.670643,220.854389 C149.710975,221.597407 149.83125,224.572439 149.83125,225.047084 L149.83125,228.600266 L151.984668,228.10418 C151.843508,227.236956 151.662736,226.5346 151.521575,224.159158 C151.440912,222.981418 151.381135,221.928623 151.360969,221.370435 L152.286435,220.792285 L152.40743,218.313339 C152.40743,218.127769 152.004834,217.75589 151.440912,217.75589 L143.714532,217.75589 L143.110278,216.825823 L142.004041,216.97073 L142.144481,218.230535 C142.325973,219.842257 142.24531,224.613841 142.064538,227.11275 C142.024206,227.691639 141.983875,228.124882 141.923377,228.600266 L141.923377,228.600266 Z M157.94078,225.935749 C158.161883,225.377561 159.309173,222.568876 159.36895,220.626677 C159.389116,219.924321 159.328618,219.428976 159.248675,218.91219 C159.188178,218.581713 158.805748,217.776591 158.303044,217.75589 L156.431226,217.693787 L156.089128,216.846524 L154.861895,217.074235 L155.002335,220.792285 L155.827693,220.854389 C156.672495,220.915752 157.618847,221.019257 157.618847,221.86652 C157.618847,222.650941 156.511889,224.344728 156.089128,224.944318 L157.94078,225.935749 Z M170.758302,228.600266 L173.092493,228.042817 C172.971498,227.361162 172.790726,225.543169 172.689897,224.221261 C172.48896,221.721613 172.48896,220.523912 172.48896,219.965723 C172.48896,219.263367 171.884706,218.313339 171.20051,217.75589 L164.419761,217.75589 C163.956668,217.75589 163.775896,217.590282 163.654901,217.486777 L163.353135,216.825823 L162.447835,217.012132 L162.668938,220.68878 C162.950539,220.792285 163.292637,220.854389 163.75573,220.854389 L164.339098,220.854389 L163.675067,222.465371 C163.554073,222.733745 163.514461,223.147026 163.534627,223.373998 L163.675067,225.873646 L161.844301,226.018553 L161.320711,228.373294 L165.42589,228.373294 C165.626828,227.195554 165.646994,226.92718 165.646994,226.5346 C165.566331,226.059216 165.063626,223.291933 165.063626,222.63024 C165.063626,222.010688 165.385559,221.370435 165.606662,220.854389 L169.953111,220.854389 L170.114437,221.102061 C170.617142,221.887221 170.859131,223.725176 170.859131,224.737308 C170.859131,226.307628 170.838966,226.885778 170.758302,228.600266 L170.758302,228.600266 Z M175.627622,228.600266 L183.535494,228.083479 C183.978421,228.063518 184.401182,227.71234 184.521457,227.31976 C184.843389,226.34903 185.145156,225.377561 185.346814,224.613841 L184.541623,220.131332 C184.300353,218.602414 183.676654,218.065666 182.449422,217.982862 L178.384574,217.610983 L178.182916,216 L176.73458,216.164869 L176.834688,223.973588 C176.834688,224.38613 177.076678,224.448233 177.317947,224.448233 L180.496941,224.448233 L180.175008,222.423969 L179.088936,222.423969 C178.746838,222.423969 178.605677,222.361866 178.384574,222.2591 L178.344242,220.585275 L181.302132,220.936453 C182.449422,221.08136 182.93196,221.411837 183.153064,222.299763 L183.495162,223.704475 C183.636323,224.241962 183.616157,224.758009 183.435385,225.129888 C183.233727,225.295496 182.650359,225.418963 181.986329,225.460365 L176.432813,225.728739 L175.627622,228.600266 Z" id="Fill-8" fill="#00AE7C"></path>
                        <path d="M104.907214,97.7808112 C104.907214,99.2202712 104.813588,99.9396315 104.68179,102.644811 L104.68179,102.647029 C104.61265,104.141938 104.460686,105.79728 104.313764,107.397173 L104.09122,109.870945 L110.56372,108.367163 L110.527709,107.692902 C110.440564,106.043474 110.348378,102.849603 110.348378,101.479639 C110.348378,99.975119 110.438404,98.8247339 110.572362,96.6725674 L110.641502,95.5532338 L104.907214,97.1708705 L104.907214,97.7808112 Z" id="Fill-10" fill="#00AE7C"></path>
                        <path d="M128.57379,85.1005509 L128.358449,84.8794936 C127.586387,84.0862011 126.708454,83.7180187 125.595735,83.7180187 L109.433571,83.7180187 C108.720566,83.7180187 108.346059,83.6440865 107.851276,83.5191411 L107.146194,81.6057756 L103.307491,82.107036 L104.207749,92.2690175 L118.282033,92.2690175 C119.520069,92.2690175 120.037898,92.4065314 120.70625,92.6593795 C120.877659,93.7447043 121.288897,96.8239806 121.250006,101.194113 L121.198151,109.887801 L127.849262,108.087552 L127.641843,106.975612 C127.366003,105.589383 126.528403,101.370072 126.328905,96.6635477 C126.250403,95.1900789 126.24104,94.0352578 126.2396,92.8723043 L128.833065,91.7041754 L128.57379,85.1005509 Z" id="Fill-12" fill="#00AE7C"></path>
                        <path d="M228.303149,88.2768263 L228.30531,87.7622582 C228.30531,85.0859124 227.148657,83.9170442 225.930067,83.7795303 L222.859105,83.4956306 C222.452188,83.4313096 221.843613,83.5229856 221.616748,82.8383733 L221.129888,81.5896584 L217.452512,81.8809513 L217.981143,91.9904409 L221.905551,92.2514216 C222.168427,92.4924406 222.555898,92.9678247 222.700659,93.7662925 C222.861266,94.5521918 223.130623,97.7224047 223.227131,99.3947512 L223.227131,99.3984478 C223.46768,103.302807 223.274664,105.81872 223.103975,108.038165 L222.967136,109.867248 L229.032719,108.456621 L228.573947,102.391223 C228.360046,99.5100854 228.27002,94.7614199 228.303149,88.2768263" id="Fill-14" fill="#00AE7C"></path>
                        <path d="M23.9975111,88.2768263 L23.9996717,87.7622582 C23.9996717,85.0859124 22.8437396,83.9170442 21.6244292,83.7795303 L18.5534669,83.4956306 C18.14655,83.4313096 17.5379751,83.5229856 17.3111099,82.8383733 L16.8235298,81.5896584 L13.1468734,81.8809513 L13.6755053,91.9904409 L17.5991927,92.2514216 C17.8627884,92.4924406 18.2502598,92.9678247 18.3950213,93.7662925 C18.5556275,94.5521918 18.8249849,97.7224047 18.9214926,99.3947512 L18.9214926,99.3984478 C19.1620417,103.302807 18.9690263,105.81872 18.7983372,108.038165 L18.6614979,109.867248 L24.7263605,108.456621 L24.2683089,102.391223 C24.0544074,99.5100854 23.9643816,94.7614199 23.9975111,88.2768263" id="Fill-16" fill="#00AE7C"></path>
                        <path d="M184.392637,83.7177969 L167.474256,83.7177969 L166.082816,81.575981 L162.357185,82.0631942 L162.761221,85.6755217 C163.152294,89.1577285 162.989527,99.7684785 162.577569,105.452386 L162.577569,105.454604 C162.485382,106.77873 162.395356,107.731716 162.266439,108.743848 L162.121678,109.883143 L169.030623,108.265507 L168.960763,107.560933 C168.818162,106.140695 168.288089,99.2243374 168.288089,94.3433333 L168.288089,92.269535 L179.678882,92.269535 C179.792675,94.6693743 180.001535,99.9843605 180.001535,100.877462 L180.001535,109.846917 L186.500682,108.350529 L186.379688,107.604553 C186.325672,107.265943 186.267335,106.939902 186.208278,106.602771 C185.928118,105.008793 185.609786,103.202629 185.350512,98.8280608 C185.194227,96.5405984 185.06747,94.4032184 185.009134,93.0665242 L187.047319,91.7934116 L187.339003,85.7694156 C187.339003,84.8408271 186.024625,83.7177969 184.392637,83.7177969" id="Fill-18" fill="#00AE7C"></path>
                        <path d="M38.1909892,83.7185362 L34.4948872,83.5958088 L33.679613,81.5774596 L29.6406925,82.3249142 L30.0101587,92.0758326 L32.5575306,92.267317 C35.0206383,92.4484509 35.8517571,92.8195906 35.8517571,93.7407859 C35.8517571,94.9089147 34.2003226,97.8617669 32.5690539,100.176584 L32.040422,100.926257 L37.7523832,103.985571 L38.1376939,103.014102 C40.1715583,97.9120408 41.2482677,93.864992 41.3382935,90.9831146 C41.3865474,89.2715841 41.2259412,88.0701858 41.0538118,86.9656387 C40.9061694,86.1575597 39.916605,83.7895112 38.1909892,83.7185362" id="Fill-20" fill="#00AE7C"></path>
                        <path d="M71.9510493,98.957664 C71.5016402,93.3831758 71.5016402,90.7452747 71.5016402,89.4773374 C71.5016402,87.5144374 69.9006202,85.181137 68.3183255,83.8910201 L68.1051443,83.7180187 L52.619975,83.7180187 C52.0186022,83.7180187 51.7442034,83.5738509 51.5331828,83.4097214 L50.6725355,81.5244502 L47.3754281,82.2016692 L47.945832,91.6753419 L48.4305313,91.8520398 C49.1968315,92.1329822 50.0798052,92.2697568 51.1298669,92.2697568 L51.2631052,92.2697568 L50.2411315,94.7501822 C49.911997,95.4835897 49.7989245,96.535645 49.8551006,97.169244 L50.1273388,101.99332 L46.2086929,102.302357 L44.6904967,109.138129 L55.5317717,109.138129 L55.6448441,108.476435 C56.107217,105.772735 56.15259,105.130264 56.15259,104.213504 L56.020072,103.382506 C55.6988597,101.545291 54.843974,96.6657657 54.843974,95.4547561 C54.843974,94.4197053 55.3445179,93.2781921 55.7874451,92.2697568 L64.6171821,92.2697568 L64.7446587,92.4656771 C65.7507878,94.0352578 66.2866218,97.9558826 66.2866218,100.181981 C66.2866218,103.673799 66.2441296,104.934343 66.061197,108.80913 L66.0115027,109.8671 L72.976624,108.202886 L72.8433857,107.453953 C72.5776294,105.948693 72.1728731,101.874289 71.9510493,98.957664" id="Fill-22" fill="#00AE7C"></path>
                        <path d="M207.942179,83.7177969 L199.680685,83.7177969 C198.277722,83.7177969 196.5305,83.6460827 196.441915,82.3958891 L196.343246,80.1742264 L199.149893,79.0386277 L198.650069,74.0578151 C198.573007,73.2600866 198.137282,72.5104141 196.836588,72.4564436 C192.978439,72.2960107 191.06485,72.8837717 191.06485,72.8837717 L191.846274,92.3937411 L192.624098,92.3619502 C193.656154,92.3198089 195.685697,92.269535 199.500633,92.269535 L205.052709,92.269535 C205.932081,92.269535 207.975308,92.4491902 207.975308,94.1111862 C207.975308,95.6903781 206.365646,98.6831537 204.29145,100.174366 C202.265508,101.625655 200.210037,101.817879 199.221913,101.910294 L198.227308,102.014539 L198.629903,109.138646 L203.21402,109.138646 L203.412077,109.002611 C208.552194,105.452386 213.868762,97.5253754 213.868762,90.4034862 C213.868762,86.0924993 211.763597,83.7177969 207.942179,83.7177969" id="Fill-24" fill="#00AE7C"></path>
                        <path d="M87.8265708,101.467293 C84.7419245,101.467293 83.4649976,101.467293 82.9579719,96.5751987 C82.7937647,94.9878743 82.6878943,93.4478665 82.6569254,92.2257671 C83.8099767,92.0838173 85.4750951,91.8989868 87.6911718,91.8989868 C92.8593768,91.8989868 93.3210294,92.5436756 93.5961485,96.1619177 C93.6696096,97.1947506 93.6487236,98.6038984 93.6148739,99.2508052 C93.0372679,99.9088018 91.4917038,101.467293 87.8265708,101.467293 M94.7787283,83.7176491 L80.5697657,83.7176491 L79.1840876,81.584705 L75.4915866,81.997986 L76.0641511,91.6158264 L77.9374094,92.3484946 L78.0187927,97.0860702 C78.0656062,103.298593 79.1559995,109.647891 86.8787784,109.647891 C94.7758475,109.647891 99.3052289,104.406837 99.3052289,95.269556 C99.3052289,89.7054183 97.8885818,83.7176491 94.7787283,83.7176491" id="Fill-26" fill="#00AE7C"></path>
                        <path d="M253.152737,89.7191697 C252.57081,86.0395639 251.002199,84.4492821 247.757667,84.2311821 L239.262826,83.4534154 L238.792531,79.6969201 L234.078777,80.2344072 L234.314284,96.9970559 C234.314284,97.5582013 234.495056,98.863844 236.176739,98.863844 L244.225772,98.863844 L243.249172,94.4042535 L240.148681,94.2423419 C239.795779,94.2201623 239.324764,94.171367 239.326204,93.7817443 L239.280111,91.7678311 L245.02016,92.4487467 C247.563931,92.7703517 248.086801,93.3802924 248.513164,94.9069924 C248.939527,96.4336925 249.092931,97.6203043 249.223288,98.9636525 C249.353645,100.30774 248.81421,100.701059 247.215351,100.924335 C245.617212,101.148349 233.595518,101.634084 233.595518,101.634084 L231.329747,109.717831 L250.162438,108.489078 C251.445847,108.428453 252.701888,107.45107 253.075675,106.232667 C253.885188,103.793643 254.529773,101.677704 254.942451,100.112559 L254.987824,99.9373396 L253.152737,89.7191697 Z" id="Fill-28" fill="#00AE7C"></path>
                        <path d="M156.890094,117.131309 C156.557359,114.631661 156.102188,111.207861 155.953825,105.711001 L155.608126,92.8349685 L158.593384,91.9056407 L158.386684,86.0539067 L158.33627,85.9245254 C157.741379,84.4007826 156.210219,83.7065592 155.039163,83.7065592 L150.930382,83.7065592 C150.36574,83.7065592 149.711072,83.5032457 149.313517,83.2807097 L148.704943,81.5758331 L144.51838,81.9173999 L144.995157,92.2582973 L147.950886,92.2582973 C148.917404,92.2582973 149.419388,92.4579142 149.887522,92.7174163 L150.105745,106.070312 L150.105745,106.07253 C150.196491,110.864815 149.883921,115.056032 149.387699,119.874933 L149.275347,120.963215 L157.164493,119.296783 L157.075908,118.562636 C157.021892,118.119782 156.958514,117.645138 156.890094,117.131309" id="Fill-30" fill="#00AE7C"></path>
                        <g id="Group-34" transform="translate(252.792634, 124.230501)">
                            <mask id="mask-4" fill="white">
                                <use xlink:href="#path-3"></use>
                            </mask>
                            <g id="Clip-33"></g>
                            <path d="M13.4398536,34.4008765 L15.3426403,27.0165279 L11.7581704,26.5234001 L11.7581704,17.7653912 L14.8046457,17.7653912 L14.8046457,10.680468 L11.325326,10.680468 L10.1254613,2.22632047 C9.16110421,1.56388792 7.62922407,0.788339094 6.14919882,0.405370276 L3.21651618,10.8305504 L1.71344432,11.1869036 L0.285994173,16.2786145 L2.32634042,17.8526312 L2.32634042,31.3179035 C5.23885725,33.0641822 8.97457062,34.0999724 13.4398536,34.4008765" id="Fill-32" fill="#00AE7C" mask="url(#mask-4)"></path>
                        </g>
                        <path d="M72.0428757,158.631377 L73.9456624,151.247029 L70.3611925,150.753901 L70.3611925,141.995892 L73.4083881,141.995892 L73.4083881,134.910969 L69.9290684,134.910969 L68.7284834,126.456821 C67.7648465,125.794389 66.2322462,125.01884 64.7529411,124.635871 L61.8202585,135.061051 L60.3164664,135.417404 L58.8897365,140.509115 L60.9300827,142.083132 L60.9300827,155.548404 C63.8425996,157.294683 67.5775927,158.330473 72.0428757,158.631377" id="Fill-35" fill="#00AE7C"></path>
                        <path d="M10.6230523,142.981778 L11.2712385,132.897425 L14.7822473,133.618264 L15.4347548,144.670389 L10.6230523,142.981778 Z M27.7711793,151.721304 L25.507569,151.295454 L23.3635129,128.923569 C19.4880794,126.334464 17.4866243,125.299413 11.4764975,124.636241 L6.03605431,127.293364 L1.29061082,149.667467 L0,155.4327 C2.32338757,156.917259 5.69107519,157.959703 9.78185057,158.459485 L11.7580984,152.465801 L9.91724947,152.028862 L10.242783,148.362564 L15.578076,149.671164 L15.7502054,152.718649 L14.8823561,155.436397 C17.1387644,156.892122 21.1431149,158.055076 25.5061285,158.516413 L27.7711793,151.721304 Z" id="Fill-37" fill="#00AE7C"></path>
                        <path d="M53.2766597,158.50828 L55.5424307,151.711693 L53.4869601,151.281407 L53.6576492,139.297736 L54.6580166,135.939735 C52.5895823,134.592691 49.5827183,133.580559 45.7108859,132.927737 L43.4436744,139.816001 L44.95971,140.146478 L44.7429278,150.68921 L41.0857169,149.569877 L41.2585666,139.292561 L42.3021465,135.939735 C39.9557123,134.432997 36.6852526,133.366895 32.5721508,132.768783 L30.3956854,139.697709 L32.5080524,140.082896 L32.2559799,154.602442 C34.2135024,156.228211 37.5991952,157.723859 40.8415668,158.393685 L44.7998241,150.945016 L44.6622646,156.315451 C46.9057092,157.384511 49.3018376,157.993712 53.2766597,158.50828" id="Fill-39" fill="#00AE7C"></path>
                        <path d="M99.5696888,158.50828 L101.83546,151.711693 L99.7799893,151.281407 L99.9513985,139.297736 L100.951046,135.939735 C98.8833316,134.592691 95.8771879,133.580559 92.003915,132.927737 L89.7367036,139.816001 L91.2527392,140.146478 L91.0352367,150.68921 L87.3787461,149.569877 L87.5515957,139.292561 L88.5951756,135.939735 C86.2487414,134.432997 82.9782817,133.366895 78.8651799,132.768783 L76.6894348,139.697709 L78.8010815,140.082896 L78.5497293,154.602442 C80.5065315,156.228211 83.8922243,157.723859 87.1338757,158.393685 L91.0914128,150.945016 L90.9552937,156.315451 C93.1987383,157.38525 95.595587,157.993712 99.5696888,158.50828" id="Fill-41" fill="#00AE7C"></path>
                        <path d="M142.166688,151.711914 L140.106176,151.28015 L140.506611,136.76578 C138.666482,135.208028 135.225334,133.736038 131.782024,133.030725 L127.922435,140.640567 L128.101767,136.762083 C126.286125,135.232426 122.792401,133.730863 119.421833,133.029986 L115.417482,140.453518 L115.554322,135.057207 C113.199245,133.932698 110.631707,133.256958 106.8463,132.76309 L104.669114,139.697931 L106.7786,140.082379 L106.60503,152.132589 L105.56145,155.440315 C107.567227,156.7881 110.443733,157.763265 114.553954,158.492237 L116.773632,151.565529 L115.359866,151.285326 L115.467897,140.738897 L119.233859,141.852316 L118.95802,152.127413 L117.959093,155.438098 C119.959827,156.782185 122.82121,157.758829 126.907664,158.491498 L129.171274,151.565529 L127.756788,151.284586 L127.97357,140.794346 L131.633662,141.849358 L131.357822,152.132589 L130.314243,155.438098 C132.466941,156.856117 135.454359,157.809103 139.904518,158.49963 L142.166688,151.711914 Z" id="Fill-43" fill="#00AE7C"></path>
                        <path d="M170.19635,151.711914 L168.137278,151.28015 L168.486578,136.766519 C166.672377,135.235383 163.177213,133.730863 159.803043,133.029986 L155.798693,140.453518 L155.935532,135.057207 C153.580455,133.932698 151.013638,133.256958 147.22679,132.76309 L145.049604,139.697931 L147.159811,140.082379 L146.986241,152.132589 L145.942661,155.440315 C147.948437,156.7881 150.824944,157.763265 154.935165,158.492237 L157.154122,151.565529 L155.741076,151.285326 L155.849107,140.738897 L159.615069,141.852316 L159.33923,152.127413 L158.340303,155.438098 C160.438986,156.848724 163.427845,157.80171 167.933459,158.49963 L170.19635,151.711914 Z" id="Fill-45" fill="#00AE7C"></path>
                        <path d="M205.822322,156.002792 L207.484559,150.928085 L194.603658,149.09087 L195.341871,131.792952 L199.601895,133.593941 L199.061739,140.803809 L205.910187,142.119063 L206.762192,123.666324 L202.574189,123.227906 L201.254769,125.782264 L200.924195,125.67728 C198.165082,124.801923 195.261928,124.132097 192.722478,123.785355 L185.406616,128.312963 L185.260414,154.311223 C188.041853,156.164703 193.637861,158.124646 198.520864,158.941597 L205.822322,156.002792 Z" id="Fill-47" fill="#00AE7C"></path>
                        <path d="M232.470338,158.50828 L234.73611,151.711693 L232.679919,151.281407 L232.851328,139.297736 L233.851695,135.939735 C231.783261,134.592691 228.776397,133.580559 224.904565,132.927737 L222.637353,139.816001 L224.152669,140.146478 L223.936607,150.68921 L220.279396,149.569877 L220.452245,139.292561 L221.495825,135.939735 C219.149391,134.432997 215.878931,133.366895 211.76583,132.768783 L209.588644,139.697709 L211.701731,140.082896 L211.449659,154.602442 C213.407181,156.228211 216.792154,157.723859 220.035246,158.393685 L223.993503,150.945016 L223.855943,156.315451 C226.099388,157.384511 228.494796,157.993712 232.470338,158.50828" id="Fill-49" fill="#00AE7C"></path>
                        <path d="M250.065138,151.716129 L247.9146,151.284364 L248.065123,131.068343 C248.065123,126.628714 247.722305,123.150203 247.072678,120.963289 L238.172361,123.774191 L239.426241,128.885125 L239.257713,152.133106 L238.214133,155.437876 C240.366831,156.855895 243.35425,157.808882 247.803688,158.500148 L250.065138,151.716129 Z" id="Fill-51" fill="#00AE7C"></path>
                    </g>
                </g>
            </g>
        </g>
    </g>
</svg>