<?xml version="1.0" encoding="UTF-8"?>
<svg width="111px" height="50px" viewBox="0 0 111 50" version="1.1" xmlns="http://www.w3.org/2000/svg" xmlns:xlink="http://www.w3.org/1999/xlink">
    <!-- Generator: Sketch 46.2 (44496) - http://www.bohemiancoding.com/sketch -->
    <title>25</title>
    <desc>Created with Sketch.</desc>
    <defs></defs>
    <g id="Page-1" stroke="none" stroke-width="1" fill="none" fill-rule="evenodd">
        <g id="home-copy-13" transform="translate(-1658.000000, -2527.000000)" fill="#00AE7C">
            <path d="M1664.004,2534.266 L1668.158,2532.468 C1670.948,2533.026 1672.56,2533.522 1675.474,2534.514 L1674.606,2547.348 L1660.036,2563.84 L1658.734,2572.334 C1663.384,2574.38 1670.762,2576.116 1676.404,2576.736 L1680.372,2573.574 L1682.046,2558.074 C1680.496,2557.454 1678.822,2556.958 1676.962,2556.648 L1676.404,2572.892 C1671.754,2572.396 1667.662,2571.652 1663.57,2570.536 L1664.19,2565.452 L1679.504,2547.72 L1680.62,2533.274 C1677.582,2531.476 1673.924,2529.988 1669.274,2528.934 L1659.974,2533.398 L1660.408,2548.898 C1661.524,2549.27 1663.508,2549.766 1665.368,2549.952 L1664.004,2534.266 Z M1702.68,2571.9 L1697.906,2573.326 C1694.93,2572.21 1690.218,2569.978 1687.242,2568.552 L1685.196,2572.83 C1687.738,2574.008 1694.372,2576.302 1697.286,2576.86 L1707.454,2572.768 L1706.276,2553.114 C1701.936,2551.068 1696.046,2549.332 1691.582,2548.402 L1691.644,2534.266 L1704.54,2536.374 L1706.772,2528.19 L1703.052,2527.012 L1702.742,2531.6 L1689.97,2530.112 L1688.172,2534.576 L1688.172,2551.936 C1693.008,2553.052 1698.154,2554.54 1701.812,2556.09 L1702.68,2571.9 Z M1712.65,2573.946 C1713.89,2574.752 1716.06,2575.372 1717.858,2575.558 L1719.718,2569.792 L1714.076,2568.118 L1712.65,2573.946 Z M1736.074,2566.692 L1736.074,2531.228 C1733.408,2530.546 1730.184,2530.05 1726.526,2529.74 L1724.604,2532.964 L1731.3,2533.708 L1731.3,2570.846 C1729.192,2570.288 1727.704,2569.854 1725.534,2569.048 L1723.922,2571.9 C1727.518,2573.636 1732.602,2575.124 1738.678,2576.24 L1740.91,2572.52 C1738.678,2572.272 1736.136,2571.9 1734.524,2571.59 L1736.074,2566.692 Z M1768.364,2572.396 L1757.948,2576.488 C1753.298,2575.496 1749.33,2574.008 1746.168,2572.334 L1747.718,2549.208 L1746.168,2533.398 L1756.46,2528.934 C1761.172,2529.802 1764.83,2531.352 1768.302,2533.212 L1766.752,2549.208 L1768.364,2572.396 Z M1763.714,2571.528 L1762.102,2549.208 L1763.59,2534.7 C1761.42,2533.832 1758.444,2532.84 1755.592,2532.344 L1750.756,2534.08 L1752.368,2549.208 L1750.942,2570.722 C1753.36,2571.528 1755.964,2572.334 1758.816,2572.954 L1763.714,2571.528 Z" id="25"></path>
        </g>
    </g>
</svg>