<?xml version="1.0" encoding="UTF-8"?>
<svg width="113px" height="49px" viewBox="0 0 113 49" version="1.1" xmlns="http://www.w3.org/2000/svg" xmlns:xlink="http://www.w3.org/1999/xlink">
    <!-- Generator: Sketch 46.2 (44496) - http://www.bohemiancoding.com/sketch -->
    <title>26</title>
    <desc>Created with Sketch.</desc>
    <defs></defs>
    <g id="Page-1" stroke="none" stroke-width="1" fill="none" fill-rule="evenodd">
        <g id="home-copy-13" transform="translate(-1657.000000, -2932.000000)" fill="#00AE7C">
            <path d="M1662.764,2938.266 L1666.918,2936.468 C1669.708,2937.026 1671.32,2937.522 1674.234,2938.514 L1673.366,2951.348 L1658.796,2967.84 L1657.494,2976.334 C1662.144,2978.38 1669.522,2980.116 1675.164,2980.736 L1679.132,2977.574 L1680.806,2962.074 C1679.256,2961.454 1677.582,2960.958 1675.722,2960.648 L1675.164,2976.892 C1670.514,2976.396 1666.422,2975.652 1662.33,2974.536 L1662.95,2969.452 L1678.264,2951.72 L1679.38,2937.274 C1676.342,2935.476 1672.684,2933.988 1668.034,2932.934 L1658.734,2937.398 L1659.168,2952.898 C1660.284,2953.27 1662.268,2953.766 1664.128,2953.952 L1662.764,2938.266 Z M1707.206,2936.53 L1706.338,2950.046 C1704.726,2949.736 1702.99,2948.992 1701.874,2948.372 L1703.114,2938.452 C1700.944,2937.584 1698.836,2936.964 1696.294,2936.344 L1690.838,2937.956 L1691.954,2951.906 C1697.472,2953.642 1703.486,2955.936 1706.896,2957.61 L1708.322,2976.086 L1697.658,2980.55 C1693.628,2979.682 1689.288,2978.132 1686.25,2976.272 L1687.614,2954.386 L1686.188,2937.088 L1696.914,2932.81 C1700.882,2933.678 1704.912,2935.352 1707.206,2936.53 Z M1702.246,2959.532 C1699.58,2958.23 1695.674,2956.804 1692.016,2955.378 L1690.9,2974.97 C1693.442,2975.9 1696.604,2976.644 1698.96,2977.14 L1703.548,2975.466 L1702.246,2959.532 Z M1713.89,2977.946 C1715.13,2978.752 1717.3,2979.372 1719.098,2979.558 L1720.958,2973.792 L1715.316,2972.118 L1713.89,2977.946 Z M1737.314,2970.692 L1737.314,2935.228 C1734.648,2934.546 1731.424,2934.05 1727.766,2933.74 L1725.844,2936.964 L1732.54,2937.708 L1732.54,2974.846 C1730.432,2974.288 1728.944,2973.854 1726.774,2973.048 L1725.162,2975.9 C1728.758,2977.636 1733.842,2979.124 1739.918,2980.24 L1742.15,2976.52 C1739.918,2976.272 1737.376,2975.9 1735.764,2975.59 L1737.314,2970.692 Z M1769.604,2976.396 L1759.188,2980.488 C1754.538,2979.496 1750.57,2978.008 1747.408,2976.334 L1748.958,2953.208 L1747.408,2937.398 L1757.7,2932.934 C1762.412,2933.802 1766.07,2935.352 1769.542,2937.212 L1767.992,2953.208 L1769.604,2976.396 Z M1764.954,2975.528 L1763.342,2953.208 L1764.83,2938.7 C1762.66,2937.832 1759.684,2936.84 1756.832,2936.344 L1751.996,2938.08 L1753.608,2953.208 L1752.182,2974.722 C1754.6,2975.528 1757.204,2976.334 1760.056,2976.954 L1764.954,2975.528 Z" id="26"></path>
        </g>
    </g>
</svg>