<?xml version="1.0" encoding="UTF-8"?>
<svg width="105px" height="49px" viewBox="0 0 105 49" version="1.1" xmlns="http://www.w3.org/2000/svg" xmlns:xlink="http://www.w3.org/1999/xlink">
    <!-- Generator: Sketch 46.2 (44496) - http://www.bohemiancoding.com/sketch -->
    <title>27</title>
    <desc>Created with Sketch.</desc>
    <defs></defs>
    <g id="Page-1" stroke="none" stroke-width="1" fill="none" fill-rule="evenodd">
        <g id="home-copy-13" transform="translate(-1661.000000, -3336.000000)" fill="#00AE7C">
            <path d="M1666.67,3342.266 L1670.824,3340.468 C1673.614,3341.026 1675.226,3341.522 1678.14,3342.514 L1677.272,3355.348 L1662.702,3371.84 L1661.4,3380.334 C1666.05,3382.38 1673.428,3384.116 1679.07,3384.736 L1683.038,3381.574 L1684.712,3366.074 C1683.162,3365.454 1681.488,3364.958 1679.628,3364.648 L1679.07,3380.892 C1674.42,3380.396 1670.328,3379.652 1666.236,3378.536 L1666.856,3373.452 L1682.17,3355.72 L1683.286,3341.274 C1680.248,3339.476 1676.59,3337.988 1671.94,3336.934 L1662.64,3341.398 L1663.074,3356.898 C1664.19,3357.27 1666.174,3357.766 1668.034,3357.952 L1666.67,3342.266 Z M1708.756,3355.224 L1709.81,3341.212 C1704.416,3339.228 1698.836,3337.926 1692.822,3337.43 L1688.544,3341.15 L1689.536,3356.898 C1690.652,3357.394 1692.822,3357.952 1694.682,3358.262 L1692.574,3341.088 C1697.224,3341.522 1701.254,3342.204 1704.726,3343.01 L1703.982,3355.41 L1697.348,3368.616 L1695.798,3381.946 C1696.852,3382.69 1698.65,3383.62 1700.944,3384.364 L1701.564,3368.926 L1708.756,3355.224 Z M1709.984,3381.946 C1711.224,3382.752 1713.394,3383.372 1715.192,3383.558 L1717.052,3377.792 L1711.41,3376.118 L1709.984,3381.946 Z M1733.408,3374.692 L1733.408,3339.228 C1730.742,3338.546 1727.518,3338.05 1723.86,3337.74 L1721.938,3340.964 L1728.634,3341.708 L1728.634,3378.846 C1726.526,3378.288 1725.038,3377.854 1722.868,3377.048 L1721.256,3379.9 C1724.852,3381.636 1729.936,3383.124 1736.012,3384.24 L1738.244,3380.52 C1736.012,3380.272 1733.47,3379.9 1731.858,3379.59 L1733.408,3374.692 Z M1765.698,3380.396 L1755.282,3384.488 C1750.632,3383.496 1746.664,3382.008 1743.502,3380.334 L1745.052,3357.208 L1743.502,3341.398 L1753.794,3336.934 C1758.506,3337.802 1762.164,3339.352 1765.636,3341.212 L1764.086,3357.208 L1765.698,3380.396 Z M1761.048,3379.528 L1759.436,3357.208 L1760.924,3342.7 C1758.754,3341.832 1755.778,3340.84 1752.926,3340.344 L1748.09,3342.08 L1749.702,3357.208 L1748.276,3378.722 C1750.694,3379.528 1753.298,3380.334 1756.15,3380.954 L1761.048,3379.528 Z" id="27"></path>
        </g>
    </g>
</svg>