<?xml version="1.0" encoding="UTF-8"?>
<svg width="115px" height="49px" viewBox="0 0 115 49" version="1.1" xmlns="http://www.w3.org/2000/svg" xmlns:xlink="http://www.w3.org/1999/xlink">
    <!-- Generator: Sketch 46.2 (44496) - http://www.bohemiancoding.com/sketch -->
    <title>28</title>
    <desc>Created with Sketch.</desc>
    <defs></defs>
    <g id="Page-1" stroke="none" stroke-width="1" fill="none" fill-rule="evenodd">
        <g id="home-copy-13" transform="translate(-1656.000000, -3740.000000)" fill="#00AE7C">
            <path d="M1661.958,3746.266 L1666.112,3744.468 C1668.902,3745.026 1670.514,3745.522 1673.428,3746.514 L1672.56,3759.348 L1657.99,3775.84 L1656.688,3784.334 C1661.338,3786.38 1668.716,3788.116 1674.358,3788.736 L1678.326,3785.574 L1680,3770.074 C1678.45,3769.454 1676.776,3768.958 1674.916,3768.648 L1674.358,3784.892 C1669.708,3784.396 1665.616,3783.652 1661.524,3782.536 L1662.144,3777.452 L1677.458,3759.72 L1678.574,3745.274 C1675.536,3743.476 1671.878,3741.988 1667.228,3740.934 L1657.928,3745.398 L1658.362,3760.898 C1659.478,3761.27 1661.462,3761.766 1663.322,3761.952 L1661.958,3746.266 Z M1707.516,3745.212 L1706.152,3758.976 L1702.246,3765.61 L1707.826,3770.322 L1708.756,3784.52 L1697.658,3788.55 C1693.008,3787.682 1688.42,3786.132 1685.01,3784.334 L1686.374,3769.764 L1691.334,3762.324 L1687.676,3759.162 L1686.622,3745.398 L1696.542,3740.934 C1700.386,3741.864 1703.362,3742.98 1707.516,3745.212 Z M1703.486,3772.802 L1693.318,3764.06 L1690.838,3770.508 L1689.908,3782.536 C1692.202,3783.342 1695.24,3784.21 1698.464,3785.016 L1704.044,3783.466 L1703.486,3772.802 Z M1691.396,3746.08 L1692.14,3757.302 L1700.2,3764.06 L1702.308,3757.922 L1702.68,3746.7 C1700.076,3745.708 1698.092,3744.964 1695.674,3744.406 L1691.396,3746.08 Z M1714.696,3785.946 C1715.936,3786.752 1718.106,3787.372 1719.904,3787.558 L1721.764,3781.792 L1716.122,3780.118 L1714.696,3785.946 Z M1738.12,3778.692 L1738.12,3743.228 C1735.454,3742.546 1732.23,3742.05 1728.572,3741.74 L1726.65,3744.964 L1733.346,3745.708 L1733.346,3782.846 C1731.238,3782.288 1729.75,3781.854 1727.58,3781.048 L1725.968,3783.9 C1729.564,3785.636 1734.648,3787.124 1740.724,3788.24 L1742.956,3784.52 C1740.724,3784.272 1738.182,3783.9 1736.57,3783.59 L1738.12,3778.692 Z M1770.41,3784.396 L1759.994,3788.488 C1755.344,3787.496 1751.376,3786.008 1748.214,3784.334 L1749.764,3761.208 L1748.214,3745.398 L1758.506,3740.934 C1763.218,3741.802 1766.876,3743.352 1770.348,3745.212 L1768.798,3761.208 L1770.41,3784.396 Z M1765.76,3783.528 L1764.148,3761.208 L1765.636,3746.7 C1763.466,3745.832 1760.49,3744.84 1757.638,3744.344 L1752.802,3746.08 L1754.414,3761.208 L1752.988,3782.722 C1755.406,3783.528 1758.01,3784.334 1760.862,3784.954 L1765.76,3783.528 Z" id="28"></path>
        </g>
    </g>
</svg>